<svg width="58" height="48" viewBox="0 0 58 48" fill="none" xmlns="http://www.w3.org/2000/svg">
<path d="M28.9572 0C24.5389 0 20.9566 3.58227 20.9566 8.00061C20.9566 9.90831 21.6254 11.6586 22.7398 13.0341C22.4151 14.5707 21.3093 16.6139 20.0949 18.5509C19.4077 19.6091 18.5277 20.9383 17.5574 22.3419C17.4659 22.4749 17.3755 22.6031 17.2913 22.7264C16.537 23.8102 15.7351 24.9258 14.9332 25.9864C12.563 29.1195 10.189 31.7595 9.01243 31.607V31.6131C6.09535 31.2091 3.06721 32.4565 1.32672 35.0733C0.491876 36.3292 0.0622481 37.7353 0.00610352 39.1401C1.56595 38.0075 3.62255 37.086 6.33702 36.6344C7.32565 36.4696 8.1544 36.3585 8.86719 36.2645C10.9397 35.9911 12.021 35.8666 13.1024 35.0196C13.8226 34.4557 14.3755 33.9821 14.7502 33.6477C15.4007 31.3714 17.5891 27.6024 19.6775 24.3155C19.758 24.1898 19.8422 24.058 19.9289 23.9213C19.9753 23.8493 20.0204 23.7797 20.0656 23.7089C20.9358 22.3553 21.7695 21.1079 22.4444 20.1169C23.0046 19.3235 23.5893 18.5387 24.1776 17.8308C24.4156 10.0499 27.9649 3.76535 31.4642 0.406438C30.6757 0.146464 29.8335 0.00366169 28.9572 0.00366169V0Z" fill="#017AA0"/>
<path d="M32.3892 0.772532C32.0902 0.63095 31.7814 0.507676 31.4641 0.40271C27.9648 3.76162 24.4155 10.0462 24.1775 17.8271C24.944 16.9031 25.7141 16.1086 26.4343 15.5923C27.2276 15.8559 28.0759 16.0011 28.9583 16.0011C29.6186 16.0011 30.2582 15.9169 30.8721 15.7656C30.5023 14.3302 30.2106 12.6581 30.0873 10.7419C30.0873 10.7419 30.1581 4.49272 32.3892 0.772532Z" fill="#15A7E0"/>
<path d="M49.7671 31.5418C49.3924 31.5515 49.0177 31.5894 48.6454 31.6529C46.9879 31.5381 43.4008 26.933 40.5008 22.8003C40.4153 22.6783 40.325 22.5501 40.2335 22.4171C39.2583 21.0171 38.3734 19.6916 37.6825 18.6358C36.4815 16.7355 35.3843 14.7301 35.034 13.2032C36.2338 11.8045 36.96 9.98714 36.96 8.0001C36.96 4.80963 35.0926 2.0561 32.3915 0.772095C30.1604 4.49229 30.0896 10.7414 30.0896 10.7414C30.2129 12.6577 30.5046 14.3298 30.8744 15.7651C31.0087 15.7322 31.1429 15.6992 31.2747 15.6602C32.5648 16.5536 34.0234 18.3551 35.3403 20.2079C36.0544 21.249 36.9453 22.5696 37.8705 24.0038C37.9572 24.1392 38.0426 24.2711 38.1232 24.3968C39.6439 26.7719 41.2148 29.3961 42.2181 31.5296C42.2473 31.5564 42.2681 31.576 42.273 31.5747C42.3731 31.5662 43.3776 31.1952 44.0281 31.8005C51.0218 38.3084 50.89 44.8896 50.5275 47.3636C51.8713 47.2745 53.209 46.8436 54.4075 46.0393C55.4926 45.3119 56.3384 44.3611 56.9279 43.2907C55.0727 40.3394 50.8326 38.4915 49.7695 31.5418H49.7671Z" fill="#FED119"/>
<path d="M29.3735 28.1786C29.8202 29.1367 29.8617 29.891 29.6701 30.5379C32.1246 30.2767 33.9676 29.891 35.2553 29.5431C34.0616 27.3596 31.7633 25.8584 29.0977 25.8059C28.5204 25.7949 27.9589 25.8535 27.4194 25.9719C28.1273 26.3295 28.823 26.9971 29.3747 28.1786H29.3735Z" fill="#15A7E0"/>
<path d="M26.1038 36.5869C25.972 33.582 29.0502 32.6275 29.6702 30.5367C29.8618 29.8898 29.8216 29.1368 29.3736 28.1774C28.8219 26.996 28.1275 26.3283 27.4183 25.9707C24.251 26.664 21.8515 29.4529 21.7856 32.8362C21.7087 36.7968 24.8576 40.0703 28.8183 40.1472C28.8256 40.1472 28.8329 40.1472 28.8415 40.1472C27.8248 39.9678 26.221 39.2599 26.1038 36.5857V36.5869Z" fill="#92C143"/>
<path d="M44.0265 31.8011C43.3748 31.1945 42.3703 31.5655 42.2714 31.5753C42.2665 31.5753 42.2458 31.557 42.2165 31.5301C42.2458 31.5911 42.2787 31.6571 42.3068 31.7181C41.948 31.8353 41.5537 31.8926 41.1632 31.9134C40.7396 31.9183 40.2051 31.9109 39.6338 31.8719C39.5801 31.8682 39.5277 31.8645 39.4776 31.8609C38.7648 31.806 38.0081 31.6998 37.3466 31.5069C36.6118 31.2921 35.9942 30.9711 35.6866 30.4902C35.6317 30.3401 35.5719 30.1924 35.5072 30.0472C35.5035 30.0301 35.4974 30.0142 35.4938 29.9959L35.4901 30.0069C35.4181 29.8494 35.34 29.6957 35.2582 29.5443C33.9706 29.8909 32.1275 30.2779 29.6731 30.539C29.053 32.6298 25.9748 33.5843 26.1066 36.5892C26.2238 39.2634 27.8276 39.9713 28.8443 40.1508C31.9115 40.2008 34.5613 38.3175 35.6305 35.6226C35.8429 35.3467 36.1651 35.1331 36.5532 34.9684C37.3527 34.6278 38.4353 34.4948 39.4288 34.457C39.4788 34.4557 39.5313 34.4533 39.5862 34.4521C40.1587 34.4362 40.6933 34.4496 41.1168 34.4704C41.9162 34.5448 42.7267 34.7645 43.199 35.3553C43.1856 35.387 43.1734 35.42 43.1575 35.448H43.1648C41.6746 37.9904 41.6673 41.2651 43.4175 43.8758C45.0506 46.3108 47.8004 47.5484 50.5296 47.3666C50.8921 44.8925 51.0239 38.3114 44.0302 31.8035L44.0265 31.8011Z" fill="#017AA0"/>
<path d="M57.3874 36.6211C57.1787 36.0792 56.9089 35.5507 56.5721 35.0478C55.5102 33.4648 53.9748 32.3919 52.2819 31.8818C51.469 31.6364 50.6207 31.518 49.7676 31.5424C50.8307 38.4922 55.0708 40.3401 56.926 43.2913C58.0391 41.2738 58.2369 38.8266 57.3874 36.6211Z" fill="#EA5197"/>
<path d="M8.86747 36.262C5.04109 39.5257 3.91453 43.1214 3.79248 46.2191C7.40649 48.4307 12.1519 47.4067 14.5185 43.8488C16.3042 41.1636 16.2358 37.7876 14.6186 35.227C14.4978 34.8669 14.5576 34.3201 14.7504 33.6451C14.3757 33.9808 13.8228 34.4544 13.1027 35.017C12.0201 35.8641 10.9399 35.9886 8.86747 36.262Z" fill="#EA5197"/>
<path d="M8.86735 36.2617C8.15455 36.3557 7.32581 36.4668 6.33718 36.6315C3.62271 37.0844 1.5661 38.0046 0.00626063 39.1373C-0.0999259 41.8078 1.14746 44.4674 3.53483 46.0553C3.62026 46.1114 3.70692 46.1651 3.79236 46.2176C3.91441 43.1199 5.03975 39.5254 8.86735 36.2605V36.2617Z" fill="#15A7E0"/>
</svg>
