<?xml version="1.0" encoding="UTF-8"?>
<svg id="Layer_1" data-name="Layer 1" xmlns="http://www.w3.org/2000/svg" version="1.1" viewBox="0 0 2580.82 451.35">
    <defs>
        <style>
            .cls-1 {
            fill: #ea5297;
            }

            .cls-1, .cls-2, .cls-3, .cls-4, .cls-5 {
            stroke-width: 0px;
            }

            .cls-2 {
            fill: #007aa2;
            }

            .cls-3 {
            fill: #1da7e0;
            }

            .cls-4 {
            fill: #94c242;
            }

            .cls-5 {
            fill: #ffd208;
            }
        </style>
    </defs>
    <g>
        <path class="cls-1"
              d="M72.65,328.67c-31.35,26.74-40.58,56.2-41.58,81.58,29.61,18.12,68.49,9.73,87.88-19.42,14.63-22,14.07-49.66.82-70.64-.99-2.95-.5-7.43,1.08-12.96-3.07,2.75-7.6,6.63-13.5,11.24-8.87,6.94-17.72,7.96-34.7,10.2Z"/>
        <path class="cls-3"
              d="M72.65,328.67c-5.84.77-12.63,1.68-20.73,3.03-22.24,3.71-39.09,11.25-51.87,20.53-.87,21.88,9.35,43.67,28.91,56.68.7.46,1.41.9,2.11,1.33,1-25.38,10.22-54.83,41.58-81.58Z"/>
        <path class="cls-2"
              d="M237.25,31.57c-36.2,0-65.55,29.35-65.55,65.55,0,15.63,5.48,29.97,14.61,41.24-2.66,12.59-11.72,29.33-21.67,45.2-5.63,8.67-12.84,19.56-20.79,31.06-.75,1.09-1.49,2.14-2.18,3.15-6.18,8.88-12.75,18.02-19.32,26.71-19.42,25.67-38.87,47.3-48.51,46.05v.05c-23.9-3.31-48.71,6.91-62.97,28.35-6.84,10.29-10.36,21.81-10.82,33.32,12.78-9.28,29.63-16.83,51.87-20.53,8.1-1.35,14.89-2.26,20.73-3.03,16.98-2.24,25.84-3.26,34.7-10.2,5.9-4.62,10.43-8.5,13.5-11.24,5.33-18.65,23.26-49.53,40.37-76.46.66-1.03,1.35-2.11,2.06-3.23.38-.59.75-1.16,1.12-1.74,7.13-11.09,13.96-21.31,19.49-29.43,4.59-6.5,9.38-12.93,14.2-18.73,1.95-63.75,31.03-115.24,59.7-142.76-6.46-2.13-13.36-3.3-20.54-3.3Z"/>
        <path class="cls-3"
              d="M265.37,37.9c-2.45-1.16-4.98-2.17-7.58-3.03-28.67,27.52-57.75,79.01-59.7,142.76,6.28-7.57,12.59-14.08,18.49-18.31,6.5,2.16,13.45,3.35,20.68,3.35,5.41,0,10.65-.69,15.68-1.93-3.03-11.76-5.42-25.46-6.43-41.16,0,0,.58-51.2,18.86-81.68Z"/>
        <path class="cls-3"
              d="M240.66,262.44c3.66,7.85,4,14.03,2.43,19.33,20.11-2.14,35.21-5.3,45.76-8.15-9.78-17.89-28.61-30.19-50.45-30.62-4.73-.09-9.33.39-13.75,1.36,5.8,2.93,11.5,8.4,16.02,18.08Z"/>
        <path class="cls-5"
              d="M407.75,290c-3.07.08-6.14.39-9.19.91-13.58-.94-42.97-38.67-66.73-72.53-.7-1-1.44-2.05-2.19-3.14-7.99-11.47-15.24-22.33-20.9-30.98-9.84-15.57-18.83-32-21.7-44.51,9.83-11.46,15.78-26.35,15.78-42.63,0-26.14-15.3-48.7-37.43-59.22-18.28,30.48-18.86,81.68-18.86,81.68,1.01,15.7,3.4,29.4,6.43,41.16,1.1-.27,2.2-.54,3.28-.86,10.57,7.32,22.52,22.08,33.31,37.26,5.85,8.53,13.15,19.35,20.73,31.1.71,1.11,1.41,2.19,2.07,3.22,12.46,19.46,25.33,40.96,33.55,58.44.24.22.41.38.45.37.82-.07,9.05-3.11,14.38,1.85,57.3,53.32,56.22,107.24,53.25,127.51,11.01-.73,21.97-4.26,31.79-10.85,8.89-5.96,15.82-13.75,20.65-22.52-15.2-24.18-49.94-39.32-58.65-96.26Z"/>
        <path class="cls-1"
              d="M470.18,331.61c-1.71-4.44-3.92-8.77-6.68-12.89-8.7-12.97-21.28-21.76-35.15-25.94-6.66-2.01-13.61-2.98-20.6-2.78,8.71,56.94,43.45,72.08,58.65,96.26,9.12-16.53,10.74-36.58,3.78-54.65Z"/>
        <path class="cls-2"
              d="M360.71,292.12c-5.34-4.97-13.57-1.93-14.38-1.85-.04,0-.21-.15-.45-.37.24.5.51,1.04.74,1.54-2.94.96-6.17,1.43-9.37,1.6-3.47.04-7.85-.02-12.53-.34-.44-.03-.87-.06-1.28-.09-5.84-.45-12.04-1.32-17.46-2.9-6.02-1.76-11.08-4.39-13.6-8.33-.45-1.23-.94-2.44-1.47-3.63-.03-.14-.08-.27-.11-.42l-.03.09c-.59-1.29-1.23-2.55-1.9-3.79-10.55,2.84-25.65,6.01-45.76,8.15-5.08,17.13-30.3,24.95-29.22,49.57.96,21.91,14.1,27.71,22.43,29.18,25.13.41,46.84-15.02,55.6-37.1,1.74-2.26,4.38-4.01,7.56-5.36,6.55-2.79,15.42-3.88,23.56-4.19.41-.01.84-.03,1.29-.04,4.69-.13,9.07-.02,12.54.15,6.55.61,13.19,2.41,17.06,7.25-.11.26-.21.53-.34.76h.06c-12.21,20.83-12.27,47.66,2.07,69.05,13.38,19.95,35.91,30.09,58.27,28.6,2.97-20.27,4.05-74.19-53.25-127.51Z"/>
        <path class="cls-4"
              d="M213.87,331.33c-1.08-24.62,24.14-32.44,29.22-49.57,1.57-5.3,1.24-11.47-2.43-19.33-4.52-9.68-10.21-15.15-16.02-18.08-25.95,5.68-45.61,28.53-46.15,56.25-.63,32.45,25.17,59.27,57.62,59.9.06,0,.12,0,.19,0-8.33-1.47-21.47-7.27-22.43-29.18Z"/>
    </g>
    <g>
        <g>
            <path class="cls-2"
                  d="M679.41,341.29h-74.46l-10.47,32.41h-83.88l93.23-233.92h78.19l93.9,233.92h-86.55l-9.97-32.41ZM642.13,222.41l-22.7,64.41h45.61l-22.91-64.41Z"/>
            <path class="cls-2" d="M797.65,139.78h79.53v233.92h-79.53v-233.92Z"/>
            <path class="cls-2" d="M920.62,139.78h79.53v233.92h-79.53v-233.92Z"/>
            <path class="cls-2"
                  d="M1267.48,256.74c0,68.84-50.12,116.96-123.64,116.96h-100.25v-233.92h100.25c73.52,0,123.64,47.45,123.64,116.96ZM1187.95,256.74c0-28.74-19.05-46.78-49.46-46.78h-16.71v93.57h16.71c30.41,0,49.46-18.04,49.46-46.78Z"/>
            <path class="cls-2"
                  d="M1434.94,341.29h-74.45l-10.47,32.41h-83.88l93.23-233.92h78.2l93.9,233.92h-86.55l-9.97-32.41ZM1397.67,222.41l-22.7,64.41h45.61l-22.91-64.41Z"/>
        </g>
        <g>
            <g>
                <path class="cls-2"
                      d="M1617.94,179.56h-26.44l-5.57,13.43h-5.6l21.75-52.55h4.86l22.35,52.55h-5.7l-5.65-13.43ZM1593.49,174.71h22.44l-11.34-26.99-11.1,26.99Z"/>
                <path class="cls-2"
                      d="M1684.78,166.69c0,15.24-11.21,26.3-26.65,26.3h-16.87v-52.55h16.87c15.46,0,26.65,11.03,26.65,26.25ZM1679.41,166.69c0-12.33-8.92-21.3-21.44-21.3h-11.45v42.65h11.45c12.5,0,21.44-9,21.44-21.35Z"/>
                <path class="cls-2"
                      d="M1753.73,192.98l-7.33-43.22-18.76,41.55h-1.49l-18.75-41.5-7.4,43.17h-5.37l8.99-52.55h5.01l18.2,40.82,18.29-40.82h5.12l8.86,52.55h-5.37Z"/>
                <path class="cls-2" d="M1773.07,140.44h5.26v52.55h-5.26v-52.55Z"/>
                <path class="cls-2"
                      d="M1837.49,140.44v52.55h-4.45l-31.61-43.31v43.31h-5.16v-52.55h4.77l31.3,42.95v-42.95h5.16Z"/>
                <path class="cls-2" d="M1855.42,140.44h5.26v52.55h-5.26v-52.55Z"/>
                <path class="cls-2"
                      d="M1874.75,177.03h5.37c0,7.09,5.65,11.45,13.67,11.45,7.27,0,12.78-3.98,12.78-10.12,0-6.85-6.6-8.34-13.75-9.98-8.13-1.88-17.02-3.97-17.02-14.22,0-8.87,6.9-14.38,17.57-14.38s17.18,5.97,17.18,15.26h-5.21c0-6.35-5.04-10.21-12.07-10.21s-12.2,3.51-12.2,9.11c0,6.47,6.49,7.96,13.54,9.59,8.28,1.96,17.39,4.1,17.39,14.77,0,9.61-7.8,15.33-18.15,15.33-11.41,0-19.09-6.46-19.09-16.6Z"/>
                <path class="cls-2" d="M1957.34,145.38h-16.36v47.6h-5.26v-47.6h-16.36v-4.95h37.98v4.95Z"/>
                <path class="cls-2"
                      d="M1987.99,171.7h-13.3v21.28h-5.26v-52.55h19.66c9.64,0,16.75,6.55,16.75,15.7,0,7.55-4.98,13.37-12.26,15.06l12.91,21.79h-5.94l-12.56-21.28ZM1974.7,166.7h14.14c6.93,0,11.64-4.44,11.64-10.62s-4.74-10.64-11.64-10.64h-14.14v21.27Z"/>
                <path class="cls-2"
                      d="M2051.64,179.56h-26.44l-5.57,13.43h-5.6l21.75-52.55h4.86l22.36,52.55h-5.71l-5.65-13.43ZM2027.19,174.71h22.44l-11.33-26.99-11.1,26.99Z"/>
                <path class="cls-2" d="M2102.21,145.38h-16.36v47.6h-5.26v-47.6h-16.36v-4.95h37.98v4.95Z"/>
                <path class="cls-2" d="M2114.3,140.44h5.26v52.55h-5.26v-52.55Z"/>
                <path class="cls-2" d="M2179,140.44l-21.09,52.55h-4.8l-21.53-52.55h5.81l18.13,44.62,17.72-44.62h5.76Z"/>
                <path class="cls-2"
                      d="M2221.34,187.93v5.05h-30.1v-52.55h29.28v5h-24.01v17.95h22.06v4.89h-22.06v19.65h24.84Z"/>
            </g>
            <g>
                <path class="cls-2" d="M1580.33,229.68h5.26v52.55h-5.26v-52.55Z"/>
                <path class="cls-2"
                      d="M1644.74,229.68v52.55h-4.45l-31.61-43.31v43.31h-5.16v-52.55h4.77l31.3,42.95v-42.95h5.16Z"/>
                <path class="cls-2" d="M1694.79,234.63h-16.36v47.6h-5.26v-47.6h-16.36v-4.95h37.98v4.95Z"/>
                <path class="cls-2"
                      d="M1736.99,277.18v5.05h-30.1v-52.55h29.28v5h-24.01v17.95h22.06v4.89h-22.06v19.65h24.84Z"/>
                <path class="cls-2"
                      d="M1769.66,260.95h-13.3v21.28h-5.26v-52.55h19.66c9.64,0,16.75,6.55,16.75,15.7,0,7.55-4.98,13.37-12.26,15.06l12.91,21.79h-5.94l-12.56-21.28ZM1756.36,255.95h14.14c6.93,0,11.64-4.44,11.64-10.62s-4.74-10.64-11.64-10.64h-14.14v21.27Z"/>
                <path class="cls-2" d="M1807.47,234.68v19.03h21.81v4.89h-21.81v23.62h-5.26v-52.55h29.03v5h-23.77Z"/>
                <path class="cls-2"
                      d="M1872.11,268.8h-26.44l-5.57,13.43h-5.6l21.75-52.55h4.86l22.35,52.55h-5.7l-5.65-13.43ZM1847.66,263.96h22.44l-11.34-26.99-11.1,26.99Z"/>
                <path class="cls-2"
                      d="M1890.02,255.98c0-15.74,11.27-27.1,26.88-27.1,11.97,0,21.48,6.95,24.68,17.94h-5.39c-3.02-7.99-10.16-12.78-19.29-12.78-12.49,0-21.51,9.12-21.51,21.94s9,21.9,21.51,21.9c9.38,0,16.64-5.09,19.61-13.6h5.37c-3.18,11.56-12.76,18.76-24.97,18.76-15.64,0-26.88-11.31-26.88-27.05Z"/>
                <path class="cls-2"
                      d="M1985.14,277.18v5.05h-30.1v-52.55h29.28v5h-24.01v17.95h22.06v4.89h-22.06v19.65h24.84Z"/>
                <path class="cls-2" d="M2027.63,234.68v19.03h21.81v4.89h-21.81v23.62h-5.26v-52.55h29.03v5h-23.77Z"/>
                <path class="cls-2"
                      d="M2060.11,255.98c0-15.49,11.5-27.15,27.37-27.15s27.37,11.64,27.37,27.15-11.5,27.11-27.37,27.11-27.37-11.64-27.37-27.11ZM2109.48,255.98c0-12.57-9.29-21.99-22-21.99s-22,9.5-22,21.99,9.29,21.95,22,21.95,22-9.4,22-21.95Z"/>
                <path class="cls-2"
                      d="M2147.66,260.95h-13.3v21.28h-5.26v-52.55h19.66c9.64,0,16.75,6.55,16.75,15.7,0,7.55-4.98,13.37-12.26,15.06l12.91,21.79h-5.94l-12.56-21.28ZM2134.36,255.95h14.13c6.93,0,11.64-4.44,11.64-10.62s-4.74-10.64-11.64-10.64h-14.13v21.27Z"/>
                <path class="cls-2" d="M2203.34,229.68h5.26v52.55h-5.26v-52.55Z"/>
                <path class="cls-2"
                      d="M2267.75,229.68v52.55h-4.45l-31.61-43.31v43.31h-5.16v-52.55h4.77l31.3,42.95v-42.95h5.16Z"/>
                <path class="cls-2" d="M2283.55,258.81h23.65v4.95h-23.65v-4.95Z"/>
                <path class="cls-2"
                      d="M2362.76,229.68v52.55h-5.26v-24.63h-29.25v24.63h-5.26v-52.55h5.26v22.87h29.25v-22.87h5.26Z"/>
                <path class="cls-2"
                      d="M2377.02,255.98c0-15.49,11.5-27.15,27.37-27.15s27.37,11.64,27.37,27.15-11.5,27.11-27.37,27.11-27.37-11.64-27.37-27.11ZM2426.39,255.98c0-12.57-9.29-21.99-22-21.99s-22,9.5-22,21.99,9.29,21.95,22,21.95,22-9.4,22-21.95Z"/>
                <path class="cls-2"
                      d="M2445.36,262.73v-33.04h5.31v32.68c0,9.2,6.24,15.52,15.03,15.52s14.98-6.33,14.98-15.52v-32.68h5.31v33.04c0,11.88-8.63,20.31-20.29,20.31s-20.34-8.44-20.34-20.31Z"/>
                <path class="cls-2"
                      d="M2499.42,266.28h5.37c0,7.09,5.65,11.45,13.67,11.45,7.27,0,12.78-3.98,12.78-10.12,0-6.85-6.6-8.34-13.75-9.98-8.13-1.88-17.03-3.97-17.03-14.22,0-8.87,6.9-14.38,17.57-14.38s17.18,5.97,17.18,15.26h-5.21c0-6.35-5.04-10.21-12.07-10.21s-12.2,3.51-12.2,9.11c0,6.47,6.49,7.96,13.54,9.59,8.28,1.96,17.39,4.1,17.39,14.77,0,9.61-7.8,15.33-18.15,15.33-11.41,0-19.09-6.46-19.09-16.6Z"/>
                <path class="cls-2"
                      d="M2580.82,277.18v5.05h-30.1v-52.55h29.28v5h-24.01v17.95h22.06v4.89h-22.06v19.65h24.84Z"/>
            </g>
            <g>
                <path class="cls-2"
                      d="M1623.85,345.38c0,15.24-11.21,26.3-26.65,26.3h-16.87v-52.55h16.87c15.46,0,26.65,11.03,26.65,26.25ZM1618.48,345.38c0-12.33-8.92-21.3-21.44-21.3h-11.45v42.65h11.45c12.5,0,21.44-9,21.44-21.35Z"/>
                <path class="cls-2"
                      d="M1667.87,358.25h-26.44l-5.57,13.43h-5.6l21.75-52.55h4.86l22.35,52.55h-5.7l-5.65-13.43ZM1643.42,353.41h22.44l-11.34-26.99-11.1,26.99Z"/>
                <path class="cls-2" d="M1718.43,324.08h-16.36v47.6h-5.26v-47.6h-16.36v-4.95h37.98v4.95Z"/>
                <path class="cls-2"
                      d="M1757.27,358.25h-26.44l-5.57,13.43h-5.6l21.75-52.55h4.86l22.35,52.55h-5.7l-5.65-13.43ZM1732.82,353.41h22.44l-11.34-26.99-11.1,26.99Z"/>
                <path class="cls-2"
                      d="M1830.83,358.25h-26.44l-5.57,13.43h-5.6l21.75-52.55h4.86l22.35,52.55h-5.7l-5.65-13.43ZM1806.38,353.41h22.44l-11.34-26.99-11.1,26.99Z"/>
                <path class="cls-2"
                      d="M1848.74,345.43c0-15.74,11.27-27.1,26.88-27.1,11.97,0,21.48,6.95,24.68,17.94h-5.39c-3.02-7.99-10.16-12.78-19.29-12.78-12.49,0-21.51,9.12-21.51,21.94s9,21.9,21.51,21.9c9.38,0,16.64-5.09,19.61-13.6h5.37c-3.18,11.56-12.76,18.76-24.97,18.76-15.64,0-26.88-11.31-26.88-27.05Z"/>
                <path class="cls-2"
                      d="M1910.07,345.43c0-15.74,11.27-27.1,26.88-27.1,11.97,0,21.48,6.95,24.68,17.94h-5.39c-3.02-7.99-10.16-12.78-19.29-12.78-12.49,0-21.51,9.12-21.51,21.94s9,21.9,21.51,21.9c9.38,0,16.64-5.09,19.61-13.6h5.37c-3.18,11.56-12.76,18.76-24.97,18.76-15.64,0-26.88-11.31-26.88-27.05Z"/>
                <path class="cls-2"
                      d="M2005.18,366.63v5.05h-30.1v-52.55h29.28v5h-24.01v17.95h22.06v4.89h-22.06v19.65h24.84Z"/>
                <path class="cls-2"
                      d="M2015.43,355.73h5.37c0,7.09,5.65,11.45,13.67,11.45,7.27,0,12.78-3.98,12.78-10.12,0-6.85-6.6-8.34-13.75-9.98-8.13-1.88-17.02-3.97-17.02-14.22,0-8.87,6.9-14.38,17.57-14.38s17.18,5.97,17.18,15.26h-5.21c0-6.35-5.04-10.21-12.07-10.21s-12.2,3.51-12.2,9.11c0,6.47,6.49,7.96,13.54,9.59,8.28,1.96,17.39,4.1,17.39,14.77,0,9.61-7.8,15.33-18.15,15.33-11.41,0-19.09-6.46-19.09-16.6Z"/>
                <path class="cls-2"
                      d="M2062.87,355.73h5.37c0,7.09,5.65,11.45,13.67,11.45,7.27,0,12.78-3.98,12.78-10.12,0-6.85-6.6-8.34-13.75-9.98-8.13-1.88-17.03-3.97-17.03-14.22,0-8.87,6.9-14.38,17.57-14.38s17.18,5.97,17.18,15.26h-5.21c0-6.35-5.04-10.21-12.07-10.21s-12.2,3.51-12.2,9.11c0,6.47,6.49,7.96,13.54,9.59,8.28,1.96,17.39,4.1,17.39,14.77,0,9.61-7.8,15.33-18.15,15.33-11.41,0-19.09-6.46-19.09-16.6Z"/>
            </g>
        </g>
    </g>
</svg>