<svg xmlns="http://www.w3.org/2000/svg" xmlns:xlink="http://www.w3.org/1999/xlink" contentStyleType="text/css" data-diagram-type="DESCRIPTION" height="506px" preserveAspectRatio="none" style="width:984px;height:506px;background:#FFFFFF;" version="1.1" viewBox="0 0 984 506" width="984px" zoomAndPan="magnify"><defs/><g><!--cluster AIIDA System--><g class="cluster" data-entity="AIIDA System" data-source-line="19" data-uid="ent0002" id="cluster_AIIDA System"><rect fill="none" height="493.31" rx="2.5" ry="2.5" style="stroke:#181818;stroke-width:1;" width="809" x="7" y="7"/><text fill="#000000" font-family="sans-serif" font-size="14" font-weight="bold" lengthAdjust="spacing" textLength="94.9756" x="364.0122" y="23.9659">AIIDA System</text></g><!--cluster aiida--><g class="cluster" data-entity="aiida" data-source-line="20" data-uid="ent0003" id="cluster_aiida"><polygon fill="#FFFFFF" points="345,233.57,355,223.57,792,223.57,792,466.31,782,476.31,345,476.31,345,233.57" style="stroke:#000000;stroke-width:1;"/><line style="stroke:#000000;stroke-width:1;" x1="782" x2="792" y1="233.57" y2="223.57"/><line style="stroke:#000000;stroke-width:1;" x1="345" x2="782" y1="233.57" y2="233.57"/><line style="stroke:#000000;stroke-width:1;" x1="782" x2="782" y1="233.57" y2="476.31"/><text fill="#000000" font-family="sans-serif" font-size="14" font-weight="bold" lengthAdjust="spacing" textLength="111.3696" x="508.8152" y="251.5359">In-house Device</text></g><!--cluster epInfra--><g class="cluster" data-entity="epInfra" data-source-line="33" data-uid="ent0014" id="cluster_epInfra"><polygon fill="#FFFFFF" points="31,63,41,53,321,53,321,324.17,311,334.17,31,334.17,31,63" style="stroke:#000000;stroke-width:1;"/><line style="stroke:#000000;stroke-width:1;" x1="311" x2="321" y1="63" y2="53"/><line style="stroke:#000000;stroke-width:1;" x1="31" x2="311" y1="63" y2="63"/><line style="stroke:#000000;stroke-width:1;" x1="311" x2="311" y1="63" y2="334.17"/><text fill="#000000" font-family="sans-serif" font-size="14" font-weight="bold" lengthAdjust="spacing" textLength="195.3833" x="74.3084" y="80.9659">Eligible Party Infrastructure</text></g><!--entity REST--><g class="entity" data-entity="REST" data-source-line="45" data-uid="ent0024" id="entity_REST"><ellipse cx="587" cy="126.57" fill="#F1F1F1" rx="8" ry="8" style="stroke:#181818;stroke-width:0.5;"/><text fill="#000000" font-family="sans-serif" font-size="14" lengthAdjust="spacing" textLength="31.9619" x="571.0191" y="158.5359">REST</text></g><!--entity UI--><g class="entity" data-entity="UI" data-source-line="46" data-uid="ent0027" id="entity_UI"><ellipse cx="498" cy="126.57" fill="#F1F1F1" rx="8" ry="8" style="stroke:#181818;stroke-width:0.5;"/><text fill="#000000" font-family="sans-serif" font-size="14" lengthAdjust="spacing" textLength="14.9799" x="490.51" y="158.5359">UI</text></g><!--entity aiidaApp--><g class="entity" data-entity="aiidaApp" data-source-line="21" data-uid="ent0004" id="entity_aiidaApp"><rect fill="none" height="42.0679" rx="2.5" ry="2.5" style="stroke:#000000;stroke-width:0.5;" width="144.9956" x="468.5" y="266.57"/><polygon fill="none" points="596.4956,271.57,596.4956,285.57,608.4956,285.57,608.4956,277.57,602.4956,271.57,596.4956,271.57" style="stroke:#000000;stroke-width:0.5;"/><line style="stroke:#000000;stroke-width:0.5;" x1="602.4956" x2="602.4956" y1="271.57" y2="277.57"/><line style="stroke:#000000;stroke-width:0.5;" x1="608.4956" x2="602.4956" y1="277.57" y2="277.57"/><text fill="#000000" font-family="sans-serif" font-size="14" lengthAdjust="spacing" textLength="114.9956" x="478.5" y="294.5359">AIIDA Application</text></g><!--entity emqx--><g class="entity" data-entity="emqx" data-source-line="22" data-uid="ent0005" id="entity_emqx"><rect fill="none" height="61.1358" rx="2.5" ry="2.5" style="stroke:#000000;stroke-width:0.5;" width="117.3457" x="658.33" y="399.17"/><polygon fill="none" points="758.6757,404.17,758.6757,418.17,770.6757,418.17,770.6757,410.17,764.6757,404.17,758.6757,404.17" style="stroke:#000000;stroke-width:0.5;"/><line style="stroke:#000000;stroke-width:0.5;" x1="764.6757" x2="764.6757" y1="404.17" y2="410.17"/><line style="stroke:#000000;stroke-width:0.5;" x1="770.6757" x2="764.6757" y1="410.17" y2="410.17"/><text fill="#000000" font-family="sans-serif" font-size="14" lengthAdjust="spacing" textLength="39.6198" x="668.33" y="427.1359">EMQX</text><text fill="#000000" font-family="sans-serif" font-size="14" lengthAdjust="spacing" textLength="87.3457" x="668.33" y="446.2039">MQTT Broker</text></g><!--entity db--><g class="entity" data-entity="db" data-source-line="23" data-uid="ent0006" id="entity_db"><rect fill="none" height="42.0679" rx="2.5" ry="2.5" style="stroke:#000000;stroke-width:0.5;" width="114.4897" x="483.76" y="408.71"/><polygon fill="none" points="581.2497,413.71,581.2497,427.71,593.2497,427.71,593.2497,419.71,587.2497,413.71,581.2497,413.71" style="stroke:#000000;stroke-width:0.5;"/><line style="stroke:#000000;stroke-width:0.5;" x1="587.2497" x2="587.2497" y1="413.71" y2="419.71"/><line style="stroke:#000000;stroke-width:0.5;" x1="593.2497" x2="587.2497" y1="419.71" y2="419.71"/><text fill="#000000" font-family="sans-serif" font-size="14" lengthAdjust="spacing" textLength="84.4897" x="493.76" y="436.6759">TimescaleDB</text></g><!--entity keycloak--><g class="entity" data-entity="keycloak" data-source-line="24" data-uid="ent0007" id="entity_keycloak"><rect fill="none" height="42.0679" rx="2.5" ry="2.5" style="stroke:#000000;stroke-width:0.5;" width="87.8338" x="361.08" y="408.71"/><polygon fill="none" points="431.9138,413.71,431.9138,427.71,443.9138,427.71,443.9138,419.71,437.9138,413.71,431.9138,413.71" style="stroke:#000000;stroke-width:0.5;"/><line style="stroke:#000000;stroke-width:0.5;" x1="437.9138" x2="437.9138" y1="413.71" y2="419.71"/><line style="stroke:#000000;stroke-width:0.5;" x1="443.9138" x2="437.9138" y1="419.71" y2="419.71"/><text fill="#000000" font-family="sans-serif" font-size="14" lengthAdjust="spacing" textLength="57.8338" x="371.08" y="436.6759">Keycloak</text></g><!--entity regionConnector--><g class="entity" data-entity="regionConnector" data-source-line="34" data-uid="ent0015" id="entity_regionConnector"><rect fill="none" height="61.1358" rx="2.5" ry="2.5" style="stroke:#000000;stroke-width:0.5;" width="117.1917" x="70.4" y="96"/><polygon fill="none" points="170.5917,101,170.5917,115,182.5917,115,182.5917,107,176.5917,101,170.5917,101" style="stroke:#000000;stroke-width:0.5;"/><line style="stroke:#000000;stroke-width:0.5;" x1="176.5917" x2="176.5917" y1="101" y2="107"/><line style="stroke:#000000;stroke-width:0.5;" x1="182.5917" x2="176.5917" y1="107" y2="107"/><text fill="#000000" font-family="sans-serif" font-size="14" lengthAdjust="spacing" textLength="87.1917" x="80.4" y="123.9659">AIIDA Region</text><text fill="#000000" font-family="sans-serif" font-size="14" lengthAdjust="spacing" textLength="68.5437" x="80.4" y="143.0339">Connector</text></g><!--entity emqxEp--><g class="entity" data-entity="emqxEp" data-source-line="35" data-uid="ent0016" id="entity_emqxEp"><rect fill="none" height="61.1358" rx="2.5" ry="2.5" style="stroke:#000000;stroke-width:0.5;" width="117.3457" x="187.33" y="257.04"/><polygon fill="none" points="287.6757,262.04,287.6757,276.04,299.6757,276.04,299.6757,268.04,293.6757,262.04,287.6757,262.04" style="stroke:#000000;stroke-width:0.5;"/><line style="stroke:#000000;stroke-width:0.5;" x1="293.6757" x2="293.6757" y1="262.04" y2="268.04"/><line style="stroke:#000000;stroke-width:0.5;" x1="299.6757" x2="293.6757" y1="268.04" y2="268.04"/><text fill="#000000" font-family="sans-serif" font-size="14" lengthAdjust="spacing" textLength="39.6198" x="197.33" y="285.0059">EMQX</text><text fill="#000000" font-family="sans-serif" font-size="14" lengthAdjust="spacing" textLength="87.3457" x="197.33" y="304.0739">MQTT Broker</text></g><!--entity emqxIam--><g class="entity" data-entity="emqxIam" data-source-line="36" data-uid="ent0017" id="entity_emqxIam"><rect fill="none" height="61.1358" rx="2.5" ry="2.5" style="stroke:#000000;stroke-width:0.5;" width="79.3498" x="47.33" y="257.04"/><polygon fill="none" points="109.6798,262.04,109.6798,276.04,121.6798,276.04,121.6798,268.04,115.6798,262.04,109.6798,262.04" style="stroke:#000000;stroke-width:0.5;"/><line style="stroke:#000000;stroke-width:0.5;" x1="115.6798" x2="115.6798" y1="262.04" y2="268.04"/><line style="stroke:#000000;stroke-width:0.5;" x1="121.6798" x2="115.6798" y1="268.04" y2="268.04"/><text fill="#000000" font-family="sans-serif" font-size="14" lengthAdjust="spacing" textLength="39.6198" x="57.33" y="285.0059">EMQX</text><text fill="#000000" font-family="sans-serif" font-size="14" lengthAdjust="spacing" textLength="49.3498" x="57.33" y="304.0739">IAM DB</text></g><!--entity dataSource--><g class="entity" data-entity="dataSource" data-source-line="49" data-uid="ent0030" id="entity_dataSource"><polygon fill="#FFFFFF" points="848.09,415.21,858.09,405.21,967.9177,405.21,967.9177,444.2779,957.9177,454.2779,848.09,454.2779,848.09,415.21" style="stroke:#000000;stroke-width:0.5;"/><line style="stroke:#000000;stroke-width:0.5;" x1="957.9177" x2="967.9177" y1="415.21" y2="405.21"/><line style="stroke:#000000;stroke-width:0.5;" x1="848.09" x2="957.9177" y1="415.21" y2="415.21"/><line style="stroke:#000000;stroke-width:0.5;" x1="957.9177" x2="957.9177" y1="415.21" y2="454.2779"/><text fill="#000000" font-family="sans-serif" font-size="14" lengthAdjust="spacing" textLength="79.8277" x="863.09" y="440.1759">Data Source</text></g><!--link aiidaApp to emqx--><g class="link" data-entity-1="aiidaApp" data-entity-2="emqx" data-source-line="26" data-uid="lnk8" id="link_aiidaApp_emqx"><path d="M566.59,308.98 C596.24,332.59 645.37,371.71 679.37,398.78" fill="none" id="aiidaApp-emqx" style="stroke:#181818;stroke-width:1;"/><text fill="#000000" font-family="sans-serif" font-size="13" lengthAdjust="spacing" textLength="36.4001" x="640.54" y="365.067">MQTT</text></g><!--link aiidaApp to db--><g class="link" data-entity-1="aiidaApp" data-entity-2="db" data-source-line="27" data-uid="lnk9" id="link_aiidaApp_db"><path d="M541,308.98 C541,335.55 541,381.76 541,408.34" fill="none" id="aiidaApp-db" style="stroke:#181818;stroke-width:1;"/><text fill="#000000" font-family="sans-serif" font-size="13" lengthAdjust="spacing" textLength="24.102" x="542" y="365.067">SQL</text></g><!--link aiidaApp to keycloak--><g class="link" data-entity-1="aiidaApp" data-entity-2="keycloak" data-source-line="28" data-uid="lnk10" id="link_aiidaApp_keycloak"><path d="M521.22,308.98 C495.44,335.55 450.6,381.76 424.8,408.34" fill="none" id="aiidaApp-keycloak" style="stroke:#181818;stroke-width:1;"/><text fill="#000000" font-family="sans-serif" font-size="13" lengthAdjust="spacing" textLength="32.266" x="482.14" y="365.067">OIDC</text></g><!--link keycloak to db--><!--link db to emqx--><g class="link" data-entity-1="db" data-entity-2="emqx" data-source-line="30" data-uid="lnk13" id="link_db_emqx"><path d="M598.63,429.74 C617.68,429.74 638.89,429.74 658.04,429.74" fill="none" id="db-emqx" style="stroke:#181818;stroke-width:1;"/><text fill="#000000" font-family="sans-serif" font-size="13" lengthAdjust="spacing" textLength="24.102" x="616.29" y="422.637">SQL</text></g><!--link emqxIam to emqxEp--><g class="link" data-entity-1="emqxIam" data-entity-2="emqxEp" data-source-line="38" data-uid="lnk19" id="link_emqxIam_emqxEp"><path d="M127.12,287.61 C145.25,287.61 167.02,287.61 186.96,287.61" fill="none" id="emqxIam-emqxEp" style="stroke:#181818;stroke-width:1;"/><text fill="#000000" font-family="sans-serif" font-size="13" lengthAdjust="spacing" textLength="24.102" x="145" y="280.507">SQL</text></g><!--link regionConnector to emqxEp--><g class="link" data-entity-1="regionConnector" data-entity-2="emqxEp" data-source-line="39" data-uid="lnk20" id="link_regionConnector_emqxEp"><path d="M151.01,157.49 C171.86,185.83 203.01,228.17 223.89,256.56" fill="none" id="regionConnector-emqxEp" style="stroke:#181818;stroke-width:1;"/><text fill="#000000" font-family="sans-serif" font-size="13" lengthAdjust="spacing" textLength="36.4001" x="188.5" y="203.467">MQTT</text></g><!--link regionConnector to emqxIam--><g class="link" data-entity-1="regionConnector" data-entity-2="emqxIam" data-source-line="40" data-uid="lnk21" id="link_regionConnector_emqxIam"><path d="M121.1,157.49 C113.61,185.83 102.43,228.17 94.94,256.56" fill="none" id="regionConnector-emqxIam" style="stroke:#181818;stroke-width:1;"/><text fill="#000000" font-family="sans-serif" font-size="13" lengthAdjust="spacing" textLength="24.102" x="112.76" y="203.467">SQL</text></g><!--link emqxEp to aiidaApp--><g class="link" data-entity-1="emqxEp" data-entity-2="aiidaApp" data-source-line="44" data-uid="lnk23" id="link_emqxEp_aiidaApp"><path d="M304.99,287.61 C351.98,287.61 418,287.61 468.27,287.61" fill="none" id="emqxEp-aiidaApp" style="stroke:#181818;stroke-width:1;"/><text fill="#000000" font-family="sans-serif" font-size="13" lengthAdjust="spacing" textLength="36.4001" x="368.59" y="280.507">MQTT</text></g><!--link REST to aiidaApp--><g class="link" data-entity-1="REST" data-entity-2="aiidaApp" data-source-line="45" data-uid="lnk26" id="link_REST_aiidaApp"><path d="M584.78,135.24 C577.96,158.82 557.15,230.78 546.87,266.31" fill="none" id="REST-aiidaApp" style="stroke:#181818;stroke-width:1;"/><text fill="#000000" font-family="sans-serif" font-size="13" lengthAdjust="spacing" textLength="31.954" x="569.12" y="203.467">HTTP</text></g><!--link UI to aiidaApp--><g class="link" data-entity-1="UI" data-entity-2="aiidaApp" data-source-line="46" data-uid="lnk29" id="link_UI_aiidaApp"><path d="M497.52,135.22 C496.81,149.65 496.25,181.72 503,207.57 C508.5,228.64 519.71,250.83 528.54,266.32" fill="none" id="UI-aiidaApp" style="stroke:#181818;stroke-width:1;"/><text fill="#000000" font-family="sans-serif" font-size="13" lengthAdjust="spacing" textLength="31.954" x="504" y="203.467">HTTP</text></g><!--link aiidaApp to dataSource--><g class="link" data-entity-1="aiidaApp" data-entity-2="dataSource" data-source-line="51" data-uid="lnk32" id="link_aiidaApp_dataSource"><path d="M594.76,309.13 C662.15,334.87 777.35,378.85 847.69,405.71" fill="none" id="aiidaApp-dataSource" style="stroke:#181818;stroke-width:1;"/><text fill="#000000" font-family="sans-serif" font-size="13" lengthAdjust="spacing" textLength="49.9071" x="747.47" y="365.067">Modbus</text></g><!--link emqx to dataSource--><g class="link" data-entity-1="emqx" data-entity-2="dataSource" data-source-line="52" data-uid="lnk34" id="link_emqx_dataSource"><path d="M776.13,429.74 C798.91,429.74 824.95,429.74 847.84,429.74" fill="none" id="emqx-dataSource" style="stroke:#181818;stroke-width:1;"/><text fill="#000000" font-family="sans-serif" font-size="13" lengthAdjust="spacing" textLength="36.4001" x="793.88" y="422.637">MQTT</text></g><!--SRC=[ZLDDZvim4BtxLunooOa_q5iIKXMrKJSRAbNgzc3m12p0GutfDghotpkOpyscgps1vxrvptvZho6bgYQ3ne7IChEo4c8DJQ5DBNa1fJReBZK2MPUJ43CYhTDdcRg_0c1BLg7TKKaMabAcHLVZJsQfDQglEojDmwri9QuB7KCAtwlnd6k7BxejfawQhFGIwnSYIyEtjmFmaOnRMb-5c9HXjOcYS0EdI-EmMa7dr6qQLf49SceRX11_wnHN81kGMYlfEJ15D2fiwhhKgNIQpCpbuWrvVpX-XoTpECOnR2qLQ3qRgrz_RfYnhh19POdXrbDKSaFuZ9Uq95buj1WMeYSDvX0eUZQ1buSFqBdUnLN2wEduvIuuIZFbQnJkF8SRWX-vLWhDpnBFRcPDiDLPxYRhNlmgfdptfSvqmXDuu1DT839dAnjdszIrbjFseTI-UZ_lHymuwYUp8sDucjJdQ7rrghq__Fr_1XLj3Z0CeAD5tHlgY7qF1FtX1sWHuir6beFWjiKetY3EYcDqysXctwNSZBTr08_xKypOfpX-U8LzYqQ4tqC_aL0w2ITgxN3R5Q_xfH3p_sWzoR4vgQHjxd2Mruvj_W40]--></g></svg>