<?plantuml 1.2026.2?>
<svg xmlns="http://www.w3.org/2000/svg" contentStyleType="text/css" data-diagram-type="CLASS" height="775px"
     preserveAspectRatio="none" style="width:830px;height:775px;background:#FFFFFF;" version="1.1" viewBox="0 0 830 775"
     width="830px" zoomAndPan="magnify"><defs/><g><!--class Permission--><g class="entity" data-qualified-name="Permission" data-source-line="6" id="ent0002"><rect fill="#F1F1F1" height="345.0867" rx="2.5" ry="2.5" style="stroke:#181818;stroke-width:0.5;" width="356.8047" x="241.66" y="7"/><ellipse cx="379.3145" cy="23" fill="#ADD1B2" rx="11" ry="11" style="stroke:#181818;stroke-width:1;"/><path d="M378.7833,29.9219 Q377.0333,29.9219 375.8926,29.1875 Q374.7676,28.4375 374.2051,27.0938 Q373.6583,25.7344 373.6583,23.9375 Q373.6583,21.9063 374.3145,20.4531 Q374.9708,19 376.252,18.2188 Q377.5333,17.4375 379.4083,17.4375 Q380.2989,17.4375 380.9708,17.625 Q381.6426,17.7969 382.3301,18.1406 L381.5176,20.1563 Q380.8926,19.8438 380.3458,19.7188 Q379.8145,19.5938 379.3301,19.5938 Q378.1583,19.5938 377.4551,20.125 Q376.752,20.6563 376.4551,21.6094 Q376.1583,22.5625 376.1583,23.8281 Q376.1583,25.8438 376.877,26.8125 Q377.5958,27.7656 379.1895,27.7656 Q379.7833,27.7656 380.4083,27.6094 Q381.0333,27.4531 381.8614,27.0781 L381.8614,29.2969 Q381.127,29.6094 380.3301,29.7656 Q379.5489,29.9219 378.7833,29.9219 Z " fill="#000000"/><text fill="#000000" font-family="sans-serif" font-size="14" lengthAdjust="spacing" textLength="72.9957" x="399.8145" y="28.432">Permission</text><line style="stroke:#181818;stroke-width:0.5;" x1="242.66" x2="597.4647" y1="39" y2="39"/><g data-visibility-modifier="PRIVATE_FIELD"><rect fill="none" height="6" style="stroke:#C82930;stroke-width:1;" width="6" x="249.66" y="51.034"/></g><text fill="#000000" font-family="sans-serif" font-size="14" lengthAdjust="spacing" textLength="129.3175" x="261.66" y="57.9659">permissionId: UUID</text><g data-visibility-modifier="PRIVATE_FIELD"><rect fill="none" height="6" style="stroke:#C82930;stroke-width:1;" width="6" x="249.66" y="70.1019"/></g><text fill="#000000" font-family="sans-serif" font-size="14" lengthAdjust="spacing" textLength="92.8056" x="261.66" y="77.0339">eddieId: UUID</text><g data-visibility-modifier="PRIVATE_FIELD"><rect fill="none" height="6" style="stroke:#C82930;stroke-width:1;" width="6" x="249.66" y="89.1698"/></g><text fill="#000000" font-family="sans-serif" font-size="14" lengthAdjust="spacing" textLength="85.2177" x="261.66" y="96.1018">userId: UUID</text><g data-visibility-modifier="PRIVATE_FIELD"><rect fill="none" height="6" style="stroke:#C82930;stroke-width:1;" width="6" x="249.66" y="108.2377"/></g><text fill="#000000" font-family="sans-serif" font-size="14" lengthAdjust="spacing" textLength="161.4194" x="261.66" y="115.1697">status: PermissionStatus</text><g data-visibility-modifier="PRIVATE_FIELD"><rect fill="none" height="6" style="stroke:#C82930;stroke-width:1;" width="6" x="249.66" y="127.3056"/></g><text fill="#000000" font-family="sans-serif" font-size="14" lengthAdjust="spacing" textLength="131.9915" x="261.66" y="134.2376">serviceName: String</text><g data-visibility-modifier="PRIVATE_FIELD"><rect fill="none" height="6" style="stroke:#C82930;stroke-width:1;" width="6" x="249.66" y="146.3735"/></g><text fill="#000000" font-family="sans-serif" font-size="14" lengthAdjust="spacing" textLength="116.9416" x="261.66" y="153.3055">startTime: Instant</text><g data-visibility-modifier="PRIVATE_FIELD"><rect fill="none" height="6" style="stroke:#C82930;stroke-width:1;" width="6" x="249.66" y="165.4415"/></g><text fill="#000000" font-family="sans-serif" font-size="14" lengthAdjust="spacing" textLength="153.4394" x="261.66" y="172.3734">expirationTime: Instant</text><g data-visibility-modifier="PRIVATE_FIELD"><rect fill="none" height="6" style="stroke:#C82930;stroke-width:1;" width="6" x="249.66" y="184.5094"/></g><text fill="#000000" font-family="sans-serif" font-size="14" lengthAdjust="spacing" textLength="122.4435" x="261.66" y="191.4414">grantTime: Instant</text><g data-visibility-modifier="PRIVATE_FIELD"><rect fill="none" height="6" style="stroke:#C82930;stroke-width:1;" width="6" x="249.66" y="203.5773"/></g><text fill="#000000" font-family="sans-serif" font-size="14" lengthAdjust="spacing" textLength="131.1235" x="261.66" y="210.5093">revokeTime: Instant</text><g data-visibility-modifier="PRIVATE_FIELD"><rect fill="none" height="6" style="stroke:#C82930;stroke-width:1;" width="6" x="249.66" y="222.6452"/></g><text fill="#000000" font-family="sans-serif" font-size="14" lengthAdjust="spacing" textLength="133.0415" x="261.66" y="229.5772">connectionId: String</text><g data-visibility-modifier="PRIVATE_FIELD"><rect fill="none" height="6" style="stroke:#C82930;stroke-width:1;" width="6" x="249.66" y="241.7131"/></g><text fill="#000000" font-family="sans-serif" font-size="14" lengthAdjust="spacing" textLength="138.7675" x="261.66" y="248.6451">handshakeUrl: String</text><g data-visibility-modifier="PRIVATE_FIELD"><rect fill="none" height="6" style="stroke:#C82930;stroke-width:1;" width="6" x="249.66" y="260.781"/></g><text fill="#000000" font-family="sans-serif" font-size="14" lengthAdjust="spacing" textLength="129.6675" x="261.66" y="267.713">accessToken: String</text><g data-visibility-modifier="PRIVATE_FIELD"><rect fill="none" height="6" style="stroke:#C82930;stroke-width:1;" width="6" x="249.66" y="279.849"/></g><text fill="#000000" font-family="sans-serif" font-size="14" lengthAdjust="spacing" textLength="204.4552" x="261.66" y="286.7809">dataNeed: AiidaLocalDataNeed</text><g data-visibility-modifier="PRIVATE_FIELD"><rect fill="none" height="6" style="stroke:#C82930;stroke-width:1;" width="6" x="249.66" y="298.9169"/></g><text fill="#000000" font-family="sans-serif" font-size="14" lengthAdjust="spacing" textLength="293.103" x="261.66" y="305.8489">mqttStreamingConfig: MqttStreamingConfig</text><g data-visibility-modifier="PRIVATE_FIELD"><rect fill="none" height="6" style="stroke:#C82930;stroke-width:1;" width="6" x="249.66" y="317.9848"/></g><text fill="#000000" font-family="sans-serif" font-size="14" lengthAdjust="spacing" textLength="158.1574" x="261.66" y="324.9168">dataSource: DataSource</text><g data-visibility-modifier="PRIVATE_FIELD"><rect fill="none" height="6" style="stroke:#C82930;stroke-width:1;" width="6" x="249.66" y="337.0527"/></g><text fill="#000000" font-family="sans-serif" font-size="14" lengthAdjust="spacing" textLength="330.8047" x="261.66" y="343.9847">inboundMessageFormat: InboundMessageFormat</text></g><!--class AiidaLocalDataNeed--><g class="entity" data-qualified-name="AiidaLocalDataNeed" data-source-line="25" id="ent0003"><rect fill="#F1F1F1" height="32" rx="2.5" ry="2.5" style="stroke:#181818;stroke-width:0.5;" width="164.6495" x="658.46" y="130.54"/><ellipse cx="673.46" cy="146.54" fill="#ADD1B2" rx="11" ry="11" style="stroke:#181818;stroke-width:1;"/><path d="M672.9288,153.4619 Q671.1788,153.4619 670.0381,152.7275 Q668.9131,151.9775 668.3506,150.6338 Q667.8038,149.2744 667.8038,147.4775 Q667.8038,145.4463 668.46,143.9931 Q669.1163,142.54 670.3975,141.7588 Q671.6788,140.9775 673.5538,140.9775 Q674.4444,140.9775 675.1163,141.165 Q675.7881,141.3369 676.4756,141.6806 L675.6631,143.6963 Q675.0381,143.3838 674.4913,143.2588 Q673.96,143.1338 673.4756,143.1338 Q672.3038,143.1338 671.6006,143.665 Q670.8975,144.1963 670.6006,145.1494 Q670.3038,146.1025 670.3038,147.3681 Q670.3038,149.3838 671.0225,150.3525 Q671.7413,151.3056 673.335,151.3056 Q673.9288,151.3056 674.5538,151.1494 Q675.1788,150.9931 676.0069,150.6181 L676.0069,152.8369 Q675.2725,153.1494 674.4756,153.3056 Q673.6944,153.4619 672.9288,153.4619 Z " fill="#000000"/><text fill="#000000" font-family="sans-serif" font-size="14" lengthAdjust="spacing" textLength="132.6495" x="687.46" y="151.972">AiidaLocalDataNeed</text></g><!--class Datasource--><g class="entity" data-qualified-name="Datasource" data-source-line="28" id="ent0004"><rect fill="#F1F1F1" height="32" rx="2.5" ry="2.5" style="stroke:#181818;stroke-width:0.5;" width="102.8257" x="689.38" y="197.54"/><ellipse cx="704.38" cy="213.54" fill="#A9DCDF" rx="11" ry="11" style="stroke:#181818;stroke-width:1;"/><path d="M699.5519,219.29 L702.8956,207.1025 L706.0363,207.1025 L709.4113,219.29 L706.9425,219.29 L706.2081,216.2744 L702.6925,216.2744 L701.9425,219.29 L699.5519,219.29 Z M703.9581,211.2431 L703.2081,214.2431 L705.7238,214.2431 L705.005,211.2431 Q704.8644,210.665 704.7394,210.1181 Q704.6144,209.5556 704.4738,208.9775 Q704.3644,209.5556 704.2238,210.1181 Q704.0831,210.665 703.9581,211.2431 Z " fill="#000000"/><text fill="#000000" font-family="sans-serif" font-size="14" font-style="italic" lengthAdjust="spacing" textLength="70.8257" x="718.38" y="218.972">Datasource</text></g><!--class MqttStreamingConfig--><g class="entity" data-qualified-name="MqttStreamingConfig" data-source-line="30" id="ent0005"><rect fill="#F1F1F1" height="173.4754" rx="2.5" ry="2.5" style="stroke:#181818;stroke-width:0.5;" width="174.6595" x="7" y="92.8"/><ellipse cx="22" cy="108.8" fill="#ADD1B2" rx="11" ry="11" style="stroke:#181818;stroke-width:1;"/><path d="M21.4688,115.7219 Q19.7188,115.7219 18.5781,114.9875 Q17.4531,114.2375 16.8906,112.8938 Q16.3438,111.5344 16.3438,109.7375 Q16.3438,107.7063 17,106.2531 Q17.6563,104.8 18.9375,104.0188 Q20.2188,103.2375 22.0938,103.2375 Q22.9844,103.2375 23.6563,103.425 Q24.3281,103.5969 25.0156,103.9406 L24.2031,105.9563 Q23.5781,105.6438 23.0313,105.5188 Q22.5,105.3938 22.0156,105.3938 Q20.8438,105.3938 20.1406,105.925 Q19.4375,106.4563 19.1406,107.4094 Q18.8438,108.3625 18.8438,109.6281 Q18.8438,111.6438 19.5625,112.6125 Q20.2813,113.5656 21.875,113.5656 Q22.4688,113.5656 23.0938,113.4094 Q23.7188,113.2531 24.5469,112.8781 L24.5469,115.0969 Q23.8125,115.4094 23.0156,115.5656 Q22.2344,115.7219 21.4688,115.7219 Z " fill="#000000"/><text fill="#000000" font-family="sans-serif" font-size="14" lengthAdjust="spacing" textLength="142.6595" x="36" y="114.232">MqttStreamingConfig</text><line style="stroke:#181818;stroke-width:0.5;" x1="8" x2="180.6595" y1="124.8" y2="124.8"/><g data-visibility-modifier="PRIVATE_FIELD"><rect fill="none" height="6" style="stroke:#C82930;stroke-width:1;" width="6" x="15" y="136.834"/></g><text fill="#000000" font-family="sans-serif" font-size="14" lengthAdjust="spacing" textLength="129.3175" x="27" y="143.7659">permissionId: UUID</text><g data-visibility-modifier="PRIVATE_FIELD"><rect fill="none" height="6" style="stroke:#C82930;stroke-width:1;" width="6" x="15" y="155.9019"/></g><text fill="#000000" font-family="sans-serif" font-size="14" lengthAdjust="spacing" textLength="113.3156" x="27" y="162.8339">username: String</text><g data-visibility-modifier="PRIVATE_FIELD"><rect fill="none" height="6" style="stroke:#C82930;stroke-width:1;" width="6" x="15" y="174.9698"/></g><text fill="#000000" font-family="sans-serif" font-size="14" lengthAdjust="spacing" textLength="110.5296" x="27" y="181.9018">password: String</text><g data-visibility-modifier="PRIVATE_FIELD"><rect fill="none" height="6" style="stroke:#C82930;stroke-width:1;" width="6" x="15" y="194.0377"/></g><text fill="#000000" font-family="sans-serif" font-size="14" lengthAdjust="spacing" textLength="107.5896" x="27" y="200.9697">serverUri: String</text><g data-visibility-modifier="PRIVATE_FIELD"><rect fill="none" height="6" style="stroke:#C82930;stroke-width:1;" width="6" x="15" y="213.1056"/></g><text fill="#000000" font-family="sans-serif" font-size="14" lengthAdjust="spacing" textLength="111.3556" x="27" y="220.0376">dataTopic: String</text><g data-visibility-modifier="PRIVATE_FIELD"><rect fill="none" height="6" style="stroke:#C82930;stroke-width:1;" width="6" x="15" y="232.1735"/></g><text fill="#000000" font-family="sans-serif" font-size="14" lengthAdjust="spacing" textLength="122.0096" x="27" y="239.1055">statusTopic: String</text><g data-visibility-modifier="PRIVATE_FIELD"><rect fill="none" height="6" style="stroke:#C82930;stroke-width:1;" width="6" x="15" y="251.2415"/></g><text fill="#000000" font-family="sans-serif" font-size="14" lengthAdjust="spacing" textLength="146.8734" x="27" y="258.1734">terminateTopic: String</text></g><!--class PermissionStatus--><g class="entity" data-qualified-name="PermissionStatus" data-source-line="40" id="ent0006"><rect fill="#F1F1F1" height="268.815" rx="2.5" ry="2.5" style="stroke:#181818;stroke-width:0.5;" width="217.9252" x="311.1" y="500.13"/><ellipse cx="358.8118" cy="516.13" fill="#EB937F" rx="11" ry="11" style="stroke:#181818;stroke-width:1;"/><path d="M355.1712,522.63 L355.1712,510.4894 L362.8274,510.4894 L362.8274,512.6144 L357.5462,512.6144 L357.5462,515.2706 L362.5618,515.2706 L362.5618,517.3956 L357.5462,517.3956 L357.5462,520.505 L362.8274,520.505 L362.8274,522.63 L355.1712,522.63 Z " fill="#000000"/><text fill="#000000" font-family="sans-serif" font-size="14" lengthAdjust="spacing" textLength="114.0016" x="379.3118" y="521.562">PermissionStatus</text><line style="stroke:#181818;stroke-width:0.5;" x1="312.1" x2="528.0252" y1="532.13" y2="532.13"/><text fill="#000000" font-family="sans-serif" font-size="14" lengthAdjust="spacing" textLength="63.8257" x="317.1" y="551.0959">CREATED,</text><text fill="#000000" font-family="sans-serif" font-size="14" lengthAdjust="spacing" textLength="124.5295" x="317.1" y="570.1639">FETCHED_DETAILS,</text><text fill="#000000" font-family="sans-serif" font-size="14" lengthAdjust="spacing" textLength="109.3116" x="317.1" y="589.2318">UNFULFILLABLE,</text><text fill="#000000" font-family="sans-serif" font-size="14" lengthAdjust="spacing" textLength="72.4357" x="317.1" y="608.2997">ACCEPTED,</text><text fill="#000000" font-family="sans-serif" font-size="14" lengthAdjust="spacing" textLength="205.9252" x="317.1" y="627.3676">FETCHED_MQTT_CREDENTIALS,</text><text fill="#000000" font-family="sans-serif" font-size="14" lengthAdjust="spacing" textLength="144.0734" x="317.1" y="646.4355">WAITING_FOR_START,</text><text fill="#000000" font-family="sans-serif" font-size="14" lengthAdjust="spacing" textLength="125.0475" x="317.1" y="665.5034">STREAMING_DATA,</text><text fill="#000000" font-family="sans-serif" font-size="14" lengthAdjust="spacing" textLength="66.4857" x="317.1" y="684.5714">REJECTED,</text><text fill="#000000" font-family="sans-serif" font-size="14" lengthAdjust="spacing" textLength="66.2477" x="317.1" y="703.6393">REVOKED,</text><text fill="#000000" font-family="sans-serif" font-size="14" lengthAdjust="spacing" textLength="90.8456" x="317.1" y="722.7072">TERMINATED,</text><text fill="#000000" font-family="sans-serif" font-size="14" lengthAdjust="spacing" textLength="73.2757" x="317.1" y="741.7751">FULFILLED,</text><text fill="#000000" font-family="sans-serif" font-size="14" lengthAdjust="spacing" textLength="118.3555" x="317.1" y="760.843">FAILED_TO_START</text></g><!--class InboundMessageFormat--><g class="entity" data-qualified-name="InboundMessageFormat" data-source-line="55" id="ent0007"><rect fill="#F1F1F1" height="78.1358" rx="2.5" ry="2.5" style="stroke:#181818;stroke-width:0.5;" width="194.2734" x="322.93" y="387.47"/><ellipse cx="337.93" cy="403.47" fill="#EB937F" rx="11" ry="11" style="stroke:#181818;stroke-width:1;"/><path d="M334.2894,409.97 L334.2894,397.8294 L341.9456,397.8294 L341.9456,399.9544 L336.6644,399.9544 L336.6644,402.6106 L341.68,402.6106 L341.68,404.7356 L336.6644,404.7356 L336.6644,407.845 L341.9456,407.845 L341.9456,409.97 L334.2894,409.97 Z " fill="#000000"/><text fill="#000000" font-family="sans-serif" font-size="14" lengthAdjust="spacing" textLength="162.2734" x="351.93" y="408.902">InboundMessageFormat</text><line style="stroke:#181818;stroke-width:0.5;" x1="323.93" x2="516.2034" y1="419.47" y2="419.47"/><text fill="#000000" font-family="sans-serif" font-size="14" lengthAdjust="spacing" textLength="62.7477" x="328.93" y="438.4359">CIM_1_12</text><text fill="#000000" font-family="sans-serif" font-size="14" lengthAdjust="spacing" textLength="79.9257" x="328.93" y="457.5039">OPENADR_3</text></g><!--reverse link Permission to AiidaLocalDataNeed--><g class="link" data-entity-1="ent0002" data-entity-2="ent0003" data-link-type="aggregation" data-source-line="60" id="lnk8"><path codeLine="60" d="M610.536,159.9221 C631.266,157.7721 639.64,156.91 658.1,155" fill="none" id="Permission-backto-AiidaLocalDataNeed" style="stroke:#181818;stroke-width:1;"/><polygon fill="none" points="598.6,161.16,604.9806,164.5197,610.536,159.9221,604.1553,156.5624,598.6,161.16" style="stroke:#181818;stroke-width:1;"/><text fill="#000000" font-family="sans-serif" font-size="13" lengthAdjust="spacing" textLength="8.034" x="606.3015" y="174.655">n</text><text fill="#000000" font-family="sans-serif" font-size="13" lengthAdjust="spacing" textLength="7.436" x="642.9063" y="170.5472">1</text></g><!--link Permission to PermissionStatus--><g class="link" data-entity-1="ent0002" data-entity-2="ent0006" data-link-type="association" data-source-line="61" id="lnk9"><path codeLine="61" d="M241.16,334.43 C229.45,351.05 219.3,368.65 211.66,387.04 C198.19,419.47 196.53,434.36 211.66,466.04 C232.86,510.44 272.11,546.92 310.87,574.43" fill="none" id="Permission-PermissionStatus" style="stroke:#181818;stroke-width:1;"/></g><!--link Permission to InboundMessageFormat--><g class="link" data-entity-1="ent0002" data-entity-2="ent0007" data-link-type="association" data-source-line="62" id="lnk10"><path codeLine="62" d="M420.06,352.55 C420.06,364.02 420.06,375.5 420.06,386.98" fill="none" id="Permission-InboundMessageFormat" style="stroke:#181818;stroke-width:1;"/></g><!--link MqttStreamingConfig to Permission--><g class="link" data-entity-1="ent0005" data-entity-2="ent0002" data-link-type="composition" data-source-line="63" id="lnk12"><path codeLine="63" d="M182.08,179.54 C200.63,179.54 208.86,179.54 229.43,179.54" fill="none" id="MqttStreamingConfig-to-Permission" style="stroke:#181818;stroke-width:1;"/><polygon fill="#181818" points="241.43,179.54,235.43,175.54,229.43,179.54,235.43,183.54,241.43,179.54" style="stroke:#181818;stroke-width:1;"/><text fill="#000000" font-family="sans-serif" font-size="13" lengthAdjust="spacing" textLength="7.436" x="189.6547" y="194.1703">1</text><text fill="#000000" font-family="sans-serif" font-size="13" lengthAdjust="spacing" textLength="7.436" x="226.187" y="193.838">1</text></g><!--reverse link Permission to Datasource--><g class="link" data-entity-1="ent0002" data-entity-2="ent0004" data-link-type="aggregation" data-source-line="64" id="lnk13"><path codeLine="64" d="M610.5322,199.7538 C643.6922,203.2938 663.86,205.44 689.05,208.13" fill="none" id="Permission-backto-Datasource" style="stroke:#181818;stroke-width:1;"/><polygon fill="none" points="598.6,198.48,604.1415,203.0943,610.5322,199.7538,604.9907,195.1395,598.6,198.48" style="stroke:#181818;stroke-width:1;"/><text fill="#000000" font-family="sans-serif" font-size="13" lengthAdjust="spacing" textLength="8.034" x="606.3015" y="213.5494">n</text><text fill="#000000" font-family="sans-serif" font-size="13" lengthAdjust="spacing" textLength="7.436" x="673.9682" y="222.5327">1</text></g><?plantuml-src XLHDivCm5DtpApBTEEE8dUgkEuHKKKeh15qoATpNPXv9C0bFdJV-TmCK7YquikAUSp_EJGwykXXJw-rwNLTKc8PNRml9rqL5jNPBHi-ASiUvi18GyDhyHXpu2PHsAdWmo4YasFbYKCaK58P9uJXTAJg2uanhYw1d1zd7HVK8XUKMPLaON0aeImPtMAD1tK7QKDFexQHrsY433Ug95H1J3bkK6iN4-QLG6S9QF1Gs46OO_AjcYhQobrYxkbWiK_0a7s69AQGG_Jcqscz4NAWezOK-GgQgEueM1MXDR4znnvJKq1Z0zl8OAsaa2re5L-oQmdyOOsk0SblcI_70pbkqduEJZgbiL66r1-FxbMJY91jHxgqQUeQTL9oQTiKvwlmPBdekp5wuPUb96qKBW_gqbjJTBFGyrYx8_BzRMcU8-INNjk5FgUwFlNK5g4onXPCbicR5t2lMKakCQGK9Qk2MjCk0QFZCbTT5_0Hx10Tlkc27YVy91tc0YHT6QGzcyIwBTc4KUHyYt4EUx-FZh6h_bP3SzWjmJ49lAF_kXIICF-QxGvAdn4j83wV43jwtHE0HhySI_1dxOzi4Vpjy6GA24viyKTfB6aChroeWXtx4kFIIDOR5mts-oJVlkk1mnB4N9FdxjdBoQrY95PAkYrQRrPB39vdk_BE_OHTDEfra9xnscxgVjVHz_4FMYt6Tlm00?></g></svg>