<svg xmlns="http://www.w3.org/2000/svg" fill="none" viewBox="0 0 177 41" width="160">
    <path fill="#fff" fill-rule="evenodd" d="M25.67.51c-.006-.008-.006-.008-.013-.008V.51a.25.25 0 0 0-.18.014.26.26 0 0 0-.108.086 70.55 70.55 0 0 0-2.818 2.616 65.713 65.713 0 0 0-1.667-1.294l.015.008a.67.67 0 0 0-.177-.132v-.002a.785.785 0 0 0-.901.086.775.775 0 0 0-.282.548.91.91 0 0 0 .102.511c.004.016.01.034.017.045l.005.008.008.009.032.036.016.02.035.04a.076.076 0 0 0 .03.025c.567.391 1.123.789 1.67 1.193-.485.499-.96 1.002-1.425 1.51a1.333 1.333 0 0 0-1.73 1.97c-.476.567-.94 1.138-1.392 1.715a62.251 62.251 0 0 0-10.305-.28l.016-.007a.708.708 0 0 0-.227.013h.007a.73.73 0 0 0-.306.127.78.78 0 0 0-.33.52.777.777 0 0 0 .138.601c.102.146.24.26.409.326l.005.004.005.003c.01.007.02.015.031.015h.007l.015.003c.012.003.027.007.042.007.012.003.023.004.034.005a.186.186 0 0 1 .047.01h.008c.008.003.018.005.03 0a61.334 61.334 0 0 1 9.478-.171 58.727 58.727 0 0 0-2.56 3.73C8.78 16.876 4.406 19.992.333 23.778l.009-.014a.678.678 0 0 0-.165.156.785.785 0 0 0-.067.898c.11.193.277.32.49.375.171.046.35.046.522-.012.016 0 .032 0 .045-.01l.008-.008.05-.028.035-.02.038-.021c.004 0 .018-.011.027-.024 3.439-3.46 7.107-6.387 11.004-8.783a56.71 56.71 0 0 0-3.139 6.29 1.336 1.336 0 0 0-.895 2.245c-1.7 4.533-2.842 9.332-3.43 14.395l-.001-.017a.723.723 0 0 0-.025.226l.003-.008a.785.785 0 0 0 .53.735c.21.075.418.063.616-.033a.898.898 0 0 0 .39-.346l.006-.006c.009-.01.018-.019.022-.032l.05-.138v-.001a.077.077 0 0 0 .005-.037c.383-5.047 1.326-9.819 2.828-14.316a1.332 1.332 0 0 0 1.238-.89 1.328 1.328 0 0 0-.394-1.46 53.263 53.263 0 0 1 3.536-7.405 53.28 53.28 0 0 1 8.728-4.03c3.207.573 6.33 1.43 9.367 2.571 5.594 6.78 9.386 14.749 11.38 23.904a1.334 1.334 0 0 0 .062 2.49 1.332 1.332 0 0 0 1.703-.814 1.331 1.331 0 0 0-1.3-1.775c-1.86-8.71-5.205-16.406-10.036-23.088 4.543 1.896 8.893 4.44 13.05 7.634a1.332 1.332 0 1 0 2.48.974 1.333 1.333 0 0 0-.811-1.702v.004a1.335 1.335 0 0 0-1.405.33c-4.509-3.49-9.218-6.27-14.127-8.337a57.507 57.507 0 0 0-3.471-4.144c3.702-.793 7.557-1.228 11.567-1.306v.009h.178c.029.008.066 0 .105-.008h.004c.003 0 .007-.003.01-.006l.005-.003a.027.027 0 0 1 .004-.002c.004-.005.01-.008.016-.01a.09.09 0 0 0 .006-.004l.003-.002a.224.224 0 0 0 .11-.149h.007a.341.341 0 0 0-.02-.167l-.009-.016c-.039-.053-.087-.092-.145-.101a.292.292 0 0 0-.139-.008c-4.219.06-8.275.485-12.169 1.272a61.169 61.169 0 0 0-5.889-5.469 64.776 64.776 0 0 1 2.638-2.476l.003-.008a1.07 1.07 0 0 1 .12-.098s.003-.005.012-.013a.278.278 0 0 0 .082-.073l.017-.048a.224.224 0 0 0-.013-.185l.003-.009A.344.344 0 0 0 25.67.51ZM21.86 4.628a60.702 60.702 0 0 0-1.443 1.558 1.333 1.333 0 0 1-1.688 1.98c-.388.474-.766.954-1.136 1.437a57.61 57.61 0 0 1 5.32.913 58.825 58.825 0 0 1 4.472-1.203 60.015 60.015 0 0 0-5.525-4.685Zm6.047 5.192a54.582 54.582 0 0 0-3.643 1.011 56.786 56.786 0 0 1 6.503 2.022 55.543 55.543 0 0 0-2.86-3.033ZM14.68 13.804a54.57 54.57 0 0 1 2.061-3.057c1.384.102 2.752.255 4.106.457a56.752 56.752 0 0 0-6.167 2.6Zm-3.6-8.876a1.334 1.334 0 1 1-2.668 0 1.334 1.334 0 0 1 2.667 0ZM2.723 35.424a1.333 1.333 0 1 1-2.665 0 1.333 1.333 0 0 1 2.665 0ZM74.737 6.038c-.786-.96-2.475-.9-3.188.12-.46.556-.428 1.294-.397 1.982.005.104.01.208.012.31.01 1.3.009 2.602.008 3.904-.002 1.085-.003 2.17.003 3.255-1.446-.724-3.049-1.105-4.66-1.16-1.995-.059-4.072.262-5.793 1.336-2.683 1.59-4.35 4.593-4.578 7.67-.081 1.923-.143 3.914.557 5.746.84 2.468 2.705 4.614 5.154 5.578 2.863 1.168 6.09.941 9.028.19 1.15-.299 2.308-.737 3.175-1.58.82-.8 1.202-1.968 1.212-3.096V7.933c-.015-.656-.033-1.4-.533-1.895Zm-13.37 14.663c.805-1.196 2.139-1.971 3.545-2.22 1.688-.298 3.437-.051 5.033.547.64.232 1.245.814 1.223 1.538.007 2.907.005 5.812.002 8.718.013.705-.338 1.447-1.008 1.737-1.233.59-2.634.708-3.982.716-1.528-.068-3.114-.561-4.2-1.683-1.207-1.18-1.717-2.9-1.797-4.546-.08-1.666.234-3.409 1.184-4.807ZM149.3 5.368c-1.122-.078-2.029.966-2.084 2.03a166.58 166.58 0 0 0-.003 3.24c.009 1.65.018 3.298-.049 4.946-2.257-1.123-4.879-1.353-7.344-.959-2.622.48-5.021 2.13-6.303 4.482-1.482 2.594-1.755 5.744-1.191 8.64.546 2.861 2.367 5.554 5.043 6.801 2.583 1.259 5.588 1.227 8.352.693 1.526-.322 3.151-.71 4.316-1.813.864-.793 1.233-1.982 1.265-3.125.013-3.31.01-6.621.006-9.932-.004-4.436-.008-8.871.025-13.304-.093-.976-1.054-1.782-2.033-1.699Zm-11.64 14.979c.8-.97 1.961-1.619 3.194-1.85 1.739-.322 3.556-.078 5.195.566.676.255 1.206.91 1.162 1.657l.002 2.56c.002 1.942.004 3.884-.004 5.828.004.734-.246 1.573-.977 1.89-1.261.618-2.709.746-4.095.734-1.603-.077-3.252-.645-4.335-1.876-1.169-1.32-1.618-3.127-1.601-4.857-.009-1.646.399-3.36 1.459-4.652ZM105.076 9.275c-.128-1.521-2.189-2.232-3.305-1.26-.667.492-.804 1.356-.81 2.129l-.003.95c-.006 1.236-.012 2.474.05 3.71-.428.015-.854 0-1.28-.014-.375-.013-.75-.026-1.125-.02-.572-.012-1.038.392-1.422.77-.793.886-.463 2.42.602 2.933.633.285 1.32.237 2.007.19.407-.029.815-.057 1.211-.017v9.943c.026 1.548.22 3.19 1.138 4.49 1.472 1.997 4.169 2.644 6.534 2.478 1.594-.282 2.106-2.59.877-3.585-.488-.514-1.198-.496-1.855-.48l-.22.005c-.876-.085-1.84-.556-2.114-1.454-.292-.935-.277-1.914-.263-2.887.006-.377.012-.753 0-1.125.013-.921.006-1.842-.001-2.763-.012-1.545-.024-3.089.061-4.63.434.005.867.005 1.301.005.912 0 1.825 0 2.737.047 1.042.096 2.109-.799 2.049-1.875.103-1.173-1.098-2.206-2.237-2.051-.914.05-1.828.046-2.743.042-.389-.002-.778-.004-1.167-.001-.007-.72-.004-1.441 0-2.162.005-1.123.01-2.246-.022-3.368Zm52.582 6.145c.003-1.242-1.345-2.133-2.512-1.823-.992.198-1.622 1.2-1.607 2.175l-.006.773c-.013 1.682-.026 3.366.037 5.047.003 1.54.002 3.08 0 4.62-.002 2.446-.004 4.893.011 7.339-.041 1.082.927 2.113 2.027 2.04 1.11.102 2.149-.932 2.059-2.044-.001-2.14 0-4.278.001-6.417.001-3.904.003-7.807-.01-11.71Zm-34.676-.866a25.027 25.027 0 0 0-8.237.597c-.381.082-.713.297-1.002.547-.84.63-.873 2.1-.057 2.762.489.502 1.252.442 1.901.39l.108-.009c1.558-.365 3.159-.575 4.764-.542 1.466.02 3.107.071 4.287 1.062.928.826.966 2.121 1 3.292l.013.393c-2.88-.276-5.817-.452-8.67.13-1.649.35-3.308 1.087-4.355 2.459-1.111 1.453-1.3 3.415-.976 5.169.264 1.498 1.242 2.831 2.569 3.569 1.647.953 3.592 1.143 5.455 1.212 1.964.04 3.939-.144 5.841-.645 1.174-.322 2.367-.812 3.18-1.757.73-.84 1.039-1.97 1.045-3.066l-.001-8.437v-.078c-.021-1.761-.483-3.621-1.738-4.922-1.345-1.36-3.27-1.935-5.127-2.126Zm-6.347 16.66c-1.362-.865-1.303-3.178.071-4.003.876-.501 1.888-.7 2.88-.79 2.038-.142 4.085-.024 6.118.172.077 1.015.051 2.033-.01 3.05a1.742 1.742 0 0 1-1.035 1.43c-1.18.536-2.494.637-3.771.735l-.074.006c-.046 0-.092.002-.139.004-1.362.04-2.815.084-4.04-.604Zm56.604-16.143c-2.166-.547-4.416-.69-6.641-.585-1.281.1-2.567.34-3.737.879-1.385.65-2.534 1.883-2.893 3.394-.396 1.652-.301 3.523.661 4.973.827 1.23 2.21 1.942 3.593 2.367 1.106.327 2.242.532 3.377.737.716.129 1.431.258 2.139.417.741.202 1.54.45 2.051 1.058.617.814.439 2.132-.425 2.706-.913.61-2.056.671-3.117.716-1.721.01-3.431-.247-5.102-.652a4.47 4.47 0 0 0-1.226-.106c-1.205-.026-2.097 1.491-1.479 2.532.435.796 1.329 1.147 2.138 1.44 2.785.681 5.722.86 8.554.355 1.633-.313 3.289-1.076 4.239-2.496.971-1.432 1.07-3.276.762-4.931-.305-1.623-1.523-2.966-3.005-3.632-1.479-.679-3.073-.965-4.666-1.25-.782-.141-1.565-.281-2.333-.468-.697-.198-1.446-.432-1.93-1.001-.568-.732-.42-1.911.321-2.474.739-.52 1.657-.684 2.541-.746 1.949-.132 3.9.155 5.802.566.604.118 1.219-.167 1.624-.607.523-.497.482-1.311.336-1.955-.278-.64-.917-1.08-1.584-1.238Zm-84.39-.509c-2.753-.268-5.55-.047-8.237.598-.38.082-.713.297-1.003.548-.84.63-.872 2.099-.056 2.762.489.5 1.251.44 1.9.388l.108-.008c1.56-.364 3.16-.574 4.764-.54 1.466.017 3.108.068 4.287 1.06.928.825.966 2.12 1.001 3.288l.013.396c-2.88-.276-5.816-.45-8.67.13-1.65.35-3.31 1.088-4.355 2.46-1.11 1.452-1.3 3.415-.976 5.169.264 1.499 1.242 2.831 2.569 3.567 1.647.955 3.591 1.143 5.454 1.213 1.964.041 3.94-.144 5.841-.643 1.175-.324 2.368-.813 3.18-1.758.73-.84 1.04-1.972 1.046-3.066-.002-2.83-.002-5.66-.002-8.49v-.026c-.019-1.761-.483-3.623-1.737-4.922-1.346-1.36-3.27-1.935-5.127-2.126Zm-6.346 16.662c-1.363-.866-1.304-3.18.07-4.005.875-.5 1.887-.699 2.882-.788 2.037-.142 4.084-.023 6.116.171.079 1.014.052 2.033-.008 3.05a1.747 1.747 0 0 1-1.036 1.43c-1.19.54-2.514.64-3.8.736l-.046.004-.13.004c-1.365.041-2.82.085-4.048-.602Z" clip-rule="evenodd"/>
</svg>
