<svg width="315" height="49" viewBox="0 0 315 49" fill="none" xmlns="http://www.w3.org/2000/svg">
<path d="M82.9247 38.4287H73.8366L72.5586 42.3845H62.3208L73.6999 13.8337H83.2432L94.704 42.3845H84.1403L82.9234 38.4287H82.9247ZM78.3745 23.919L75.6039 31.7805H81.1707L78.3745 23.919Z" fill="#017AA0"/>
<path d="M97.3555 13.8337H107.062V42.3845H97.3555V13.8337Z" fill="#017AA0"/>
<path d="M112.365 13.8337H122.072V42.3845H112.365V13.8337Z" fill="#017AA0"/>
<path d="M154.701 28.1091C154.701 36.5113 148.583 42.3845 139.61 42.3845H127.374V13.8337H139.61C148.583 13.8337 154.701 19.6252 154.701 28.1091ZM144.994 28.1091C144.994 24.6013 142.669 22.3995 138.957 22.3995H136.917V33.82H138.957C142.669 33.82 144.994 31.6182 144.994 28.1103V28.1091Z" fill="#017AA0"/>
<path d="M175.14 38.4287H166.053L164.775 42.3845H154.537L165.916 13.8337H175.461L186.922 42.3845H176.358L175.141 38.4287H175.14ZM170.591 23.919L167.82 31.7805H173.387L170.591 23.919Z" fill="#017AA0"/>
<path d="M228.819 18.3802H229.475C229.475 19.2456 230.164 19.7777 231.143 19.7777C232.031 19.7777 232.703 19.292 232.703 18.5426C232.703 17.7065 231.898 17.5246 231.025 17.3245C230.033 17.095 228.947 16.8399 228.947 15.5889C228.947 14.5063 229.79 13.8337 231.092 13.8337C232.394 13.8337 233.189 14.5624 233.189 15.6963H232.553C232.553 14.9212 231.938 14.4501 231.08 14.4501C230.222 14.4501 229.591 14.8785 229.591 15.562C229.591 16.3517 230.383 16.5336 231.243 16.7325C232.254 16.9717 233.366 17.2329 233.366 18.5352C233.366 19.7082 232.414 20.4063 231.151 20.4063C229.758 20.4063 228.821 19.6179 228.821 18.3802H228.819Z" fill="#017AA0"/>
<path d="M214.049 20.3272L213.155 15.0521L210.865 20.1234H210.683L208.395 15.0582L207.491 20.3272H206.836L207.933 13.9133H208.545L210.766 18.8956L212.998 13.9133H213.623L214.705 20.3272H214.049Z" fill="#017AA0"/>
<path d="M238.9 14.5175H236.903V20.3272H236.261V14.5175H234.264V13.9133H238.9V14.5175Z" fill="#017AA0"/>
<path d="M242.641 17.7299H241.018V20.3272H240.376V13.9133H242.776C243.952 13.9133 244.82 14.7128 244.82 15.8296C244.82 16.7511 244.212 17.4614 243.324 17.6677L244.899 20.3272H244.174L242.641 17.7299ZM241.019 17.1197H242.745C243.591 17.1197 244.166 16.5778 244.166 15.8235C244.166 15.0692 243.587 14.5248 242.745 14.5248H241.019V17.1209V17.1197Z" fill="#017AA0"/>
<path d="M256.582 14.5175H254.586V20.3272H253.944V14.5175H251.947V13.9133H256.582V14.5175Z" fill="#017AA0"/>
<path d="M271.123 19.7109V20.3272H267.449V13.9133H271.023V14.5236H268.092V16.7145H270.785V17.3113H268.092V19.7097H271.124L271.123 19.7109Z" fill="#017AA0"/>
<path d="M197.475 18.6893H194.248L193.568 20.3285H192.885L195.539 13.9146H196.133L198.861 20.3285H198.165L197.475 18.6893ZM194.491 18.0973H197.23L195.846 14.8031L194.491 18.0973Z" fill="#017AA0"/>
<path d="M205.634 17.1185C205.634 18.9786 204.266 20.3285 202.381 20.3285H200.322V13.9146H202.381C204.268 13.9146 205.634 15.2608 205.634 17.1185ZM204.979 17.1185C204.979 15.6135 203.89 14.5187 202.362 14.5187H200.964V19.7243H202.362C203.887 19.7243 204.979 18.6258 204.979 17.1185Z" fill="#017AA0"/>
<path d="M216.409 13.9146H217.051V20.3285H216.409V13.9146Z" fill="#017AA0"/>
<path d="M224.272 13.9146V20.3285H223.729L219.871 15.0423V20.3285H219.241V13.9146H219.823L223.644 19.1567V13.9146H224.273H224.272Z" fill="#017AA0"/>
<path d="M226.46 13.9146H227.102V20.3285H226.46V13.9146Z" fill="#017AA0"/>
<path d="M250.41 18.6893H247.183L246.503 20.3285H245.82L248.474 13.9146H249.068L251.797 20.3285H251.1L250.41 18.6893ZM247.426 18.0973H250.165L248.782 14.8031L247.427 18.0973H247.426Z" fill="#017AA0"/>
<path d="M258.058 13.9146H258.7V20.3285H258.058V13.9146Z" fill="#017AA0"/>
<path d="M265.954 13.9146L263.38 20.3285H262.794L260.167 13.9146H260.876L263.088 19.3606L265.251 13.9146H265.954Z" fill="#017AA0"/>
<path d="M225.646 38.9341C225.646 37.013 227.021 35.6265 228.926 35.6265C230.387 35.6265 231.548 36.4747 231.939 37.8161H231.281C230.912 36.8409 230.041 36.2563 228.926 36.2563C227.402 36.2563 226.301 37.3694 226.301 38.9341C226.301 40.4988 227.399 41.6071 228.926 41.6071C230.071 41.6071 230.957 40.9858 231.32 39.9472H231.975C231.587 41.3581 230.418 42.2369 228.928 42.2369C227.019 42.2369 225.647 40.8565 225.647 38.9353L225.646 38.9341Z" fill="#017AA0"/>
<path d="M233.131 38.9341C233.131 37.013 234.506 35.6265 236.412 35.6265C237.873 35.6265 239.033 36.4747 239.424 37.8161H238.766C238.397 36.8409 237.526 36.2563 236.412 36.2563C234.887 36.2563 233.786 37.3694 233.786 38.9341C233.786 40.4988 234.885 41.6071 236.412 41.6071C237.557 41.6071 238.443 40.9858 238.805 39.9472H239.461C239.072 41.3581 237.903 42.2369 236.413 42.2369C234.504 42.2369 233.132 40.8565 233.132 38.9353L233.131 38.9341Z" fill="#017AA0"/>
<path d="M245.99 40.1915H246.645C246.645 41.0569 247.335 41.589 248.314 41.589C249.201 41.589 249.873 41.1033 249.873 40.3538C249.873 39.5178 249.068 39.3359 248.195 39.1357C247.203 38.9063 246.118 38.6512 246.118 37.4001C246.118 36.3175 246.96 35.645 248.262 35.645C249.565 35.645 250.359 36.3737 250.359 37.5076H249.723C249.723 36.7325 249.108 36.2614 248.25 36.2614C247.392 36.2614 246.761 36.6898 246.761 37.3733C246.761 38.163 247.553 38.3448 248.414 38.5438C249.424 38.783 250.536 39.0442 250.536 40.3465C250.536 41.5195 249.584 42.2176 248.321 42.2176C246.928 42.2176 245.991 41.4291 245.991 40.1915H245.99Z" fill="#017AA0"/>
<path d="M251.781 40.1915H252.437C252.437 41.0569 253.126 41.589 254.105 41.589C254.992 41.589 255.665 41.1033 255.665 40.3538C255.665 39.5178 254.859 39.3359 253.987 39.1357C252.994 38.9063 251.908 38.6512 251.908 37.4001C251.908 36.3175 252.75 35.645 254.053 35.645C255.355 35.645 256.15 36.3737 256.15 37.5076H255.514C255.514 36.7325 254.898 36.2614 254.04 36.2614C253.182 36.2614 252.551 36.6898 252.551 37.3733C252.551 38.163 253.344 38.3448 254.204 38.5438C255.215 38.783 256.327 39.0442 256.327 40.3465C256.327 41.5195 255.374 42.2176 254.111 42.2176C252.719 42.2176 251.781 41.4291 251.781 40.1915Z" fill="#017AA0"/>
<path d="M198.197 38.9283C198.197 40.7884 196.828 42.1383 194.944 42.1383H192.885V35.7244H194.944C196.831 35.7244 198.197 37.0706 198.197 38.9283ZM197.541 38.9283C197.541 37.4234 196.452 36.3285 194.924 36.3285H193.527V41.5341H194.924C196.45 41.5341 197.541 40.4356 197.541 38.9283Z" fill="#017AA0"/>
<path d="M203.569 40.4991H200.342L199.663 42.1383H198.979L201.634 35.7244H202.227L204.955 42.1383H204.259L203.569 40.4991ZM200.585 39.9084H203.324L201.94 36.6141L200.585 39.9084Z" fill="#017AA0"/>
<path d="M209.741 36.3285H207.744V42.1383H207.102V36.3285H205.105V35.7244H209.741V36.3285Z" fill="#017AA0"/>
<path d="M214.481 40.4991H211.254L210.574 42.1383H209.891L212.545 35.7244H213.138L215.866 42.1383H215.171L214.481 40.4991ZM211.497 39.9084H214.236L212.852 36.6141L211.497 39.9084Z" fill="#017AA0"/>
<path d="M223.459 40.4991H220.232L219.552 42.1383H218.869L221.523 35.7244H222.116L224.844 42.1383H224.149L223.459 40.4991ZM220.475 39.9084H223.214L221.83 36.6141L220.475 39.9084Z" fill="#017AA0"/>
<path d="M244.739 41.5219V42.1383H241.065V35.7244H244.639V36.3346H241.708V38.5255H244.401V39.1223H241.708V41.5207H244.74L244.739 41.5219Z" fill="#017AA0"/>
<path d="M28.9569 0.626465C24.5386 0.626465 20.9563 4.20874 20.9563 8.62707C20.9563 10.5348 21.6252 12.285 22.7395 13.6606C22.4149 15.1972 21.3091 17.2404 20.0946 19.1774C19.4075 20.2356 18.5275 21.5647 17.5572 22.9684C17.4656 23.1014 17.3753 23.2296 17.2911 23.3528C16.5368 24.4367 15.7349 25.5522 14.933 26.6129C12.5627 29.746 10.1888 32.386 9.01219 32.2334V32.2395C6.09511 31.8355 3.06696 33.0829 1.32648 35.6998C0.491632 36.9557 0.062004 38.3618 0.00585938 39.7666C1.5657 38.6339 3.6223 37.7124 6.33677 37.2608C7.32541 37.0961 8.15415 36.985 8.86694 36.891C10.9394 36.6176 12.0208 36.4931 13.1022 35.6461C13.8223 35.0822 14.3752 34.6086 14.7499 34.2742C15.4005 31.9979 17.5889 28.2289 19.6772 24.942C19.7578 24.8163 19.842 24.6844 19.9287 24.5477C19.975 24.4757 20.0202 24.4062 20.0654 24.3354C20.9356 22.9818 21.7692 21.7344 22.4442 20.7433C23.0044 19.95 23.589 19.1652 24.1773 18.4573C24.4153 10.6764 27.9647 4.39182 31.4639 1.0329C30.6755 0.772929 29.8333 0.630127 28.9569 0.630127V0.626465Z" fill="#017AA0"/>
<path d="M32.3895 1.39888C32.0905 1.25729 31.7817 1.13402 31.4643 1.02905C27.9651 4.38797 24.4157 10.6725 24.1777 18.4534C24.9442 17.5295 25.7144 16.7349 26.4345 16.2186C27.2279 16.4822 28.0761 16.6275 28.9586 16.6275C29.6189 16.6275 30.2584 16.5433 30.8724 16.3919C30.5025 14.9566 30.2108 13.2844 30.0876 11.3682C30.0876 11.3682 30.1584 5.11907 32.3895 1.39888Z" fill="#15A7E0"/>
<path d="M49.7673 32.1681C49.3926 32.1779 49.0179 32.2157 48.6456 32.2792C46.9882 32.1645 43.401 27.5594 40.501 23.4267C40.4156 23.3046 40.3253 23.1764 40.2337 23.0434C39.2585 21.6435 38.3736 20.318 37.6828 19.2622C36.4818 17.3618 35.3845 15.3565 35.0342 13.8296C36.234 12.4309 36.9602 10.6135 36.9602 8.62645C36.9602 5.43597 35.0928 2.68244 32.3918 1.39844C30.1606 5.11863 30.0898 11.3678 30.0898 11.3678C30.2131 13.284 30.5048 14.9561 30.8746 16.3915C31.0089 16.3585 31.1432 16.3256 31.275 16.2865C32.5651 17.18 34.0236 18.9815 35.3406 20.8342C36.0546 21.8754 36.9456 23.196 37.8708 24.6301C37.9574 24.7656 38.0429 24.8974 38.1234 25.0231C39.6442 27.3983 41.215 30.0224 42.2183 32.1559C42.2476 32.1828 42.2683 32.2023 42.2732 32.2011C42.3733 32.1925 43.3778 31.8215 44.0284 32.4269C51.022 38.9348 50.8902 45.5159 50.5277 47.9899C51.8715 47.9008 53.2092 47.47 54.4078 46.6656C55.4928 45.9382 56.3387 44.9874 56.9282 43.917C55.073 40.9657 50.8328 39.1179 49.7697 32.1681H49.7673Z" fill="#FED119"/>
<path d="M251.444 28.0161C251.444 26.1255 252.848 24.7024 254.785 24.7024C256.722 24.7024 258.126 26.1231 258.126 28.0161C258.126 29.9092 256.722 31.325 254.785 31.325C252.848 31.325 251.444 29.9043 251.444 28.0161ZM257.47 28.0161C257.47 26.4819 256.336 25.3322 254.785 25.3322C253.234 25.3322 252.1 26.4917 252.1 28.0161C252.1 29.5406 253.234 30.6952 254.785 30.6952C256.336 30.6952 257.47 29.5479 257.47 28.0161Z" fill="#017AA0"/>
<path d="M290.125 28.0161C290.125 26.1255 291.529 24.7024 293.466 24.7024C295.403 24.7024 296.806 26.1231 296.806 28.0161C296.806 29.9092 295.403 31.325 293.466 31.325C291.529 31.325 290.125 29.9043 290.125 28.0161ZM296.151 28.0161C296.151 26.4819 295.017 25.3322 293.466 25.3322C291.914 25.3322 290.78 26.4917 290.78 28.0161C290.78 29.5406 291.914 30.6952 293.466 30.6952C295.017 30.6952 296.151 29.5479 296.151 28.0161Z" fill="#017AA0"/>
<path d="M230.684 28.0166C230.684 26.0955 232.06 24.709 233.965 24.709C235.426 24.709 236.587 25.5573 236.977 26.8986H236.319C235.951 25.9234 235.079 25.3388 233.965 25.3388C232.44 25.3388 231.34 26.4519 231.34 28.0166C231.34 29.5814 232.438 30.6896 233.965 30.6896C235.11 30.6896 235.996 30.0684 236.358 29.0297H237.014C236.626 30.4406 235.456 31.3194 233.966 31.3194C232.057 31.3194 230.685 29.939 230.685 28.0179L230.684 28.0166Z" fill="#017AA0"/>
<path d="M305.063 29.2735H305.718C305.718 30.1389 306.408 30.6711 307.387 30.6711C308.274 30.6711 308.947 30.1853 308.947 29.4359C308.947 28.5998 308.141 28.418 307.269 28.2178C306.276 27.9883 305.19 27.7332 305.19 26.4822C305.19 25.3996 306.032 24.7271 307.334 24.7271C308.637 24.7271 309.431 25.4557 309.431 26.5896H308.795C308.795 25.8145 308.18 25.3434 307.322 25.3434C306.464 25.3434 305.833 25.7718 305.833 26.4553C305.833 27.245 306.625 27.4269 307.486 27.6258C308.496 27.865 309.608 28.1262 309.608 29.4286C309.608 30.6015 308.656 31.2996 307.393 31.2996C306 31.2996 305.063 30.5112 305.063 29.2735Z" fill="#017AA0"/>
<path d="M220.608 25.4169V27.7396H223.27V28.3364H220.608V31.2193H219.966V24.8054H223.51V25.4157H220.608V25.4169Z" fill="#017AA0"/>
<path d="M247.481 25.4169V27.7396H250.143V28.3364H247.481V31.2193H246.839V24.8054H250.382V25.4157H247.481V25.4169Z" fill="#017AA0"/>
<path d="M192.886 24.8064H193.528V31.2203H192.886V24.8064Z" fill="#017AA0"/>
<path d="M200.747 24.8064V31.2203H200.204L196.346 25.9342V31.2203H195.716V24.8064H196.298L200.118 30.0486V24.8064H200.748H200.747Z" fill="#017AA0"/>
<path d="M206.856 25.4106H204.859V31.2203H204.217V25.4106H202.22V24.8064H206.856V25.4106Z" fill="#017AA0"/>
<path d="M212.007 30.6039V31.2203H208.333V24.8064H211.907V25.4167H208.976V27.6075H211.669V28.2044H208.976V30.6027H212.008L212.007 30.6039Z" fill="#017AA0"/>
<path d="M215.994 28.623H214.371V31.2203H213.729V24.8064H216.129C217.305 24.8064 218.173 25.6058 218.173 26.7226C218.173 27.6441 217.565 28.3545 216.677 28.5608L218.252 31.2203H217.527L215.994 28.623ZM214.371 28.0127H216.097C216.943 28.0127 217.518 27.4708 217.518 26.7165C217.518 25.9622 216.939 25.4179 216.097 25.4179H214.371V28.014V28.0127Z" fill="#017AA0"/>
<path d="M228.498 29.5811H225.271L224.591 31.2203H223.908L226.562 24.8064H227.156L229.883 31.2203H229.188L228.498 29.5811ZM225.514 28.9904H228.253L226.869 25.6962L225.514 28.9904Z" fill="#017AA0"/>
<path d="M242.295 30.6039V31.2203H238.621V24.8064H242.195V25.4167H239.264V27.6075H241.957V28.2044H239.264V30.6027H242.296L242.295 30.6039Z" fill="#017AA0"/>
<path d="M262.13 28.623H260.507V31.2203H259.865V24.8064H262.264C263.441 24.8064 264.309 25.6058 264.309 26.7226C264.309 27.6441 263.701 28.3545 262.812 28.5608L264.388 31.2203H263.663L262.13 28.623ZM260.507 28.0127H262.231C263.077 28.0127 263.652 27.4708 263.652 26.7165C263.652 25.9622 263.074 25.4179 262.231 25.4179H260.507V28.014V28.0127Z" fill="#017AA0"/>
<path d="M268.926 24.8064H269.568V31.2203H268.926V24.8064Z" fill="#017AA0"/>
<path d="M276.787 24.8064V31.2203H276.244L272.386 25.9342V31.2203H271.756V24.8064H272.339L276.159 30.0486V24.8064H276.789H276.787Z" fill="#017AA0"/>
<path d="M288.384 24.8064V31.2203H287.742V28.2141H284.172V31.2203H283.53V24.8064H284.172V27.5978H287.742V24.8064H288.384Z" fill="#017AA0"/>
<path d="M314.999 30.6039V31.2203H311.325V24.8064H314.898V25.4167H311.968V27.6075H314.66V28.2044H311.968V30.6027H315L314.999 30.6039Z" fill="#017AA0"/>
<path d="M298.466 28.84V24.8074H299.114V28.7961C299.114 29.919 299.876 30.6904 300.949 30.6904C302.022 30.6904 302.777 29.9178 302.777 28.7961V24.8074H303.425V28.84C303.425 30.29 302.372 31.3189 300.949 31.3189C299.526 31.3189 298.466 30.2888 298.466 28.84Z" fill="#017AA0"/>
<path d="M278.716 28.3613H281.602V28.9655H278.716V28.3613Z" fill="#017AA0"/>
<path d="M29.3735 28.8049C29.8202 29.7631 29.8617 30.5173 29.6701 31.1642C32.1246 30.903 33.9676 30.5173 35.2553 30.1695C34.0616 27.986 31.7633 26.4847 29.0977 26.4322C28.5204 26.4212 27.9589 26.4798 27.4194 26.5982C28.1273 26.9558 28.823 27.6235 29.3747 28.8049H29.3735Z" fill="#15A7E0"/>
<path d="M26.1038 37.2134C25.972 34.2084 29.0502 33.254 29.6702 31.1632C29.8618 30.5163 29.8216 29.7632 29.3736 28.8039C28.8219 27.6224 28.1275 26.9548 27.4183 26.5972C24.251 27.2904 21.8515 30.0794 21.7856 33.4627C21.7087 37.4233 24.8576 40.6968 28.8183 40.7737C28.8256 40.7737 28.8329 40.7737 28.8415 40.7737C27.8248 40.5943 26.221 39.8864 26.1038 37.2122V37.2134Z" fill="#92C143"/>
<path d="M44.0265 32.4274C43.3748 31.8208 42.3703 32.1919 42.2714 32.2016C42.2665 32.2016 42.2458 32.1833 42.2165 32.1565C42.2458 32.2175 42.2787 32.2834 42.3068 32.3444C41.948 32.4616 41.5537 32.519 41.1632 32.5397C40.7396 32.5446 40.2051 32.5373 39.6338 32.4982C39.5801 32.4946 39.5277 32.4909 39.4776 32.4872C38.7648 32.4323 38.0081 32.3261 37.3466 32.1333C36.6118 31.9185 35.9942 31.5975 35.6866 31.1166C35.6317 30.9664 35.5719 30.8188 35.5072 30.6735C35.5035 30.6564 35.4974 30.6406 35.4938 30.6223L35.4901 30.6332C35.4181 30.4758 35.34 30.322 35.2582 30.1707C33.9706 30.5173 32.1275 30.9042 29.6731 31.1654C29.053 33.2562 25.9748 34.2106 26.1066 37.2156C26.2238 39.8898 27.8276 40.5977 28.8443 40.7771C31.9115 40.8271 34.5613 38.9439 35.6305 36.2489C35.8429 35.9731 36.1651 35.7595 36.5532 35.5947C37.3527 35.2542 38.4353 35.1211 39.4288 35.0833C39.4788 35.0821 39.5313 35.0796 39.5862 35.0784C40.1587 35.0626 40.6933 35.076 41.1168 35.0967C41.9162 35.1712 42.7267 35.3909 43.199 35.9816C43.1856 36.0134 43.1734 36.0463 43.1575 36.0744H43.1648C41.6746 38.6168 41.6673 41.8915 43.4175 44.5022C45.0506 46.9371 47.8004 48.1748 50.5296 47.9929C50.8921 45.5189 51.0239 38.9378 44.0302 32.4299L44.0265 32.4274Z" fill="#017AA0"/>
<path d="M57.3874 37.2476C57.1787 36.7056 56.9089 36.1771 56.5721 35.6743C55.5102 34.0913 53.9748 33.0184 52.2819 32.5082C51.469 32.2629 50.6207 32.1445 49.7676 32.1689C50.8307 39.1186 55.0708 40.9665 56.926 43.9178C58.0391 41.9002 58.2369 39.4531 57.3874 37.2476Z" fill="#EA5197"/>
<path d="M8.86747 36.8886C5.04109 40.1523 3.91453 43.748 3.79248 46.8457C7.40649 49.0573 12.1519 48.0333 14.5185 44.4754C16.3042 41.7902 16.2358 38.4142 14.6186 35.8535C14.4978 35.4935 14.5576 34.9467 14.7504 34.2717C14.3757 34.6074 13.8228 35.0809 13.1027 35.6436C12.0201 36.4907 10.9399 36.6152 8.86747 36.8886Z" fill="#EA5197"/>
<path d="M8.86735 36.8882C8.15455 36.9822 7.32581 37.0932 6.33718 37.258C3.62271 37.7108 1.5661 38.6311 0.00626063 39.7638C-0.0999259 42.4343 1.14746 45.0938 3.53483 46.6818C3.62026 46.7379 3.70692 46.7916 3.79236 46.8441C3.91441 43.7464 5.03975 40.1519 8.86735 36.887V36.8882Z" fill="#15A7E0"/>
</svg>
