<svg height="48" viewBox="0 0 2500 451.4" xmlns="http://www.w3.org/2000/svg">
    <title>EDDIE logo</title>
    <path
            fill="#1da7e0"
            d="M348.9 218.4c10.9-5.1 18.8-4.1 25.5-.4-4.2-33.3-18.3-44.9-22.5-47.8-10.8 6.9-19.5 16.8-24.8 28.6-8.4 10.8-56.4 14.2-98.1 15.1-1.2 0-2.5 0-3.9.1-14.1.2-27.2.2-37.6.1-6.4-.2-12.9-.5-19.1-1 10.1 3.7 27.1 11.7 30.8 24.2 7.9 0 16.7 0 25.9.2 1.3 0 2.6.1 3.9.1 41.7.9 89.9 4.3 98.1 15.2-1.3-10.3 1.4-24.8 21.8-34.4z"
    />
    <path
            fill="#ffd208"
            d="M208.3 350.1c28.4 33.4 61 33.3 83.1 29.6v-.1c-.2-2-.5-3.9-.8-5.9 0-.1 0-.3-.1-.4-.4-1.9-.8-3.8-1.4-5.7 0-.2-.1-.3-.1-.5-.6-1.8-1.2-3.7-1.9-5.4-.1-.2-.2-.4-.2-.6-.7-1.7-1.5-3.4-2.4-5.1-.1-.2-.2-.5-.4-.7-.9-1.7-1.8-3.3-2.9-4.8-.1-.2-.3-.5-.4-.7-1.1-1.6-2.3-3.2-3.5-4.8-.1-.1-.2-.3-.3-.4-2.2-2.7-4.6-5.1-7.1-7.4l-2.1-1.8c-.1-.1-.3-.2-.4-.3-1.5-1.2-3.1-2.4-4.8-3.5-.2-.1-.4-.3-.7-.4-1.6-1-3.2-2-4.9-2.9-.2-.1-.5-.2-.7-.4-1.7-.9-3.4-1.7-5.1-2.4-.2-.1-.4-.2-.6-.2-1.8-.7-3.6-1.4-5.5-1.9-.1 0-.3-.1-.4-.1-1.9-.5-3.8-1-5.7-1.4-.1 0-.2 0-.3-.1-1.9-.4-3.9-.7-5.9-.9h-.3c-2-.2-4-.3-6.1-.3-2.1 0-4.1.1-6.1.3h-.3c-2 .2-4 .5-5.9.9h-.3c-.3.1-.7.1-1 .2-2.1.4-7 .9-13.9-.3.6.7 1.2 1.5 1.8 2.3 5.1 6.8 5.9 13.4 7.6 26.1z"
    />
    <path
            fill="#ea5297"
            d="M208.3 350.1c.6 4.4 1.3 9.5 2.3 15.5 8.5 50.8 43.6 64.1 60.9 67.6.4-.3.7-.7 1.1-1 1.3-1.3 2.6-2.7 3.8-4.2.1-.2.3-.3.4-.5l.2-.2c.1-.1.2-.3.3-.4 1.2-1.5 2.4-3.1 3.5-4.8.2-.2.3-.5.4-.7 1-1.6 2-3.2 2.9-4.8.1-.2.2-.5.4-.7.9-1.7 1.7-3.4 2.4-5.1.1-.2.2-.4.2-.6.7-1.8 1.3-3.6 1.9-5.4 0-.2.1-.3.1-.5.5-1.9 1-3.8 1.4-5.7 0-.1 0-.3.1-.4.4-1.9.7-3.9.8-5.9v-.3a60.263 60.263 0 0 0 0-12v-.3c-22.1 3.7-54.7 3.8-83.1-29.6z"
    />
    <path
            fill="#007aa2"
            d="M144.1 322.7c2.1 2.3 3.3 3.7 3.3 3.7 17.2 23 15.8 40.9 15 45.7l-.3 1.2c0 .1 0 .2-.1.3-.4 2-.7 3.9-.9 5.9v.3c-.2 2-.3 4-.3 6.1s.1 4.1.3 6.1v.3c.2 2 .5 4 .9 5.9 0 .1 0 .2.1.3.4 2 .9 3.9 1.4 5.8 0 .1.1.3.1.4.6 1.9 1.2 3.7 1.9 5.5.1.2.1.4.2.6.7 1.8 1.5 3.5 2.4 5.2.1.2.2.5.3.7.9 1.7 1.9 3.3 2.9 4.9.1.2.3.4.4.6 1.1 1.7 2.3 3.3 3.5 4.8.1.1.2.2.3.4 2.8 3.4 5.9 6.5 9.2 9.2.1.1.2.2.4.3 1.5 1.2 3.2 2.4 4.8 3.5.2.1.4.3.6.4 1.6 1 3.2 2 4.9 2.9.2.1.4.2.7.3 1.7.9 3.4 1.7 5.2 2.4.2.1.4.1.6.2 1.8.7 3.6 1.4 5.5 1.9.1 0 .3.1.4.1 1.9.6 3.8 1 5.8 1.4.1 0 .2 0 .3.1 2 .4 3.9.7 5.9.9h.3a62.28 62.28 0 0 0 12.2 0h.3c2-.2 4-.5 5.9-.9.1 0 .2 0 .3-.1 2-.4 3.9-.9 5.8-1.4.1 0 .3-.1.4-.1 1.9-.6 3.7-1.2 5.5-1.9.2-.1.4-.2.6-.2 1.8-.7 3.5-1.5 5.1-2.4.2-.1.5-.2.7-.4 1.7-.9 3.3-1.8 4.9-2.9.2-.1.4-.3.7-.4 1.6-1.1 3.2-2.3 4.8-3.5.1-.1.3-.2.4-.3 1.3-1.1 2.5-2.2 3.8-3.3-17.3-3.5-52.4-16.8-60.9-67.6-1-6.1-1.7-11.2-2.3-15.5-1.7-12.7-2.4-19.3-7.6-26-.6-.8-1.2-1.6-1.8-2.3-8.2-1.4-19.4-5.2-32-14.7 0 0-22.7-19.4-34.5-36.5-11.5 11.3 19.9 31.9 11.7 52.1z"
    />
    <path
            fill="#ea5297"
            d="M81.2 263.3c-39.6-1-67.4-23.6-81-42.9-1.4 18.4 4.9 37.2 18.9 51.3 8.5 8.5 18.9 14.2 29.8 17 1 .3 1.9.5 2.9.7l1.5.3c4.1.8 8.3 1.2 12.7 1.2 9.3 0 18.2-2 26.2-5.5 13.4-3.9 42.2 26.4 51.9 37.2 8.2-20.3-23.2-40.8-11.8-52.1-3.9-5.6-6.5-11-6.8-15.4l-.2.3c0 .1-14.6 8.7-44.1 7.9z"
    />
    <path
            fill="#ffd208"
            d="M168.4 213.2c-21.4-1.8-39.8-6.2-42.9-16.2v-.4c-4.5 3.5-27.5 19.8-70.2 22.6 0 0-32.2 3-52.4-12.8-1.4 4.6-2.3 9.4-2.7 14.1 13.6 19.2 41.4 41.9 81 42.9 29.5.8 44.1-7.9 44.1-7.9l.2-.3v-.5c4-12.9 33.3-16.4 62-17.2 3.6 0 7.5-.1 11.7-.1-3.7-12.5-20.7-20.5-30.8-24.2z"
    />
    <path
            fill="#94c242"
            d="M55.3 219.2c42.7-2.7 65.8-19.1 70.2-22.6.4-17.6 41.3-52.4 41.3-52.4 23-17.2 40.9-15.8 45.7-15 .4.1.8.2 1.3.3h.2c2 .4 4 .7 6 .9h.2a64.33 64.33 0 0 0 12.4 0h.2c2-.2 4.1-.5 6-.9h.2c2-.4 3.9-.9 5.9-1.4.1 0 .2-.1.3-.1 1.9-.6 3.8-1.2 5.6-1.9.2-.1.3-.1.5-.2 1.8-.7 3.5-1.5 5.2-2.4l.6-.3c1.7-.9 3.4-1.9 5-2.9.2-.1.4-.2.6-.4 1.7-1.1 3.3-2.3 4.9-3.6.1-.1.2-.2.3-.2 3.4-2.8 6.5-5.9 9.3-9.3.1-.1.2-.2.2-.3 1.3-1.6 2.5-3.2 3.6-4.9.1-.2.3-.4.4-.6 1-1.6 2-3.2 2.9-4.9l.3-.6c.9-1.7 1.7-3.4 2.4-5.2.1-.2.1-.4.2-.5.7-1.8 1.4-3.6 1.9-5.5 0-.1.1-.3.1-.4.6-1.9 1-3.8 1.4-5.8 0-.1 0-.2.1-.3.4-2 .7-3.9.9-6v-.3a62.28 62.28 0 0 0 0-12.2V59c-.2-2-.5-4-.9-5.9 0-.1 0-.2-.1-.3v-.1c-2.5-4-9.9-8.1-31-1.2-26.4 8.5-33.2 48.5-99.2 49.2-2.2 7-6.1 15.2-12.8 24.2 0 0-38.9 45.7-55.2 41-4.5-2-9.4-3.5-14.4-4.4-1.7-.3-3.5-.6-5.2-.8-19-2.1-38.8 4.1-53.4 18.7-7.8 7.8-13.2 17.1-16.2 27 19.9 15.8 52.1 12.8 52.1 12.8z"
    />
    <path
            fill="#007aa2"
            d="M290.4 52.7c-.4-1.9-.8-3.8-1.4-5.7 0-.1-.1-.3-.1-.4-.6-1.9-1.2-3.7-1.9-5.5-.1-.2-.2-.4-.2-.6-.7-1.8-1.5-3.5-2.4-5.1-.1-.2-.2-.5-.4-.7-.9-1.7-1.8-3.3-2.9-4.9-.1-.2-.3-.4-.4-.7-1.1-1.6-2.3-3.2-3.5-4.8-.1-.1-.2-.3-.3-.4-1.4-1.7-2.8-3.3-4.4-4.8-1.3-1.3-2.7-2.6-4.2-3.8-.2-.1-.3-.3-.5-.4l-.2-.2c-.1-.1-.3-.2-.4-.3-1.5-1.2-3.1-2.4-4.8-3.5-.2-.2-.5-.3-.7-.4-.9-.6-1.8-1.1-2.7-1.7-42.6 6.4-47.9 41.8-47.9 41.8-10.8 33.8-38.8 36.5-48.3 36.4-.2 3.7-.9 8.3-2.6 13.6 66-.8 72.8-40.7 99.2-49.2 21.1-6.8 28.5-2.7 31 1.3z"
    />
    <path
            fill="#ea5297"
            d="M211.1 50.6s5.3-35.5 47.9-41.8l-2.1-1.2c-.2-.1-.5-.2-.7-.4-1.7-.9-3.4-1.7-5.1-2.4-.2-.1-.4-.2-.6-.2-1.8-.7-3.6-1.3-5.4-1.9-.2 0-.3-.1-.5-.1-1.9-.5-3.8-1-5.7-1.4-.1 0-.3 0-.4-.1-1.9-.4-3.9-.7-5.9-.8h-.3a60.263 60.263 0 0 0-12 0h-.3c-2 .2-3.9.5-5.9.8-.1 0-.3 0-.4.1-1.9.4-3.8.8-5.7 1.4-.2 0-.3.1-.5.1-1.8.6-3.7 1.2-5.4 1.9-.2.1-.4.2-.6.2-1.7.7-3.4 1.5-5.1 2.4-.2.1-.5.2-.7.4-1.7.9-3.3 1.8-4.8 2.9-.2.1-.5.3-.7.4-1.6 1.1-3.2 2.3-4.8 3.5-.1.1-.3.2-.4.3-2.7 2.2-5.1 4.6-7.4 7.1l-1.8 2.1c-.1.1-.2.3-.3.4-1.2 1.5-2.4 3.1-3.5 4.8-.1.2-.3.4-.4.7-1 1.6-2 3.2-2.9 4.9-.1.2-.2.5-.4.7-.9 1.7-1.7 3.4-2.4 5.1-.1.2-.2.4-.2.6-.7 1.8-1.4 3.6-1.9 5.5 0 .1-.1.3-.1.4-.5 1.9-1 3.8-1.4 5.7 0 .1 0 .2-.1.3-.4 1.9-.7 3.9-.9 5.9v.3c-.2 2-.3 4-.3 6.1 0 2.1.1 4.1.3 6.1v.3c.2 2 .5 4 .9 5.9v.3c.1.3.1.7.2 1 .3 1.4.6 4.2.4 8.1 9.6.1 37.5-2.6 48.3-36.4z"
    />
    <path
            fill="#ffd208"
            d="M374.3 218.1c14.7 8.2 23.6 29.5 46.9 28.5 23.1-1 29.2-14.9 30.7-23.7-1.4-34.9-30.1-62.7-65.3-62.7-12.8 0-24.8 3.7-34.8 10.1 4.3 2.8 18.4 14.5 22.5 47.8z"
    />
    <path
            fill="#94c242"
            d="M447.6 249c.5-1.3 1-2.7 1.4-4.1.2-.5.3-1.1.5-1.6.4-1.6.8-3.1 1.2-4.7.1-.4.1-.8.2-1.1.3-1.7.6-3.5.8-5.3v-.6c.2-1.9.3-3.8.3-5.8v-.1c0-.9 0-1.8-.1-2.7-1.5 8.7-7.6 22.7-30.7 23.7-23.3 1-32.2-20.3-46.9-28.5-6.7-3.7-14.5-4.7-25.5.4-20.4 9.5-23.1 24-21.8 34.4.3.4.5.7.7 1.1.1.2.2.3.2.5.7 1.4 1.4 2.7 2.2 4.1.2.4.5.8.7 1.3.9 1.5 1.9 3 3 4.4.2.2.4.5.5.7 1.1 1.5 2.3 2.9 3.5 4.3.2.2.3.4.5.6.6.7 1.2 1.4 1.9 2.1.7.7 1.5 1.3 2.2 2l.1.1c24.8 22.6 62.8 22.6 87.7.1.1-.1.2-.2.3-.2.7-.7 1.5-1.3 2.2-2 .7-.7 1.2-1.4 1.9-2.1.2-.2.5-.5.7-.8 1.2-1.3 2.3-2.7 3.4-4.1.2-.3.5-.6.7-1 1-1.4 1.9-2.7 2.8-4.2.3-.5.6-1.1.9-1.6.7-1.2 1.4-2.5 2-3.8.5-1 .9-2 1.4-3 .5-.8.8-1.7 1.1-2.5z"
    />
    <path
            fill="#017aa0"
            d="M683.8 279.4v62.3H523.4V109.6h158.8V172h-82.6v25.2h73.9v57h-73.9v25.2h84.2zm259.3-53.7c0 68.3-49.7 116-122.7 116H721V109.6h99.5c72.9 0 122.6 47.1 122.6 116.1zm-78.9 0c0-28.5-18.9-46.4-49.1-46.4h-16.6v92.8h16.6c30.2 0 49.1-17.9 49.1-46.4zm326.9 0c0 68.3-49.7 116-122.7 116H969V109.6h99.5c72.9 0 122.6 47.1 122.6 116.1zm-78.9 0c0-28.5-18.9-46.4-49.1-46.4h-16.6v92.8h16.6c30.2 0 49.1-17.9 49.1-46.4zm105.5-116.1h78.9v232.1h-78.9V109.6zm277.8 169.8v62.3H1335V109.6h158.8V172h-82.6v25.2h73.9v57h-73.9v25.2h84.3zm105.8-121.1v5h-29.9v-52.2h29.1v5h-23.9v17.8h21.9v4.9h-21.9v19.5h24.7zm13.4-14.4v-32.8h5.3v32.5c0 9.1 6.2 15.4 14.9 15.4s14.9-6.3 14.9-15.4v-32.5h5.3v32.8c0 11.8-8.6 20.2-20.2 20.2s-20.2-8.4-20.2-20.2zm76-1.7h-13.2v21.1h-5.2v-52.2h19.5c9.6 0 16.6 6.5 16.6 15.6 0 7.5-4.9 13.3-12.2 15l12.8 21.6h-5.9l-12.4-21.1zm-13.2-5h14c6.9 0 11.6-4.4 11.6-10.6 0-6.1-4.7-10.6-11.6-10.6h-14v21.2zm41.9 0c0-15.4 11.4-27 27.2-27 15.8 0 27.2 11.6 27.2 27s-11.4 26.9-27.2 26.9c-15.8.1-27.2-11.5-27.2-26.9zm49 0c0-12.5-9.2-21.9-21.9-21.9-12.6 0-21.9 9.4-21.9 21.9 0 12.4 9.2 21.8 21.9 21.8s21.9-9.3 21.9-21.8zm54.9-9.7c0 9.4-7.3 16.4-17 16.4h-13.1v19.4h-5.2v-52.2h18.4c9.6 0 16.9 7 16.9 16.4zm-5.3 0c0-6.5-5-11.3-12-11.3h-12.9v22.6h12.9c7 0 12-4.8 12-11.3zm48 30.8v5h-29.9v-52.2h29.1v5h-23.9v17.8h21.9v4.9h-21.9v19.5h24.7zm45.5-8.3h-26.3l-5.5 13.3h-5.6l21.6-52.2h4.8l22.2 52.2h-5.7l-5.5-13.3zm-24.3-4.8h22.3l-11.3-26.8-11 26.8zm88.4-34.1v52.2h-4.4l-31.4-43v43h-5.1v-52.2h4.7l31.1 42.7v-42.7h5.1zm84 26.1c0 15.1-11.1 26.1-26.5 26.1h-16.8v-52.2h16.8c15.4 0 26.5 11 26.5 26.1zm-5.3 0c0-12.2-8.9-21.2-21.3-21.2h-11.4v42.4h11.4c12.4 0 21.3-9 21.3-21.2zm19.5-26.1h5.2v52.2h-5.2v-52.2zm19.2 36.4h5.3c0 7 5.6 11.4 13.6 11.4 7.2 0 12.7-4 12.7-10.1 0-6.8-6.6-8.3-13.7-9.9-8.1-1.9-16.9-3.9-16.9-14.1 0-8.8 6.9-14.3 17.5-14.3 10.5 0 17.1 5.9 17.1 15.2h-5.2c0-6.3-5-10.1-12-10.1-7.1 0-12.1 3.5-12.1 9.1 0 6.4 6.4 7.9 13.5 9.5 8.2 1.9 17.3 4.1 17.3 14.7 0 9.5-7.7 15.2-18 15.2-11.5-.1-19.1-6.6-19.1-16.6zm82.1-31.5h-16.3v47.3h-5.2V116h-16.3v-4.9h37.7v4.9zm30.4 26.2h-13.2v21.1h-5.2v-52.2h19.5c9.6 0 16.6 6.5 16.6 15.6 0 7.5-4.9 13.3-12.2 15l12.8 21.6h-5.9l-12.4-21.1zm-13.2-5h14c6.9 0 11.6-4.4 11.6-10.6 0-6.1-4.7-10.6-11.6-10.6h-14v21.2zm45.6-26.1h5.2v52.2h-5.2v-52.2zm59.2 37.9c0 8-6.6 14.3-15.6 14.3h-20.6v-52.2h20.4c8.4 0 14.4 5.7 14.4 13.1 0 4.9-2.8 9.7-7 11.9 5.1 1.9 8.4 7 8.4 12.9zm-31-32.8v17.4h15.4c5 0 8.9-4 8.9-8.7 0-4.9-4-8.7-9-8.7h-15.3zm25.6 32.2c0-5.5-4.4-9.7-10-9.7h-15.6v19.4h15.5c5.8 0 10.1-4.1 10.1-9.7zm19.7-4.5v-32.8h5.3v32.5c0 9.1 6.2 15.4 14.9 15.4s14.9-6.3 14.9-15.4v-32.5h5.3v32.8c0 11.8-8.6 20.2-20.2 20.2-11.7 0-20.2-8.4-20.2-20.2zm89.4-27.9h-16.3v47.3h-5.2V116H2363v-4.9h37.7v4.9zm41.9 42.3v5h-29.9v-52.2h29.1v5H2418v17.8h21.9v4.9H2418v19.5h24.7zm57.3-21.1c0 15.1-11.1 26.1-26.5 26.1h-16.8v-52.2h16.8c15.4 0 26.5 11 26.5 26.1zm-5.3 0c0-12.2-8.9-21.2-21.3-21.2H2462v42.4h11.4c12.4 0 21.3-9 21.3-21.2zm-880 88.5c0 15.1-11.1 26.1-26.5 26.1h-16.8v-52.2h16.8c15.4 0 26.5 10.9 26.5 26.1zm-5.4 0c0-12.2-8.9-21.2-21.3-21.2h-11.4v42.4h11.4c12.5 0 21.3-9 21.3-21.2zm49.1 12.7h-26.3l-5.5 13.3h-5.6l21.6-52.2h4.8l22.2 52.2h-5.7l-5.5-13.3zm-24.3-4.8h22.3l-11.3-26.8-11 26.8zm74.6-29.1h-16.3v47.3h-5.2v-47.3h-16.3v-4.9h37.7v4.9zm38.5 33.9H1721l-5.5 13.3h-5.6l21.6-52.2h4.8l22.2 52.2h-5.7l-5.6-13.3zm-24.3-4.8h22.3l-11.3-26.8-11 26.8zm68.2-34h5.2v52.2h-5.2v-52.2zm64 0v52.2h-4.4l-31.4-43v43h-5.1v-52.2h4.7l31.1 42.7v-42.7h5.1zm23 4.9v18.9h21.7v4.9h-21.7v23.5h-5.2v-52.2h28.8v5h-23.6zm54.9 26.1h-13.2v21.1h-5.2v-52.2h19.5c9.6 0 16.6 6.5 16.6 15.6 0 7.5-4.9 13.3-12.2 15l12.8 21.6h-5.9l-12.4-21.1zm-13.2-4.9h14c6.9 0 11.6-4.4 11.6-10.6 0-6.1-4.7-10.6-11.6-10.6h-14v21.2zm76.5 12.7H1970l-5.5 13.3h-5.6l21.6-52.2h4.8l22.2 52.2h-5.7l-5.5-13.3zm-24.3-4.8h22.3l-11.3-26.8-11 26.8zm41.9 2.3h5.3c0 7 5.6 11.4 13.6 11.4 7.2 0 12.7-4 12.7-10.1 0-6.8-6.6-8.3-13.7-9.9-8.1-1.9-16.9-3.9-16.9-14.1 0-8.8 6.9-14.3 17.5-14.3 10.5 0 17.1 5.9 17.1 15.2h-5.2c0-6.3-5-10.1-12-10.1-7.1 0-12.1 3.5-12.1 9.1 0 6.4 6.4 7.9 13.5 9.5 8.2 1.9 17.3 4.1 17.3 14.7 0 9.5-7.7 15.2-18 15.2-11.5-.1-19.1-6.5-19.1-16.6zm82-31.4h-16.3v47.3h-5.2v-47.3h-16.3v-4.9h37.7v4.9zm30.5 26.1h-13.2v21.1h-5.2v-52.2h19.5c9.6 0 16.6 6.5 16.6 15.6 0 7.5-4.9 13.3-12.2 15l12.8 21.6h-5.9l-12.4-21.1zm-13.2-4.9h14c6.9 0 11.6-4.4 11.6-10.6 0-6.1-4.7-10.6-11.6-10.6h-14v21.2zm44.9 6.7v-32.8h5.3V232c0 9.1 6.2 15.4 14.9 15.4s14.9-6.3 14.9-15.4v-32.5h5.3v32.8c0 11.8-8.6 20.2-20.2 20.2-11.6.1-20.2-8.3-20.2-20.1zm53.9-6.7c0-15.6 11.2-26.9 26.7-26.9 11.9 0 21.3 6.9 24.5 17.8h-5.4c-3-7.9-10.1-12.7-19.2-12.7-12.4 0-21.4 9.1-21.4 21.8 0 12.7 8.9 21.8 21.4 21.8 9.3 0 16.5-5.1 19.5-13.5h5.3c-3.2 11.5-12.7 18.6-24.8 18.6-15.4 0-26.6-11.3-26.6-26.9zm95.5-21.2h-16.3v47.3h-5.2v-47.3h-16.3v-4.9h37.7v4.9zm11.3 27.9v-32.8h5.3V232c0 9.1 6.2 15.4 14.9 15.4s14.9-6.3 14.9-15.4v-32.5h5.3v32.8c0 11.8-8.6 20.2-20.2 20.2-11.6.1-20.2-8.3-20.2-20.1zm76-1.8h-13.2v21.1h-5.2v-52.2h19.5c9.6 0 16.6 6.5 16.6 15.6 0 7.5-4.9 13.3-12.2 15l12.8 21.6h-5.9l-12.4-21.1zm-13.2-4.9h14c6.9 0 11.6-4.4 11.6-10.6 0-6.1-4.7-10.6-11.6-10.6h-14v21.2zm75.5 21.1v5h-29.9v-52.2h29.1v5h-23.9v17.8h21.9v4.9h-21.9v19.5h24.7zM1576.7 293v18.9h21.7v4.9h-21.7v23.5h-5.2V288h28.8v5h-23.6zm32.2 21.2c0-15.4 11.4-27 27.2-27 15.8 0 27.2 11.6 27.2 27s-11.4 26.9-27.2 26.9c-15.7 0-27.2-11.6-27.2-26.9zm49.1 0c0-12.5-9.2-21.9-21.9-21.9-12.6 0-21.9 9.4-21.9 21.9 0 12.4 9.2 21.8 21.9 21.8s21.9-9.4 21.9-21.8zm37.9 4.9h-13.2v21.1h-5.2V288h19.5c9.6 0 16.6 6.5 16.6 15.6 0 7.5-4.9 13.3-12.2 15l12.8 21.6h-5.9l-12.4-21.1zm-13.2-5h14c6.9 0 11.6-4.4 11.6-10.6 0-6.1-4.7-10.6-11.6-10.6h-14v21.2zm98.5 21.1v5h-29.9V288h29.1v5h-23.9v17.8h21.9v4.9h-21.9v19.5h24.7zm54.9-47.2v52.2h-4.4l-31.4-43v43h-5.1V288h4.7l31.1 42.7V288h5.1zm47.8 47.2v5H1854V288h29.1v5h-23.9v17.8h21.9v4.9h-21.9v19.5h24.7zm32.4-16.1h-13.2v21.1h-5.2V288h19.5c9.6 0 16.6 6.5 16.6 15.6 0 7.5-4.9 13.3-12.2 15l12.8 21.6h-5.9l-12.4-21.1zm-13.2-5h14c6.9 0 11.6-4.4 11.6-10.6 0-6.1-4.7-10.6-11.6-10.6h-14v21.2zm94.2.7c-.4 15.4-11 26.3-26 26.3-15.3 0-26.3-11.4-26.3-26.9 0-15.5 11.1-26.9 26.2-26.9 12.4 0 22.9 7.8 25.2 18.8h-5.4c-2.2-8.1-10.3-13.7-19.7-13.7-12.2 0-21 9.1-21 21.8 0 12.8 8.6 21.8 21 21.8 10.6 0 18.6-6.5 20.3-16.2h-22.4v-5h28.1zm30.5 4.7v20.7h-5.4v-20.7L2003 288h5.7l16.4 26.5 16.5-26.5h5.7l-19.5 31.5z"
    />
</svg>