<svg width="20" height="20" viewBox="0 0 20 20" fill="none" xmlns="http://www.w3.org/2000/svg">
<path d="M10 1C5.0293 1 1 5.0293 1 10C1 14.9707 5.0293 19 10 19C14.9707 19 19 14.9707 19 10C19 5.0293 14.9707 1 10 1Z" stroke="currentColor" stroke-width="1.5" stroke-linecap="round" stroke-linejoin="round"/>
<path d="M3.04297 15.712C3.04297 15.712 5.04907 13.1506 9.99907 13.1506C14.9491 13.1506 16.9561 15.712 16.9561 15.712M9.99907 10.0006C10.7152 10.0006 11.4019 9.71612 11.9083 9.20978C12.4146 8.70343 12.6991 8.01667 12.6991 7.30059C12.6991 6.5845 12.4146 5.89775 11.9083 5.3914C11.4019 4.88505 10.7152 4.60059 9.99907 4.60059C9.28298 4.60059 8.59623 4.88505 8.08988 5.3914C7.58353 5.89775 7.29907 6.5845 7.29907 7.30059C7.29907 8.01667 7.58353 8.70343 8.08988 9.20978C8.59623 9.71612 9.28298 10.0006 9.99907 10.0006Z" stroke="currentColor" stroke-width="1.5" stroke-linecap="round" stroke-linejoin="round"/>
</svg>
