<svg xmlns="http://www.w3.org/2000/svg" width="17" height="18" fill="none"><path stroke="currentColor" stroke-linecap="round" stroke-linejoin="round" stroke-width="1.5" d="M7.322 3.085 6.932 1m.39 2.085a4.791 4.791 0 0 1 5.413 3.888l.296 1.587c.395 2.104 2.138 2.322 2.333 3.374.099.526.198 1.05-.278 1.14L3.692 15.208c-.475.09-.574-.438-.672-.963-.197-1.052 1.35-1.886.958-3.99-.197-1.05.195 1.042-.296-1.587a4.791 4.791 0 0 1 3.64-5.582h0ZM1 7.042c.128-1.684.738-3.105 1.872-4.357m2.374 12.231a3.115 3.115 0 0 0 6.036-.697l.08-.448-6.116 1.145Z"/></svg>