<svg xmlns="http://www.w3.org/2000/svg" width="19" height="16" fill="none"><path fill="currentColor" d="M6.076 13.416a9.296 9.296 0 0 0 3.285.591c3.765 0 6.72-2.18 8.684-5.012.423-.591.42-1.385.002-1.988a13.354 13.354 0 0 0-2.69-2.876l-1.075 1.075a11.7 11.7 0 0 1 2.535 2.66.225.225 0 0 1-.002.268c-1.71 2.472-4.286 4.373-7.454 4.373-.707 0-1.41-.096-2.09-.285l-1.195 1.194Zm5.379-9.626a7.798 7.798 0 0 0-2.092-.285c-3.167 0-5.742 1.9-7.464 4.387a.225.225 0 0 0 .008.255 11.701 11.701 0 0 0 2.535 2.659l-1.076 1.076A13.351 13.351 0 0 1 .677 9.005a1.71 1.71 0 0 1 0-1.98c1.962-2.837 4.92-5.02 8.684-5.02a9.296 9.296 0 0 1 3.29.59L11.454 3.79Zm-2.87 7.115a3.003 3.003 0 0 0 3.675-3.676l-1.837 1.838-1.837 1.838Zm-.283-3.96 1.837-1.838a3.003 3.003 0 0 0-3.674 3.676l1.837-1.838Zm8.36-5.277a.681.681 0 0 0-.87-1.042l-.094.078-13.634 13.64a.683.683 0 0 0 .869 1.042l.094-.078 13.634-13.64h.001Z"/></svg>