<svg xmlns="http://www.w3.org/2000/svg" width="20" height="20" fill="none"><path fill="currentColor" d="M5 4.286a.714.714 0 1 0 0-1.429.714.714 0 0 0 0 1.429Z"/><path fill="currentColor" d="M17.857 14.386v-2.957A1.429 1.429 0 0 0 16.43 10h-5.715V7.143h6.429a1.429 1.429 0 0 0 1.428-1.429V1.43A1.429 1.429 0 0 0 17.143 0H2.857A1.429 1.429 0 0 0 1.43 1.429v4.285a1.429 1.429 0 0 0 1.428 1.429h6.429V10H3.57a1.429 1.429 0 0 0-1.428 1.429v2.957a2.857 2.857 0 1 0 1.428 0v-2.957h5.715v2.857H7.143V20h5.714v-5.714h-2.143v-2.857h5.715v2.957a2.857 2.857 0 1 0 1.428 0ZM4.286 17.143a1.428 1.428 0 1 1-2.857 0 1.428 1.428 0 0 1 2.857 0Zm7.143-1.429v2.857H8.57v-2.857h2.858Zm-8.572-10V1.43h14.286v4.285H2.857Zm14.286 12.857a1.429 1.429 0 1 1 0-2.858 1.429 1.429 0 0 1 0 2.858Z"/></svg>