<svg xmlns="http://www.w3.org/2000/svg" width="22" height="19" fill="none"><path fill="currentColor" d="M13.5 19c-.55 0-1.02-.196-1.412-.587A1.93 1.93 0 0 1 11.5 17c0-.383.092-.725.275-1.025.183-.3.425-.542.725-.725V9.725c-.3-.183-.542-.42-.725-.712A1.862 1.862 0 0 1 11.5 8c0-.55.196-1.02.588-1.412A1.93 1.93 0 0 1 13.5 6c.55 0 1.02.195 1.413.588.393.393.588.863.587 1.412 0 .383-.092.721-.275 1.013-.183.292-.425.53-.725.712V12.6l4-1.325v-1.55c-.3-.183-.542-.42-.725-.712A1.862 1.862 0 0 1 17.5 8c0-.55.196-1.02.588-1.412A1.93 1.93 0 0 1 19.5 6c.55 0 1.02.195 1.413.588.393.393.588.863.587 1.412 0 .383-.092.721-.275 1.013-.183.292-.425.53-.725.712v1.525c0 .433-.125.825-.375 1.175-.25.35-.583.592-1 .725L14.5 14.7v.55c.3.183.542.425.725.725.183.3.275.642.275 1.025 0 .55-.196 1.021-.587 1.413A1.92 1.92 0 0 1 13.5 19Zm-11-3c-.55 0-1.02-.196-1.412-.587A1.93 1.93 0 0 1 .5 14V2c0-.55.196-1.02.588-1.412A1.93 1.93 0 0 1 2.5 0h5.175a1.978 1.978 0 0 1 1.4.575L10.5 2h9c.283 0 .521.096.713.288.192.192.288.43.287.712 0 .283-.097.52-.288.713A.957.957 0 0 1 19.5 4H9.675l-2-2H2.5v12h6c.283 0 .521.096.713.288.192.192.288.43.287.712 0 .283-.097.52-.288.713A.957.957 0 0 1 8.5 16h-6Z"/></svg>