<svg width="11" height="16" viewBox="0 0 11 16" fill="none" xmlns="http://www.w3.org/2000/svg">
<path d="M6.67881 1.00144L5.5315 6.93763L9.68783 6.9514L4.03031 14.9988L5.17762 8.46804L1.02155 8.45377L6.67881 1.00144ZM6.67958 3.1295e-05C6.65213 3.1295e-05 6.62469 0.00101707 6.59774 0.00300427C6.41826 0.0172902 6.29926 0.0763741 6.15818 0.169757C6.07874 0.221914 6.00712 0.284781 5.9454 0.356522C5.92687 0.378058 5.90939 0.400448 5.89301 0.423617L0.195068 7.84991C-0.0299209 8.15359 -0.0629702 8.55443 0.109903 8.8894C0.282522 9.22438 0.631572 9.43668 1.01418 9.43943L3.94946 9.46046L3.02663 14.8148C2.93892 15.275 3.18806 15.7336 3.6266 15.9184C3.75404 15.9723 3.89132 16.0001 4.03004 16C4.3496 16 4.61221 15.8528 4.80925 15.5869L10.5143 7.53947C10.7393 7.23577 10.7721 6.83445 10.5995 6.49998C10.4269 6.165 10.0778 5.95269 9.6952 5.94995L6.75992 5.94494L7.67284 1.23701C7.69218 1.15993 7.70192 1.08082 7.70184 1.00142C7.70184 0.459653 7.26379 0.0180256 6.71568 0.000500711C6.7035 0 6.69153 0 6.6796 0L6.67958 3.1295e-05Z" fill="currentColor"/>
</svg>
