<svg xmlns="http://www.w3.org/2000/svg" width="40" height="41" fill="none"><path d="M8 1h24a7.5 7.5 0 0 1 7.5 7.5v24A7.5 7.5 0 0 1 32 40H8a7.5 7.5 0 0 1-7.5-7.5v-24A7.5 7.5 0 0 1 8 1Z"/><path stroke="#000" d="M8 1h24a7.5 7.5 0 0 1 7.5 7.5v24A7.5 7.5 0 0 1 32 40H8a7.5 7.5 0 0 1-7.5-7.5v-24A7.5 7.5 0 0 1 8 1Z"/><path fill="#000" fill-rule="evenodd" d="M21.028 10.521c2.315.143 4.486 1.282 6.078 2.848C28.987 15.362 30 17.782 30 20.63c0 2.278-.868 4.414-2.316 6.265-1.447 1.708-3.473 2.99-5.788 3.416-2.316.428-4.631.143-6.657-.996-2.026-1.14-3.618-2.848-4.486-4.983-.869-2.136-1.013-4.556-.29-6.692.724-2.278 2.026-4.129 4.052-5.41 1.882-1.282 4.197-1.851 6.513-1.709Zm.723 18.367c1.881-.427 3.618-1.424 4.92-2.99 1.158-1.566 1.882-3.417 1.737-5.41 0-2.278-.868-4.556-2.46-6.122-1.447-1.424-3.184-2.278-5.21-2.42-1.881-.143-3.907.284-5.5 1.423a8.615 8.615 0 0 0-3.327 4.698c-.58 1.851-.58 3.844.289 5.695.868 1.851 2.17 3.275 3.907 4.271a7.866 7.866 0 0 0 5.644.855Zm-1.736-9.112 3.473-3.56 1.013.997-3.473 3.56 3.473 3.559-1.013.996-3.473-3.559-3.474 3.56-1.013-.997 3.474-3.56-3.474-3.559 1.013-.997 3.474 3.56Z" clip-rule="evenodd"/></svg>
