<svg xmlns="http://www.w3.org/2000/svg" width="19" height="12" fill="none"><path fill="currentColor" fill-rule="evenodd" d="M9.361 10.667c-3.236 0-5.964-1.838-7.684-4.667 1.72-2.83 4.448-4.667 7.684-4.667 3.237 0 5.964 1.838 7.685 4.667-1.72 2.83-4.448 4.667-7.685 4.667ZM9.361 0C5.531 0 2.35 2.275.453 5.647a.722.722 0 0 0 0 .706C2.349 9.725 5.53 12 9.36 12c3.83 0 7.013-2.275 8.91-5.647a.722.722 0 0 0 0-.706C16.373 2.275 13.19 0 9.36 0Z" clip-rule="evenodd"/><circle cx="9.361" cy="6" r="3" fill="currentColor"/></svg>