<svg width="20" height="22" viewBox="0 0 20 22" fill="none" xmlns="http://www.w3.org/2000/svg">
<path d="M6.50084 8H5.73384C4.63884 8 4.09084 8 3.67084 8.334C3.25084 8.668 3.05984 9.256 2.67484 10.434L1.85884 12.934C1.10684 15.235 0.731845 16.386 1.21884 17.193C1.70584 18 2.77684 18 4.91684 18H15.0848C17.2248 18 18.2948 18 18.7818 17.193C19.2688 16.386 18.8928 15.235 18.1418 12.933L17.3258 10.433C16.9408 9.256 16.7488 8.668 16.3298 8.333C15.9098 8 15.3628 8 14.2678 8H13.0008M10.0008 10.5V18V21M18.0008 13H2.00084M10.0008 21H12.0008M10.0008 21H8.00084M10.5008 1L8.00084 4.5H12.0008L9.50084 8" stroke="currentColor" stroke-linecap="round" stroke-linejoin="round"/>
</svg>
