<svg xmlns="http://www.w3.org/2000/svg" width="40" height="41" fill="none"><path d="M8 1h24a7.5 7.5 0 0 1 7.5 7.5v24A7.5 7.5 0 0 1 32 40H8a7.5 7.5 0 0 1-7.5-7.5v-24A7.5 7.5 0 0 1 8 1Z"/><path stroke="#000" d="M8 1h24a7.5 7.5 0 0 1 7.5 7.5v24A7.5 7.5 0 0 1 32 40H8a7.5 7.5 0 0 1-7.5-7.5v-24A7.5 7.5 0 0 1 8 1Z"/><path stroke="#000" stroke-linecap="round" stroke-linejoin="round" stroke-width="1.5" d="M19.23 18.962H20v6.923h.77M30 20.5a10 10 0 1 1-20 0 10 10 0 0 1 20 0Z"/><path fill="#000" stroke="#000" d="M20.769 15.5a.77.77 0 1 1-1.538 0 .77.77 0 0 1 1.538 0Z"/></svg>
