<svg width="22" height="19" viewBox="0 0 22 19" fill="none" xmlns="http://www.w3.org/2000/svg">
<path d="M13.7656 7.8042C13.8333 7.80422 13.8998 7.81958 13.96 7.84912L14.0176 7.8833C14.1104 7.95036 14.1728 8.05154 14.1914 8.16455C14.2053 8.24923 14.1939 8.33547 14.1592 8.4126L14.1162 8.48682L11.9961 11.8569C11.9104 11.9757 11.8062 12.0798 11.6875 12.1655C11.4006 12.3657 11.0459 12.4447 10.7012 12.3853C10.3566 12.3258 10.0489 12.1327 9.8457 11.8481C9.64258 11.5636 9.55967 11.2099 9.61523 10.8647C9.67083 10.5198 9.85973 10.2098 10.1416 10.0034L10.1426 10.0044L13.5127 7.88428L13.5137 7.8833C13.5876 7.83187 13.6756 7.8042 13.7656 7.8042Z" fill="currentColor" stroke="#017AA0" stroke-width="0.03125"/>
<path d="M11 1C5.47768 1 1.00001 5.47321 1.00001 10.9955C0.996622 13.4388 1.8911 15.7981 3.5134 17.625C3.56251 17.6786 3.60715 17.7321 3.65626 17.7812C3.7619 17.8956 3.89014 17.9868 4.03286 18.049C4.17558 18.1113 4.32967 18.1432 4.48536 18.1427C4.64106 18.1423 4.79497 18.1096 4.93735 18.0466C5.07973 17.9836 5.20748 17.8917 5.31251 17.7768C6.03639 16.9901 6.9156 16.3621 7.89456 15.9326C8.87353 15.5031 9.93095 15.2813 11 15.2813C12.069 15.2813 13.1265 15.5031 14.1054 15.9326C15.0844 16.3621 15.9636 16.9901 16.6875 17.7768C16.7925 17.8917 16.9203 17.9836 17.0626 18.0466C17.205 18.1096 17.3589 18.1423 17.5146 18.1427C17.6703 18.1432 17.8244 18.1113 17.9671 18.049C18.1099 17.9868 18.2381 17.8956 18.3437 17.7812L18.4866 17.625C20.1089 15.7981 21.0034 13.4388 21 10.9955C21 5.47321 16.5223 1 11 1Z" stroke="currentColor" stroke-linecap="round" stroke-linejoin="round"/>
<path d="M11.0003 3.85706V5.28563M18.1431 10.9999H16.7146M5.28599 10.9999H3.85742M6.95965 6.95928L5.94938 5.94902M15.0409 6.95928L16.0512 5.94902" stroke="currentColor" stroke-miterlimit="10" stroke-linecap="round"/>
</svg>
