<svg xmlns="http://www.w3.org/2000/svg" width="17" height="18" fill="none"><path stroke="currentColor" stroke-linecap="round" stroke-linejoin="round" stroke-width="1.5" d="M7.188 1a1.826 1.826 0 0 0-.647 1.126.886.886 0 0 1-.177.372.886.886 0 0 1-.32.266l-.7.337a4.52 4.52 0 0 0-1.462 1.143C2.64 5.724 2.64 6.39 2.64 8.915c0 1.144-1.214 2.18-1.533 3.209-.195.612-.302 1.994 1.311 1.994h12.037a1.418 1.418 0 0 0 1.214-.594c.132-.193.213-.415.24-.647.02-.236-.02-.474-.116-.691-.319-.966-1.586-2.118-1.586-3.262V7.036"/><path stroke="currentColor" stroke-linecap="round" stroke-linejoin="round" stroke-width="1.5" d="M11.318 14.119c.003.378-.066.754-.204 1.108-.148.35-.362.668-.629.94a2.837 2.837 0 0 1-2.065.832 2.838 2.838 0 0 1-1.117-.221 2.925 2.925 0 0 1-1.569-1.57 2.837 2.837 0 0 1-.204-1.09"/><path stroke="currentColor" stroke-width="1.5" d="M11.318 5.432a2.216 2.216 0 1 0 0-4.432 2.216 2.216 0 0 0 0 4.432Z"/></svg>