<svg xmlns="http://www.w3.org/2000/svg" width="32" height="32" fill="none"><path fill="#fff" d="M8 .5h16A7.5 7.5 0 0 1 31.5 8v16a7.5 7.5 0 0 1-7.5 7.5H8A7.5 7.5 0 0 1 .5 24V8A7.5 7.5 0 0 1 8 .5Z"/><path stroke="#EDEDED" d="M8 .5h16A7.5 7.5 0 0 1 31.5 8v16a7.5 7.5 0 0 1-7.5 7.5H8A7.5 7.5 0 0 1 .5 24V8A7.5 7.5 0 0 1 8 .5Z"/><path stroke="#017AA0" stroke-linecap="round" stroke-linejoin="round" d="M14 8.5H7a1 1 0 0 0-1 1v13a1 1 0 0 0 1 1h18a1 1 0 0 0 1-1v-1.25"/><path stroke="#017AA0" stroke-linecap="round" d="M9 15h4m-4 4h12"/><path stroke="#017AA0" stroke-linecap="round" stroke-linejoin="round" d="M21 14.5a3 3 0 1 0 0-6 3 3 0 0 0 0 6ZM26 17.71c-.976-1.909-3-3.21-5-3.21s-2.996.566-4.025 1.5"/></svg>