<svg xmlns="http://www.w3.org/2000/svg" width="23" height="18" fill="none"><path stroke="currentColor" stroke-linejoin="round" stroke-width="2" d="M8.463 15a2.001 2.001 0 0 0-1.998-2 1.997 1.997 0 0 0-1.998 2 2 2 0 0 0 1.998 2 1.997 1.997 0 0 0 1.998-2Zm9.492 0a2 2 0 0 0-1.998-2 1.997 1.997 0 0 0-1.998 2 2.001 2.001 0 0 0 1.998 2 1.997 1.997 0 0 0 1.998-2Z"/><path stroke="currentColor" stroke-linecap="round" stroke-width="2" d="M1.47 15h2.997m3.997 0h5.495m3.997 0h3.497"/><path stroke="currentColor" stroke-linecap="round" stroke-linejoin="round" stroke-width="2" d="m18.455 7 2.998-3m0 0-2.998-3m2.998 3H1.47"/></svg>