<svg xmlns="http://www.w3.org/2000/svg" width="22" height="17" fill="none"><path stroke="currentColor" stroke-linecap="round" stroke-linejoin="round" stroke-width="2" d="M9 1H2a1 1 0 0 0-1 1v13a1 1 0 0 0 1 1h18a1 1 0 0 0 1-1v-1.25"/><path stroke="currentColor" stroke-linecap="round" stroke-width="2" d="M4 7.5h4m-4 4h12"/><path stroke="currentColor" stroke-linecap="round" stroke-linejoin="round" stroke-width="2" d="M16 7a3 3 0 1 0 0-6 3 3 0 0 0 0 6ZM21 10.21C20.023 8.3 18 7 16 7s-2.996.566-4.025 1.5"/></svg>