<svg xmlns="http://www.w3.org/2000/svg" width="40" height="41" fill="none"><path d="M8 1h24a7.5 7.5 0 0 1 7.5 7.5v24A7.5 7.5 0 0 1 32 40H8a7.5 7.5 0 0 1-7.5-7.5v-24A7.5 7.5 0 0 1 8 1Z"/><path stroke="#000" d="M8 1h24a7.5 7.5 0 0 1 7.5 7.5v24A7.5 7.5 0 0 1 32 40H8a7.5 7.5 0 0 1-7.5-7.5v-24A7.5 7.5 0 0 1 8 1Z"/><path stroke="#000" stroke-linecap="round" stroke-linejoin="round" stroke-width="1.5" d="M28 18.722v8.445c0 .736-.597 1.333-1.333 1.333H13.333A1.333 1.333 0 0 1 12 27.167V13.833c0-.736.597-1.333 1.333-1.333h9.334"/><path stroke="#000" stroke-linecap="round" stroke-linejoin="round" stroke-width="1.5" d="m16.444 18.722 4.445 3.556 6.666-9.333"/></svg>
