<svg xmlns="http://www.w3.org/2000/svg" width="40" height="41" fill="none"><path d="M8 1h24a7.5 7.5 0 0 1 7.5 7.5v24A7.5 7.5 0 0 1 32 40H8a7.5 7.5 0 0 1-7.5-7.5v-24A7.5 7.5 0 0 1 8 1Z"/><path stroke="#000" d="M8 1h24a7.5 7.5 0 0 1 7.5 7.5v24A7.5 7.5 0 0 1 32 40H8a7.5 7.5 0 0 1-7.5-7.5v-24A7.5 7.5 0 0 1 8 1Z"/><path fill="#000" d="M27.68 30.486H12.32c-.8 0-1.527-.4-1.941-1.085a2.292 2.292 0 0 1-.1-2.227l7.68-15.403A2.261 2.261 0 0 1 20 10.5c.871 0 1.656.485 2.042 1.27l7.68 15.418a2.292 2.292 0 0 1-.1 2.227 2.245 2.245 0 0 1-1.941 1.085v-.014ZM20 11.928a.853.853 0 0 0-.77.47l-7.68 15.418a.815.815 0 0 0 .042.843.85.85 0 0 0 .728.413h15.36a.82.82 0 0 0 .729-.413.881.881 0 0 0 .042-.843L20.771 12.4a.842.842 0 0 0-.77-.471Z"/><path fill="#000" d="M20 25.66a.885.885 0 1 0 0-1.77.885.885 0 0 0 0 1.77ZM20 22.092a.707.707 0 0 1-.713-.714v-4.282c0-.4.314-.714.714-.714.4 0 .714.314.714.713v4.283c0 .4-.314.714-.714.714Z"/></svg>