<svg width="20" height="15" viewBox="0 0 20 15" fill="none" xmlns="http://www.w3.org/2000/svg">
<path d="M10 9.45369C9.55579 9.45369 9.18176 9.30141 8.8779 8.99685C8.57404 8.69229 8.42175 8.31825 8.42105 7.87474C8.42105 7.59264 8.48421 7.30492 8.61053 7.01159C8.73684 6.71825 8.96246 6.32422 9.28737 5.82948L9.63369 5.31369C9.72491 5.18246 9.84386 5.11685 9.99053 5.11685C10.1358 5.11685 10.2544 5.18246 10.3463 5.31369L10.6926 5.82948C11.0393 6.35018 11.2737 6.75018 11.3958 7.02948C11.5179 7.30878 11.5789 7.59053 11.5789 7.87474C11.5789 8.31825 11.4267 8.69229 11.1221 8.99685C10.8182 9.30141 10.4442 9.45369 10 9.45369ZM1.05263 12.3884H6.58316C6.08281 12.0768 5.63088 11.6983 5.22737 11.2526C4.82456 10.8077 4.5 10.3091 4.25368 9.75685H1.05263V12.3884ZM10 12.3884C11.4561 12.3884 12.6975 11.8751 13.7242 10.8484C14.7509 9.82176 15.2639 8.58071 15.2632 7.12527C15.2625 5.66983 14.7491 4.42878 13.7232 3.40211C12.6972 2.37545 11.4561 1.86211 10 1.86211C8.54386 1.86211 7.30281 2.37545 6.27684 3.40211C5.25088 4.42878 4.73754 5.66983 4.73684 7.12527C4.73614 8.58071 5.24947 9.82211 6.27684 10.8495C7.30421 11.8769 8.54526 12.3898 10 12.3884ZM15.7474 4.49369H18.9474V1.86211H13.4168C13.9179 2.17369 14.3698 2.55229 14.7726 2.9979C15.1754 3.44282 15.5003 3.94141 15.7474 4.49369ZM1.05263 13.4411V13.7253C1.05263 13.874 1.00211 13.999 0.901053 14.1C0.8 14.2011 0.674737 14.2512 0.525263 14.2505C0.37579 14.2498 0.250877 14.1997 0.150526 14.1C0.0501753 14.0004 0 13.8751 0 13.7242V8.42106C0 8.27159 0.0505264 8.14667 0.151579 8.04632C0.252632 7.94597 0.377895 7.89545 0.527368 7.89474C0.676842 7.89404 0.801755 7.94457 0.902105 8.04632C1.00246 8.14808 1.05263 8.27299 1.05263 8.42106V8.70422H3.90526C3.82947 8.44808 3.77368 8.18948 3.7379 7.92843C3.70211 7.66738 3.68421 7.39966 3.68421 7.12527C3.68421 5.36597 4.29719 3.87369 5.52316 2.64843C6.74842 1.42246 8.2407 0.809481 10 0.809481H18.9474V0.52527C18.9474 0.376499 18.9979 0.251937 19.0989 0.151586C19.2 0.0512353 19.3253 0.000708964 19.4747 7.2098e-06C19.6242 -0.000694545 19.7491 0.0498318 19.8495 0.151586C19.9498 0.253341 20 0.378253 20 0.526323V5.82948C20 5.97895 19.9495 6.10387 19.8484 6.20422C19.7474 6.30457 19.6221 6.35509 19.4726 6.3558C19.3232 6.3565 19.1982 6.30597 19.0979 6.20422C18.9975 6.10246 18.9474 5.97755 18.9474 5.82948V5.54632H16.0947C16.1705 5.80316 16.2263 6.06211 16.2621 6.32316C16.2979 6.58422 16.3158 6.85159 16.3158 7.12527C16.3158 8.88457 15.7028 10.3772 14.4768 11.6032C13.2516 12.8284 11.7593 13.4411 10 13.4411H1.05263Z" fill="currentColor"/>
</svg>
