<?xml version="1.0" encoding="UTF-8"?>
<svg id="Layer_1" data-name="Layer 1" xmlns="http://www.w3.org/2000/svg" version="1.1" viewBox="0 0 1549.48 1497.92">
  <defs>
    <style>
      .cls-1 {
        fill: #ea5297;
      }

      .cls-1, .cls-2, .cls-3, .cls-4, .cls-5 {
        stroke-width: 0px;
      }

      .cls-2 {
        fill: #007aa2;
      }

      .cls-3 {
        fill: #1da7e0;
      }

      .cls-4 {
        fill: #94c242;
      }

      .cls-5 {
        fill: #ffd208;
      }
    </style>
  </defs>
  <path class="cls-1" d="M237.25,1085.3c-102.39,87.33-132.52,183.53-135.77,266.4,96.69,59.17,223.66,31.77,286.99-63.42,47.79-71.83,45.94-162.16,2.68-230.67-3.24-9.65-1.65-24.25,3.52-42.34-10.04,8.97-24.83,21.64-44.09,36.72-28.95,22.66-57.87,26-113.33,33.31Z"/>
  <path class="cls-3" d="M237.25,1085.3c-19.07,2.52-41.24,5.5-67.69,9.91-72.62,12.1-127.64,36.75-169.39,67.05-2.84,71.44,30.53,142.6,94.41,185.09,2.28,1.51,4.59,2.93,6.9,4.34,3.25-82.87,33.38-179.07,135.77-266.4Z"/>
  <path class="cls-2" d="M774.77,115.1c-118.22,0-214.06,95.84-214.06,214.06,0,51.03,17.89,97.87,47.7,134.66-8.7,41.1-38.28,95.79-70.75,147.59-18.4,28.32-41.93,63.87-67.88,101.42-2.46,3.55-4.85,6.99-7.13,10.27-20.19,29-41.63,58.86-63.08,87.21-63.43,83.84-126.95,154.47-158.41,150.38l.04.18c-78.08-10.8-159.1,22.57-205.68,92.59C13.16,1087.05,1.66,1124.69.17,1162.26c41.74-30.3,96.76-54.95,169.39-67.05,26.45-4.41,48.62-7.39,67.69-9.91,55.46-7.32,84.38-10.65,113.33-33.31,19.26-15.08,34.05-27.75,44.09-36.72,17.42-60.91,75.97-161.76,131.82-249.69,2.15-3.37,4.4-6.9,6.72-10.54,1.23-1.92,2.44-3.79,3.66-5.69,23.28-36.23,45.59-69.59,63.65-96.11,14.98-21.24,30.64-42.22,46.36-61.16,6.37-208.18,101.35-376.34,194.96-466.2-21.11-6.96-43.64-10.78-67.07-10.78Z"/>
  <path class="cls-3" d="M866.59,135.76c-7.99-3.8-16.26-7.08-24.75-9.89-93.62,89.86-188.59,258.02-194.96,466.2,20.51-24.72,41.11-45.98,60.37-59.78,21.23,7.05,43.92,10.93,67.52,10.93,17.67,0,34.79-2.27,51.21-6.31-9.89-38.4-17.7-83.15-20.99-134.41,0,0,1.9-167.2,61.6-266.74Z"/>
  <path class="cls-3" d="M785.9,869.02c11.97,25.64,13.06,45.81,7.93,63.11,65.67-7,114.99-17.32,149.44-26.61-31.94-58.43-93.42-98.59-164.76-99.98-15.43-.3-30.46,1.28-44.91,4.44,18.95,9.55,37.56,27.43,52.31,59.04Z"/>
  <path class="cls-5" d="M1331.54,959.02c-10.02.28-20.04,1.26-30,2.97-44.35-3.08-140.32-126.28-217.93-236.86-2.29-3.28-4.69-6.71-7.16-10.25-26.09-37.45-49.76-72.91-68.26-101.16-32.14-50.84-61.5-104.51-70.87-145.34,32.09-37.43,51.52-86.04,51.52-139.22,0-85.36-49.97-159.02-122.24-193.4-59.7,99.54-61.6,266.74-61.6,266.74,3.29,51.26,11.1,96.01,20.99,134.41,3.59-.89,7.2-1.76,10.72-2.82,34.51,23.9,73.53,72.09,108.77,121.69,19.12,27.84,42.94,63.2,67.69,101.55,2.33,3.64,4.6,7.16,6.76,10.52,40.7,63.54,82.71,133.76,109.57,190.83.78.73,1.35,1.23,1.47,1.22,2.66-.24,29.54-10.17,46.97,6.05,187.11,174.12,183.58,350.19,173.88,416.38,35.94-2.39,71.75-13.91,103.82-35.42,29.03-19.47,51.66-44.9,67.45-73.54-49.65-78.97-163.09-128.41-191.53-314.36Z"/>
  <path class="cls-1" d="M1535.42,1094.9c-5.58-14.51-12.8-28.64-21.83-42.1-28.42-42.37-69.49-71.06-114.8-84.69-21.75-6.55-44.46-9.72-67.26-9.09,28.44,185.95,141.88,235.39,191.53,314.36,29.78-53.99,35.07-119.46,12.35-178.47Z"/>
  <path class="cls-2" d="M1177.91,965.95c-17.43-16.22-44.31-6.29-46.97-6.05-.12.01-.69-.49-1.47-1.22.77,1.65,1.66,3.39,2.41,5.01-9.61,3.14-20.14,4.67-30.59,5.22-11.34.12-25.64-.08-40.93-1.11-1.45-.11-2.85-.21-4.19-.3-19.08-1.46-39.31-4.31-57.02-9.47-19.66-5.73-36.2-14.33-44.4-27.21-1.48-4.01-3.07-7.97-4.81-11.85-.1-.47-.28-.89-.35-1.37l-.11.29c-1.92-4.21-4-8.33-6.21-12.38-34.44,9.29-83.77,19.61-149.44,26.61-16.58,55.92-98.93,81.47-95.42,161.86,3.13,71.54,46.06,90.49,73.24,95.29,82.06,1.34,152.98-49.06,181.56-121.17,5.68-7.38,14.31-13.08,24.68-17.5,21.4-9.12,50.35-12.69,76.93-13.68,1.34-.04,2.75-.09,4.2-.14,15.32-.43,29.62-.07,40.95.49,21.4,1.98,43.08,7.88,55.72,23.69-.35.85-.68,1.72-1.12,2.48l.18.03c-39.88,67.99-40.08,155.61,6.76,225.46,43.7,65.16,117.26,98.25,190.29,93.4,9.7-66.19,13.23-242.26-173.88-416.38Z"/>
  <path class="cls-4" d="M698.41,1093.99c-3.52-80.38,78.84-105.94,95.42-161.86,5.13-17.3,4.04-37.47-7.93-63.11-14.75-31.61-33.35-49.48-52.31-59.04-84.74,18.55-148.94,93.17-150.7,183.71-2.06,105.97,82.18,193.55,188.15,195.61.21,0,.41-.02.61-.01-27.19-4.81-70.11-23.75-73.24-95.29Z"/>
</svg>