<?xml version="1.0" encoding="utf-8"?>
<!-- Generator: Adobe Illustrator 27.1.1, SVG Export Plug-In . SVG Version: 6.00 Build 0)  -->
<svg height="120" version="1.1" id="Layer_1" xmlns="http://www.w3.org/2000/svg" x="0px" y="0px"
     viewBox="0 0 2500 451.4" style="enable-background:new 0 0 2500 451.4;" xml:space="preserve">
<style type="text/css">
	.st0{fill:#017AA0;}
	.st1{fill:#1DA7E0;}
	.st2{fill:#FFD208;}
	.st3{fill:#EA5297;}
	.st4{fill:#007AA2;}
	.st5{fill:#94C242;}
</style>
<g>
	<path class="st1" d="M348.9,218.4c10.9-5.1,18.8-4.1,25.5-0.4c-4.2-33.3-18.3-44.9-22.5-47.8c-10.8,6.9-19.5,16.8-24.8,28.6
		c-8.4,10.8-56.4,14.2-98.1,15.1c-1.2,0-2.5,0-3.9,0.1c-14.1,0.2-27.2,0.2-37.6,0.1c-6.4-0.2-12.9-0.5-19.1-1
		c10.1,3.7,27.1,11.7,30.8,24.2c7.9,0,16.7,0,25.9,0.2c1.3,0,2.6,0.1,3.9,0.1c41.7,0.9,89.9,4.3,98.1,15.2
		C325.8,242.5,328.5,228,348.9,218.4z"/>
	<path class="st2" d="M208.3,350.1c28.4,33.4,61,33.3,83.1,29.6c0,0,0,0,0-0.1c-0.2-2-0.5-3.9-0.8-5.9c0-0.1,0-0.3-0.1-0.4
		c-0.4-1.9-0.8-3.8-1.4-5.7c0-0.2-0.1-0.3-0.1-0.5c-0.6-1.8-1.2-3.7-1.9-5.4c-0.1-0.2-0.2-0.4-0.2-0.6c-0.7-1.7-1.5-3.4-2.4-5.1
		c-0.1-0.2-0.2-0.5-0.4-0.7c-0.9-1.7-1.8-3.3-2.9-4.8c-0.1-0.2-0.3-0.5-0.4-0.7c-1.1-1.6-2.3-3.2-3.5-4.8c-0.1-0.1-0.2-0.3-0.3-0.4
		c-2.2-2.7-4.6-5.1-7.1-7.4c-0.7-0.6-1.4-1.2-2.1-1.8c-0.1-0.1-0.3-0.2-0.4-0.3c-1.5-1.2-3.1-2.4-4.8-3.5c-0.2-0.1-0.4-0.3-0.7-0.4
		c-1.6-1-3.2-2-4.9-2.9c-0.2-0.1-0.5-0.2-0.7-0.4c-1.7-0.9-3.4-1.7-5.1-2.4c-0.2-0.1-0.4-0.2-0.6-0.2c-1.8-0.7-3.6-1.4-5.5-1.9
		c-0.1,0-0.3-0.1-0.4-0.1c-1.9-0.5-3.8-1-5.7-1.4c-0.1,0-0.2,0-0.3-0.1c-1.9-0.4-3.9-0.7-5.9-0.9c-0.1,0-0.2,0-0.3,0
		c-2-0.2-4-0.3-6.1-0.3c-2.1,0-4.1,0.1-6.1,0.3c-0.1,0-0.2,0-0.3,0c-2,0.2-4,0.5-5.9,0.9c-0.1,0-0.1,0-0.2,0l0,0l0,0
		c0,0-0.1,0-0.1,0c-0.3,0.1-0.7,0.1-1,0.2c-2.1,0.4-7,0.9-13.9-0.3c0.6,0.7,1.2,1.5,1.8,2.3C205.8,330.8,206.6,337.4,208.3,350.1z"
		/>
	<path class="st3" d="M208.3,350.1c0.6,4.4,1.3,9.5,2.3,15.5c8.5,50.8,43.6,64.1,60.9,67.6c0.4-0.3,0.7-0.7,1.1-1
		c1.3-1.3,2.6-2.7,3.8-4.2c0.1-0.2,0.3-0.3,0.4-0.5c0.1-0.1,0.1-0.1,0.2-0.2c0.1-0.1,0.2-0.3,0.3-0.4c1.2-1.5,2.4-3.1,3.5-4.8
		c0.2-0.2,0.3-0.5,0.4-0.7c1-1.6,2-3.2,2.9-4.8c0.1-0.2,0.2-0.5,0.4-0.7c0.9-1.7,1.7-3.4,2.4-5.1c0.1-0.2,0.2-0.4,0.2-0.6
		c0.7-1.8,1.3-3.6,1.9-5.4c0-0.2,0.1-0.3,0.1-0.5c0.5-1.9,1-3.8,1.4-5.7c0-0.1,0-0.3,0.1-0.4c0.4-1.9,0.7-3.9,0.8-5.9
		c0-0.1,0-0.2,0-0.3c0.2-2,0.3-4,0.3-6c0,0,0,0,0,0c0-2-0.1-4-0.3-6c0-0.1,0-0.2,0-0.3C269.3,383.4,236.7,383.5,208.3,350.1z"/>
	<path class="st4" d="M144.1,322.7c2.1,2.3,3.3,3.7,3.3,3.7c17.2,23,15.8,40.9,15,45.7c-0.1,0.4-0.2,0.8-0.3,1.2
		c0,0.1,0,0.2-0.1,0.3c-0.4,2-0.7,3.9-0.9,5.9c0,0.1,0,0.2,0,0.3c-0.2,2-0.3,4-0.3,6.1s0.1,4.1,0.3,6.1c0,0.1,0,0.2,0,0.3
		c0.2,2,0.5,4,0.9,5.9c0,0.1,0,0.2,0.1,0.3c0.4,2,0.9,3.9,1.4,5.8c0,0.1,0.1,0.3,0.1,0.4c0.6,1.9,1.2,3.7,1.9,5.5
		c0.1,0.2,0.1,0.4,0.2,0.6c0.7,1.8,1.5,3.5,2.4,5.2c0.1,0.2,0.2,0.5,0.3,0.7c0.9,1.7,1.9,3.3,2.9,4.9c0.1,0.2,0.3,0.4,0.4,0.6
		c1.1,1.7,2.3,3.3,3.5,4.8c0.1,0.1,0.2,0.2,0.3,0.4c2.8,3.4,5.9,6.5,9.2,9.2c0.1,0.1,0.2,0.2,0.4,0.3c1.5,1.2,3.2,2.4,4.8,3.5
		c0.2,0.1,0.4,0.3,0.6,0.4c1.6,1,3.2,2,4.9,2.9c0.2,0.1,0.4,0.2,0.7,0.3c1.7,0.9,3.4,1.7,5.2,2.4c0.2,0.1,0.4,0.1,0.6,0.2
		c1.8,0.7,3.6,1.4,5.5,1.9c0.1,0,0.3,0.1,0.4,0.1c1.9,0.6,3.8,1,5.8,1.4c0.1,0,0.2,0,0.3,0.1c2,0.4,3.9,0.7,5.9,0.9
		c0.1,0,0.2,0,0.3,0c2,0.2,4,0.3,6.1,0.3c2,0,4.1-0.1,6.1-0.3c0.1,0,0.2,0,0.3,0c2-0.2,4-0.5,5.9-0.9c0.1,0,0.2,0,0.3-0.1
		c2-0.4,3.9-0.9,5.8-1.4c0.1,0,0.3-0.1,0.4-0.1c1.9-0.6,3.7-1.2,5.5-1.9c0.2-0.1,0.4-0.2,0.6-0.2c1.8-0.7,3.5-1.5,5.1-2.4
		c0.2-0.1,0.5-0.2,0.7-0.4c1.7-0.9,3.3-1.8,4.9-2.9c0.2-0.1,0.4-0.3,0.7-0.4c1.6-1.1,3.2-2.3,4.8-3.5c0.1-0.1,0.3-0.2,0.4-0.3
		c1.3-1.1,2.5-2.2,3.8-3.3c-17.3-3.5-52.4-16.8-60.9-67.6c-1-6.1-1.7-11.2-2.3-15.5c-1.7-12.7-2.4-19.3-7.6-26
		c-0.6-0.8-1.2-1
		.6-1.8-2.3c-8.2-1.4-19.4-5.2-32-14.7c0,0-22.7-19.4-34.5-36.5C120.9,281.9,152.3,302.5,144.1,322.7z"/>
	<path class="st3" d="M81.2,263.3c-39.6-1-67.4-23.6-81-42.9c-1.4,18.4,4.9,37.2,18.9,51.3c8.5,8.5,18.9,14.2,29.8,17
		c1,0.3,1.9,0.5,2.9,0.7c0.5,0.1,1,0.2,1.5,0.3c4.1,0.8,8.3,1.2,12.7,1.2c9.3,0,18.2-2,26.2-5.5l0,0c13.4-3.9,42.2,26.4,51.9,37.2
		c8.2-20.3-23.2-40.8-11.8-52.1c-3.9-5.6-6.5-11-6.8-15.4l-0.2,0.3C125.3,255.5,110.7,264.1,81.2,263.3z"/>
	<path class="st2" d="M168.4,213.2c-21.4-1.8-39.8-6.2-42.9-16.2c0-0.1,0-0.3,0-0.4c-4.5,3.5-27.5,19.8-70.2,22.6
		c0,0-32.2,3-52.4-12.8c-1.4,4.6-2.3,9.4-2.7,14.1c13.6,19.2,41.4,41.9,81,42.9c29.5,0.8,44.1-7.9,44.1-7.9l0.2-0.3
		c0-0.1,0-0.3,0-0.5c4-12.9,33.3-16.4,62-17.2c3.6,0,7.5-0.1,11.7-0.1C195.5,224.9,178.5,216.9,168.4,213.2z"/>
	<path class="st5" d="M55.3,219.2c42.7-2.7,65.8-19.1,70.2-22.6c0.4-17.6,41.3-52.4,41.3-52.4c23-17.2,40.9-15.8,45.7-15
		c0.4,0.1,0.8,0.2,1.3,0.3c0.1,0,0.1,0,0.2,0c2,0.4,4,0.7,6,0.9c0.1,0,0.1,0,0.2,0c2,0.2,4.1,0.3,6.2,0.3c2.1,0,4.1-0.1,6.2-0.3
		c0.1,0,0.1,0,0.2,0c2-0.2,4.1-0.5,6-0.9c0.1,0,0.1,0,0.2,0c2-0.4,3.9-0.9,5.9-1.4c0.1,0,0.2-0.1,0.3-0.1c1.9-0.6,3.8-1.2,5.6-1.9
		c0.2-0.1,0.3-0.1,0.5-0.2c1.8-0.7,3.5-1.5,5.2-2.4c0.2-0.1,0.4-0.2,0.6-0.3c1.7-0.9,3.4-1.9,5-2.9c0.2-0.1,0.4-0.2,0.6-0.4
		c1.7-1.1,3.3-2.3,4.9-3.6c0.1-0.1,0.2-0.2,0.3-0.2c3.4-2.8,6.5-5.9,9.3-9.3c0.1-0.1,0.2-0.2,0.2-0.3c1.3-1.6,2.5-3.2,3.6-4.9
		c0.1-0.2,0.3-0.4,0.4-0.6c1-1.6,2-3.2,2.9-4.9c0.1-0.2,0.2-0.4,0.3-0.6c0.9-1.7,1.7-3.4,2.4-5.2c0.1-0.2,0.1-0.4,0.2-0.5
		c0.7-1.8,1.4-3.6,1.9-5.5c0-0.1,0.1-0.3,0.1-0.4c0.6-1.9,1-3.8,1.4-5.8c0-0.1,0-0.2,0.1-0.3c0.4-2,0.7-3.9,0.9-6c0-0.1,0-0.2,0-0.3
		c0.2-2,0.3-4,0.3-6.1c0-2-0.1-4.1-0.3-6.1c0-0.1,0-0.2,0-0.3c-0.2-2-0.5-4-0.9-5.9c0-0.1,0-0.2-0.1-0.3c0,0,0,0,0-0.1
		c-2.5-4-9.9-8.1-31-1.2c-26.4,8.5-33.2,48.5-99.2,49.2c-2.2,7-6.1,15.2-12.8,24.2c0,0-38.9,45.7-55.2,41l0,0
		c-4.5-2-9.4-3.5-14.4-4.4c0,0,0,0,0,0c-1.7-0.3-3.5-0.6-5.2-0.8c-19-2.1-38.8,4.1-53.4,18.7c-7.8,7.8-13.2,17.1-16.2,27
		C23.1,222.2,55.3,219.2,55.3,219.2z"/>
	<path class="st4" d="M290.4,52.7c-0.4-1.9-0.8-3.8-1.4-5.7c0-0.1-0.1-0.3-0.1-0.4c-0.6-1.9-1.2-3.7-1.9-5.5
		c-0.1-0.2-0.2-0.4-0.2-0.6c-0.7-1.8-1.5-3.5-2.4-5.1c-0.1-0.2-0.2-0.5-0.4-0.7c-0.9-1.7-1.8-3.3-2.9-4.9c-0.1-0.2-0.3-0.4-0.4-0.7
		c-1.1-1.6-2.3-3.2-3.5-4.8c-0.1-0.1-0.2-0.3-0.3-0.4c-1.4-1.7-2.8-3.3-4.4-4.8c-1.3-1.3-2.7-2.6-4.2-3.8c-0.2-0.1-0.3-0.3-0.5-0.4
		c-0.1-0.1-0.1-0.1-0.2-0.2c-0.1-0.1-0.3-0.2-0.4-0.3c-1.5-1.2-3.1-2.4-4.8-3.5c-0.2-0.2-0.5-0.3-0.7-0.4c-0.9-0.6-1.8-1.1-2.7-1.7
		c-42.6,6.4-47.9,41.8-47.9,41.8c-10.8,33.8-38.8,36.5-48.3,36.4c-0.2,3.7-0.9,8.3-2.6,13.6c66-0.8,72.8-40.7,99.2-49.2
		C280.5,44.6,287.9,48.7,290.4,52.7z"/>
	<path class="st3" d="M211.1,50.6c0,0,5.3-35.5,47.9-41.8c-0.7-0.4-1.4-0.8-2.1-1.2c-0.2-0.1-0.5-0.2-0.7-0.4
		c-1.7-0.9-3.4-1.7-5.1-2.4c-0.2-0.1-0.4-0.2-0.6-0.2c-1.8-0.7-3.6-1.3-5.4-1.9c-0.2,0-0.3-0.1-0.5-0.1c-1.9-0.5-3.8-1-5.7-1.4
		c-0.1,0-0.3,0-0.4-0.1c-1.9-0.4-3.9-0.7-5.9-0.8c-0.1,0-0.2,0-0.3,0c-2-0.2-4-0.3-6-0.3c0,0,0,0,0,0c-2,0-4,0.1-6,0.3
		c-0.1,0-0.2,0-0.3,0c-2,0.2-3.9,0.5-5.9,0.8c-0.1,0-0.3,0-0.4,0.1c-1.9,0.4-3.8,0.8-5.7,1.4c-0.2,0-0.3,0.1-0.5,0.1
		c-1.8,0.6-3.7,1.2-5.4,1.9c-0.2,0.1-0.4,0.2-0.6,0.2c-1.7,0.7-3.4,1.5-5.1,2.4c-0.2,0.1-0.5,0.2-0.7,0.4c-1.7,0.9-3.3,1.8-4.8,2.9
		c-0.2,0.1-0.5,0.3-0.7,0.4c-1.6,1.1-3.2,2.3-4.8,3.5c-0.1,0.1-0.3,0.2-0.4,0.3c-2.7,2.2-5.1,4.6-7.4,7.1c-0.6,0.7-1.2,1.4-1.8,2.1
		c-0.1,0.1-0.2,0.3-0.3,0.4c-1.2,1.5-2.4,3.1-3.5,4.8c-0.1,0.2-0.3,0.4-0.4,0.7c-1,1.6-2,3.2-2.9,4.9c-0.1,0.2-0.2,0.5-0.4,0.7
		c-0.9,1.7-1.7,3.4-2.4,5.1c-0.1,0.2-0.2,0.4-0.2,0.6c-0.7,1.8-1.4,3.6-1.9,5.5c0,0.1-0.1,0.3-0.1,0.4c-0.5,1.9-1,3.8-1.4,5.7
		c0,0.1,0,0.2-0.1,0.3c-0.4,1.9-0.7,3.9-0.9,5.9c0,0.1,0,0.2,0,0.3c-0.2,2-0.3,4-0.3,6.1c0,2.1,0.1,4.1,0.3,6.1c0,0.1,0,0.2,0,0.3
		c0.2,2,0.5,4,0.9,5.9c0,0.1,0,0.1,0,0.2l0,0c0,0,0,0,0,0c0,0,0,0.1,0,0.1c0.1,0.3,0.1,0.7,0.2,1c0.3,1.4,0.6,4.2,0.4,8.1
		C172.4,87.1,200.3,84.4,211.1,50.6z"/>
	<path class="st2" d="M374.3,218.1c14.7,8.2,23.6,29.5,46.9,28.5c23.1-1,29.2-14.9,30.7-23.7c-1.4-34.9-30.1-62.7-65.3-62.7
		c-12.8,0-24.8,3.7-34.8,10.1C356.1,173.1,370.2,184.8,374.3,218.1z"/>
	<path class="st5" d="M447.6,249c0.5-1.3,1-2.7,1.4-4.1c0.2-0.5,0.3-1.1,0.5-1.6c0.4-1.6,0.8-3.1,1.2-4.7c0.1-0.4,0.1-0.8,0.2-1.1
		c0.3-1.7,0.6-3.5,0.8-5.3c0-0.2,0-0.4,0-0.6c0.2-1.9,0.3-3.8,0.3-5.8c0,0,0,0,0,0c0,0,0-0.1,0-0.1c0-0.9,0-1.8-0.1-2.7
		c-1.5,8.7-7.6,22.7-30.7,23.7c-23.3,1-32.2-20.3-46.9-28.5c-6.7-3.7-14.5-4.7-25.5,0.4c-20.4,9.5-23.1,24-21.8,34.4
		c0.3,0.4,0.5,0.7,0.7,1.1l0,0c0.1,0.2,0.2,0.3,0.2,0.5c0.7,1.4,1.4,2.7,2.2,4.1c0.2,0.4,0.5,0.8,0.7,1.3c0.9,1.5,1.9,3,3,4.4
		c0.2,0.2,0.4,0.5,0.5,0.7c1.1,1.5,2.3,2.9,3.5,4.3c0.2,0.2,0.3,0.4,0.5,0.6c0.6,0.7,1.2,1.4,1.9,2.1c0.7,0.7,1.5,1.3,2.2,2
		c0,0,0.1,0.1,0.1,0.1c24.8,22.6,62.8,22.6,87.7,0.1c0.1-0.1,0.2-0.2,0.3-0.2c0.7-0.7,1.5-1.3,2.2-2c0.7-0.7,1.2-1.4,1.9-2.1
		c0.2-0.2,0.5-0.5,0.7-0.8c1.2-1.3,2.3-2.7,3.4-4.1c0.2-0.3,0.5-0.6,0.7-1c1-1.4,1.9-2.7,2.8-4.2c0.3-0.5,0.6-1.1,0.9-1.6
		c0.7-1.2,1.4-2.5,2-3.8c0.5-1,0.9-2,1.4-3C447,250.7,447.3,249.8,447.6,249z"/>
</g>
<g>
	<path class="st0" d="M683.8,279.4v62.3H523.4V109.6h158.8V172h-82.6v25.2h73.9v57h-73.9v25.2H683.8z"/>
	<path class="st0" d="M943.1,225.7c0,68.3-49.7,116-122.7,116H721V109.6h99.5C893.4,109.6,943.1,156.7,943.1,225.7z M864.2,225.7
		c0-28.5-18.9-46.4-49.1-46.4h-16.6v92.8h16.6C845.3,272.1,864.2,254.2,864.2,225.7z"/>
	<path class="st0" d="M1191.1,225.7c0,68.3-49.7,116-122.7,116H969V109.6h99.5C1141.4,109.6,1191.1,156.7,1191.1,225.7z
		 M1112.2,225.7c0-28.5-18.9-46.4-49.1-46.4h-16.6v92.8h16.6C1093.3,272.1,1112.2,254.2,1112.2,225.7z"/>
	<path class="st0" d="M1217.7,109.6h78.9v232.1h-78.9V109.6z"/>
	<path class="st0" d="M1495.5,279.4v62.3h-160.5V109.6h158.8V172h-82.6v25.2h73.9v57h-73.9v25.2H1495.5z"/>
</g>
<g>
	<g>
		<path class="st0" d="M1601.3,158.3v5h-29.9v-52.2h29.1v5h-23.9v17.8h21.9v4.9h-21.9v19.5H1601.3z"/>
		<path class="st0" d="M1614.7,143.9v-32.8h5.3v32.5c0,9.1,6.2,15.4,14.9,15.4c8.7,0,14.9-6.3,14.9-15.4v-32.5h5.3v32.8
			c0,11.8-8.6,20.2-20.2,20.2C1623.3,164.1,1614.7,155.7,1614.7,143.9z"/>
		<path class="st0" d="M1690.7,142.2h-13.2v21.1h-5.2v-52.2h19.5c9.6,0,16.6,6.5,16.6,15.6c0,7.5-4.9,13.3-12.2,15l12.8,21.6h-5.9
			L1690.7,142.2z M1677.5,137.2h14c6.9,0,11.6-4.4,11.6-10.6c0-6.1-4.7-10.6-11.6-10.6h-14V137.2z"/>
		<path class="st0" d="M1719.4,137.2c0-15.4,11.4-27,27.2-27c15.8,0,27.2,11.6,27.2,27c0,15.4-11.4,26.9-27.2,26.9
			C1730.8,164.2,1719.4,152.6,1719.4,137.2z M1768.4,137.2c0-12.5-9.2-21.9-21.9-21.9c-12.6,0-21.9,9.4-21.9,21.9
			c0,12.4,9.2,21.8,21.9,21.8C1759.2,159,1768.4,149.7,1768.4,137.2z"/>
		<path class="st0" d="M1823.3,127.5c0,9.4-7.3,16.4-17,16.4h-13.1v19.4h-5.2v-52.2h18.4C1816,111.1,1823.3,118.1,1823.3,127.5z
			 M1818,127.5c0-6.5-5-11.3-12-11.3h-12.9v22.6h12.9C1813,138.8,1818,134,1818,127.5z"/>
		<path class="st0" d="M1866,158.3v5h-29.9v-52.2h29.1v5h-23.9v17.8h21.9v4.9h-21.9v19.5H1866z"/>
		<path class="st0" d="M1911.5,150h-26.3l-5.5,13.3h-5.6l21.6-52.2h4.8l22.2,52.2h-5.7L1911.5,150z M1887.2,145.2h22.3l-11.3-26.8
			L1887.2,145.2z"/>
		<path class="st0" d="M1975.6,111.1v52.2h-4.4l-31.4-43v43h-5.1v-52.2h4.7l31.1,42.7v-42.7H1975.6z"/>
		<path class="st0" d="M2059.6,137.2c0,15.1-11.1,26.1-26.5,26.1h-16.8v-52.2h16.8C2048.5,111.1,2059.6,122.1,2059.6,137.2z
			 M2054.3,137.2c0-12.2-8.9-21.2-21.3-21.2h-11.4v42.4h11.4C2045.4,158.4,2054.3,149.4,2054.3,137.2z"/>
		<path class="st0" d="M2073.8,111.1h5.2v52.2h-5.2V111.1z"/>
		<path class="st0" d="M2093,147.5h5.3c0,7,5.6,11.4,13.6,11.4c7.2,0,12.7-4,12.7-10.1c0-6.8-6.6-8.3-13.7-9.9
			c-8.1-1.9-16.9-3.9-16.9-14.1c0-8.8,6.9-14.3,17.5-14.3c10.5,0,17.1,5.9,17.1,15.2h-5.2c0-6.3-5-10.1-12-10.1
			c-7.1,0-12.1,3.5-12.1,9.1c0,6.4,6.4,7.9,13.5,9.5c8.2,1.9,17.3,4.1,17.3,14.7c0,9.5-7.7,15.2-18,15.2
			C2100.6,164,2093,157.5,2093,147.5z"/>
		<path class="st0" d="M2175.1,116h-16.3v47.3h-5.2V116h-16.3v-4.9h37.7V116z"/>
		<path class="st0" d="M2205.5,142.2h-13.2v21.1h-5.2v-52.2h19.5c9.6,0,16.6,6.5,16.6,15.6c0,7.5-4.9,13.3-12.2,15l12.8,21.6h-5.9
			L2205.5,142.2z M2192.3,137.2h14c6.9,0,11.6-4.4,11.6-10.6c0-6.1-4.7-10.6-11.6-10.6h-14V137.2z"/>
		<path class="st0" d="M2237.9,111.1h5.2v52.2h-5.2V111.1z"/>
		<path class="st0" d="M2297.1,149c0,8-6.6,14.3-15.6,14.3h-20.6v-52.2h20.4c8.4,0,14.4,5.7,14.4,13.1c0,4.9-2.8,9.7-7,11.9
			C2293.8,138,2297.1,143.1,2297.1,149z M2266.1,116.2v17.4h15.4c5,0,8.9-4,8.9-8.7c0-4.9-4-8.7-9-8.7H2266.1z M2291.7,148.4
			c0-5.5-4.4-9.7-10-9.7h-15.6v19.4h15.5C2287.4,158.1,2291.7,154,2291.7,148.4z"/>
		<path class="st0" d="M2311.4,143.9v-32.8h5.3v32.5c0,9.1,6.2,15.4,14.9,15.4c8.7,0,14.9-6.3,14.9-15.4v-32.5h5.3v32.8
			c0,11.8-8.6,20.2-20.2,20.2C2319.9,164.1,2311.4,155.7,2311.4,143.9z"/>
		<path class="st0" d="M2400.8,116h-16.3v47.3h-5.2V116h-16.3v-4.9h37.7V116z"/>
		<path class="st0" d="M2442.7,158.3v5h-29.9v-52.2h29.1v5h-23.9v17.8h21.9v4.9h-21.9v19.5H2442.7z"/>
		<path class="st0" d="M2500,137.2c0,15.1-11.1,26.1-26.5,26.1h-16.8v-52.2h16.8C2488.9,111.1,2500,122.1,2500,137.2z M2494.7,137.2
			c0-12.2-8.9-21.2-21.3-21.2H2462v42.4h11.4C2485.8,158.4,2494.7,149.4,2494.7,137.2z"/>
	</g>
	<g>
		<path class="st0" d="M1614.7,225.7c0,15.1-11.1,26.1-26.5,26.1h-16.8v-52.2h16.8C1603.6,199.6,1614.7,210.5,1614.7,225.7z
			 M1609.3,225.7c0-12.2-8.9-21.2-21.3-21.2h-11.4v42.4h11.4C1600.5,246.9,1609.3,237.9,1609.3,225.7z"/>
		<path class="st0" d="M1658.4,238.4h-26.3l-5.5,13.3h-5.6l21.6-52.2h4.8l22.2,52.2h-5.7L1658.4,238.4z M1634.1,233.6h22.3
			l-11.3-26.8L1634.1,233.6z"/>
		<path class="st0" d="M1708.7,204.5h-16.3v47.3h-5.2v-47.3h-16.3v-4.9h37.7V204.5z"/>
		<path class="st0" d="M1747.2,238.4H1721l-5.5,13.3h-5.6l21.6-52.2h4.8l22.2,52.2h-5.7L1747.2,238.4z M1722.9,233.6h22.3
			l-11.3-26.8L1722.9,233.6z"/>
		<path class="st0" d="M1791.1,199.6h5.2v52.2h-5.2V199.6z"/>
		<path class="st0" d="M1855.1,199.6v52.2h-4.4l-31.4-43v43h-5.1v-52.2h4.7l31.1,42.7v-42.7H1855.1z"/>
		<path class="st0" d="M1878.1,204.5v18.9h21.7v4.9h-21.7v23.5h-5.2v-52.2h28.8v5H1878.1z"/>
		<path class="st0" d="M1933,230.6h-13.2v21.1h-5.2v-52.2h19.5c9.6,0,16.6,6.5,16.6,15.6c0,7.5-4.9,13.3-12.2,15l12.8,21.6h-5.9
			L1933,230.6z M1919.8,225.7h14c6.9,0,11.6-4.4,11.6-10.6c0-6.1-4.7-10.6-11.6-10.6h-14V225.7z"/>
		<path class="st0" d="M1996.3,238.4H1970l-5.5,13.3h-5.6l21.6-52.2h4.8l22.2,52.2h-5.7L1996.3,238.4z M1972,233.6h22.3l-11.3-26.8
			L1972,233.6z"/>
		<path class="st0" d="M2013.9,235.9h5.3c0,7,5.6,11.4,13.6,11.4c7.2,0,12.7-4,12.7-10.1c0-6.8-6.6-8.3-13.7-9.9
			c-8.1-1.9-16.9-3.9-16.9-14.1c0-8.8,6.9-14.3,17.5-14.3c10.5,0,17.1,5.9,17.1,15.2h-5.2c0-6.3-5-10.1-12-10.1
			c-7.1,0-12.1,3.5-12.1,9.1c0,6.4,6.4,7.9,13.5,9.5c8.2,1.9,17.3,4.1,17.3,14.7c0,9.5-7.7,15.2-18,15.2
			C2021.5,252.4,2013.9,246,2013.9,235.9z"/>
		<path class="st0" d="M2095.9,204.5h-16.3v47.3h-5.2v-47.3h-16.3v-4.9h37.7V204.5z"/>
		<path class="st0" d="M2126.4,230.6h-13.2v21.1h-5.2v-52.2h19.5c9.6,0,16.6,6.5,16.6,15.6c0,7.5-4.9,13.3-12.2,15l12.8,21.6h-5.9
			L2126.4,230.6z M2113.2,225.7h14c6.9,0,11.6-4.4,11.6-10.6c0-6.1-4.7-10.6-11.6-10.6h-14V225.7z"/>
		<path class="st0" d="M2158.1,232.4v-32.8h5.3V232c0,9.1,6.2,15.4,14.9,15.4c8.7,0,14.9-6.3,14.9-15.4v-32.5h5.3v32.8
			c0,11.8-8.6,20.2-20.2,20.2C2166.7,252.6,2158.1,244.2,2158.1,232.4z"/>
		<path class="st0" d="M2212,225.7c0-15.6,11.2-26.9,26.7-26.9c11.9,0,21.3,6.9,24.5,17.8h-5.4c-3-7.9-10.1-12.7-19.2-12.7
			c-12.4,0-21.4,9.1-21.4,21.8c0,12.7,8.9,21.8,21.4,21.8c9.3,0,16.5-5.1,19.5-13.5h5.3c-3.2,11.5-12.7,18.6-24.8,18.6
			C2223.2,252.6,2212,241.3,2212,225.7z"/>
		<path class="st0" d="M2307.5,204.5h-16.3v47.3h-5.2v-47.3h-16.3v-4.9h37.7V204.5z"/>
		<path class="st0" d="M2318.8,232.4v-32.8h5.3V232c0,9.1,6.2,15.4,14.9,15.4c8.7,0,14.9-6.3,14.9-15.4v-32.5h5.3v32.8
			c0,11.8-8.6,20.2-20.2,20.2C2327.4,252.6,2318.8,244.2,2318.8,232.4z"/>
		<path class="st0" d="M2394.8,230.6h-13.2v21.1h-5.2v-52.2h19.5c9.6,0,16.6,6.5,16.6,15.6c0,7.5-4.9,13.3-12.2,15l12.8,21.6h-5.9
			L2394.8,230.6z M2381.6,225.7h14c6.9,0,11.6-4.4,11.6-10.6c0-6.1-4.7-10.6-11.6-10.6h-14V225.7z"/>
		<path class="st0" d="M2457.1,246.8v5h-29.9v-52.2h29.1v5h-23.9v17.8h21.9v4.9h-21.9v19.5H2457.1z"/>
	</g>
	<g>
		<path class="st0" d="M1576.7,293v18.9h21.7v4.9h-21.7v23.5h-5.2V288h28.8v5H1576.7z"/>
		<path class="st0" d="M1608.9,314.2c0-15.4,11.4-27,27.2-27c15.8,0,27.2,11.6,27.2,27c0,15.4-11.4,26.9-27.2,26.9
			C1620.4,341.1,1608.9,329.5,1608.9,314.2z M1658,314.2c0-12.5-9.2-21.9-21.9-21.9c-12.6,0-21.9,9.4-21.9,21.9
			c0,12.4,9.2,21.8,21.9,21.8C1648.8,336,1658,326.6,1658,314.2z"/>
		<path class="st0" d="M1695.9,319.1h-13.2v21.1h-5.2V288h19.5c9.6,0,16.6,6.5,16.6,15.6c0,7.5-4.9,13.3-12.2,15l12.8,21.6h-5.9
			L1695.9,319.1z M1682.7,314.1h14c6.9,0,11.6-4.4,11.6-10.6c0-6.1-4.7-10.6-11.6-10.6h-14V314.1z"/>
		<path class="st0" d="M1781.2,335.2v5h-29.9V288h29.1v5h-23.9v17.8h21.9v4.9h-21.9v19.5H1781.2z"/>
		<path class="st0" d="M1836.1,288v52.2h-4.4l-31.4-43v43h-5.1V288h4.7l31.1,42.7V288H1836.1z"/>
		<path class="st0" d="M1883.9,335.2v5h-29.9V288h29.1v5h-23.9v17.8h21.9v4.9h-21.9v19.5H1883.9z"/>
		<path class="st0" d="M1916.3,319.1h-13.2v21.1h-5.2V288h19.5c9.6,0,16.6,6.5,16.6,15.6c0,7.5-4.9,13.3-12.2,15l12.8,21.6h-5.9
			L1916.3,319.1z M1903.1,314.1h14c6.9,0,11.6-4.4,11.6-10.6c0-6.1-4.7-10.6-11.6-10.6h-14V314.1z"/>
		<path class="st0" d="M1997.3,314.8c-0.4,15.4-11,26.3-26,26.3c-15.3,0-26.3-11.4-26.3-26.9c0-15.5,11.1-26.9,26.2-26.9
			c12.4,0,22.9,7.8,25.2,18.8h-5.4c-2.2-8.1-10.3-13.7-19.7-13.7c-12.2,0-21,9.1-21,21.8c0,12.8,8.6,21.8,21,21.8
			c10.6,0,18.6-6.5,20.3-16.2h-22.4v-5H1997.3z"/>
		<path class="st0" d="M2027.8,319.5v20.7h-5.4v-20.7l-19.4-31.5h5.7l16.4,26.5l16.5-26.5h5.7L2027.8,319.5z"/>
	</g>
</g>
</svg>
