<?xml version="1.0" encoding="utf-8"?>
<!-- Generator: Adobe Illustrator 27.1.1, SVG Export Plug-In . SVG Version: 6.00 Build 0)  -->
<svg version="1.1" id="Layer_1" xmlns="http://www.w3.org/2000/svg" x="0px"
	 y="0px"
	 viewBox="0 0 1216.3 1500" style="enable-background:new 0 0 1216.3 1500;" xml:space="preserve">
<style type="text/css">
	.st0{fill:#017AA0;}
	.st1{fill:#1DA7E0;}
	.st2{fill:#FFD208;}
	.st3{fill:#EA5297;}
	.st4{fill:#007AA2;}
	.st5{fill:#94C242;}
</style>
    <g>
	<g>
		<path class="st0" d="M200.8,1031.7v78H0V819.3h198.7v78H95.4v31.5h92.5v71.3H95.4v31.5H200.8z"/>
        <path class="st0" d="M525.1,964.5c0,85.5-62.2,145.2-153.5,145.2H247.2V819.3h124.4C462.9,819.3,525.1,878.2,525.1,964.5z
			 M426.4,964.5c0-35.7-23.6-58.1-61.4-58.1h-20.7v116.1H365C402.8,1022.5,426.4,1000.1,426.4,964.5z"/>
        <path class="st0" d="M835.4,964.5c0,85.5-62.2,145.2-153.5,145.2H557.5V819.3h124.4C773.2,819.3,835.4,878.2,835.4,964.5z
			 M736.7,964.5c0-35.7-23.6-58.1-61.4-58.1h-20.7v116.1h20.7C713,1022.5,736.7,1000.1,736.7,964.5z"/>
        <path class="st0" d="M868.7,819.3h98.7v290.4h-98.7V819.3z"/>
        <path class="st0" d="M1216.3,1031.7v78h-200.8V819.3h198.7v78h-103.3v31.5h92.5v71.3h-92.5v31.5H1216.3z"/>
	</g>
        <g>
		<path class="st0" d="M39.5,1260.6v6.6H0.3v-68.4h38.1v6.5H7.2v23.4h28.7v6.4H7.2v25.6H39.5z"/>
            <path class="st0" d="M57,1241.8v-43h6.9v42.5c0,12,8.1,20.2,19.6,20.2c11.4,0,19.5-8.2,19.5-20.2v-42.5h6.9v43
			c0,15.5-11.2,26.4-26.4,26.4C68.3,1268.2,57,1257.3,57,1241.8z"/>
            <path class="st0" d="M156.5,1239.5h-17.3v27.7h-6.8v-68.4H158c12.5,0,21.8,8.5,21.8,20.4c0,9.8-6.5,17.4-15.9,19.6l16.8,28.3h-7.7
			L156.5,1239.5z M139.2,1233h18.4c9,0,15.1-5.8,15.1-13.8c0-8-6.2-13.8-15.1-13.8h-18.4V1233z"/>
            <path class="st0" d="M194.1,1233c0-20.2,15-35.3,35.6-35.3c20.6,0,35.6,15.1,35.6,35.3c0,20.2-15,35.3-35.6,35.3
			C209.1,1268.3,194.1,1253.2,194.1,1233z M258.3,1233c0-16.4-12.1-28.6-28.6-28.6c-16.5,0-28.6,12.4-28.6,28.6
			c0,16.2,12.1,28.6,28.6,28.6C246.2,1261.6,258.3,1249.4,258.3,1233z"/>
            <path class="st0" d="M330.2,1220.3c0,12.3-9.5,21.5-22.3,21.5h-17.2v25.4h-6.8v-68.4h24C320.6,1198.8,330.2,1208,330.2,1220.3z
			 M323.2,1220.3c0-8.5-6.6-14.8-15.7-14.8h-16.8v29.7h16.8C316.6,1235.1,323.2,1228.8,323.2,1220.3z"/>
            <path class="st0" d="M386.1,1260.6v6.6h-39.2v-68.4H385v6.5h-31.2v23.4h28.7v6.4h-28.7v25.6H386.1z"/>
            <path class="st0" d="M445.6,1249.7h-34.4l-7.2,17.5h-7.3l28.3-68.4h6.3l29.1,68.4h-7.4L445.6,1249.7z M413.8,1243.4H443
			l-14.7-35.1L413.8,1243.4z"/>
            <path class="st0" d="M529.6,1198.8v68.4h-5.8l-41.1-56.3v56.3h-6.7v-68.4h6.2l40.7,55.9v-55.9H529.6z"/>
            <path class="st0" d="M639.6,1233c0,19.8-14.6,34.2-34.7,34.2H583v-68.4h21.9C625,1198.8,639.6,1213.2,639.6,1233z M632.6,1233
			c0-16-11.6-27.7-27.9-27.7h-14.9v55.5h14.9C621,1260.7,632.6,1249,632.6,1233z"/>
            <path class="st0" d="M658.2,1198.8h6.8v68.4h-6.8V1198.8z"/>
            <path class="st0" d="M683.3,1246.4h7c0,9.2,7.4,14.9,17.8,14.9c9.5,0,16.6-5.2,16.6-13.2c0-8.9-8.6-10.9-17.9-13
			c-10.6-2.5-22.1-5.2-22.1-18.5c0-11.5,9-18.7,22.9-18.7c13.8,0,22.3,7.8,22.3,19.9h-6.8c0-8.3-6.6-13.3-15.7-13.3
			c-9.3,0-15.9,4.6-15.9,11.9c0,8.4,8.4,10.4,17.6,12.5c10.8,2.5,22.6,5.3,22.6,19.2c0,12.5-10.1,19.9-23.6,19.9
			C693.3,1268,683.3,1259.6,683.3,1246.4z"/>
            <path class="st0" d="M790.8,1205.3h-21.3v61.9h-6.8v-61.9h-21.3v-6.4h49.4V1205.3z"/>
            <path class="st0" d="M830.7,1239.5h-17.3v27.7h-6.8v-68.4h25.6c12.5,0,21.8,8.5,21.8,20.4c0,9.8-6.5,17.4-15.9,19.6l16.8,28.3H847
			L830.7,1239.5z M813.4,1233h18.4c9,0,15.1-5.8,15.1-13.8c0-8-6.2-13.8-15.1-13.8h-18.4V1233z"/>
            <path class="st0" d="M873,1198.8h6.8v68.4H873V1198.8z"/>
            <path class="st0" d="M950.6,1248.4c0,10.5-8.6,18.7-20.5,18.7h-26.9v-68.4h26.7c11.1,0,18.9,7.4,18.9,17.2
			c0,6.4-3.6,12.7-9.1,15.6C946.3,1234.1,950.6,1240.7,950.6,1248.4z M910,1205.5v22.8h20.2c6.6,0,11.6-5.2,11.6-11.4
			c0-6.4-5.2-11.3-11.8-11.3H910z M943.6,1247.7c0-7.1-5.7-12.7-13.1-12.7H910v25.4h20.3C937.8,1260.4,943.6,1255,943.6,1247.7z"/>
            <path class="st0" d="M969.3,1241.8v-43h6.9v42.5c0,12,8.1,20.2,19.6,20.2c11.4,0,19.5-8.2,19.5-20.2v-42.5h6.9v43
			c0,15.5-11.2,26.4-26.4,26.4C980.5,1268.2,969.3,1257.3,969.3,1241.8z"/>
            <path class="st0" d="M1086.4,1205.3h-21.3v61.9h-6.8v-61.9H1037v-6.4h49.4V1205.3z"/>
            <path class="st0" d="M1141.3,1260.6v6.6h-39.2v-68.4h38.1v6.5H1109v23.4h28.7v6.4H1109v25.6H1141.3z"/>
            <path class="st0" d="M1216.3,1233c0,19.8-14.6,34.2-34.7,34.2h-21.9v-68.4h21.9C1201.7,1198.8,1216.3,1213.2,1216.3,1233z
			 M1209.3,1233c0-16-11.6-27.7-27.9-27.7h-14.9v55.5h14.9C1197.7,1260.7,1209.3,1249,1209.3,1233z"/>
            <path class="st0" d="M85.2,1348.8c0,19.8-14.6,34.2-34.7,34.2H28.6v-68.4h21.9C70.6,1314.7,85.2,1329,85.2,1348.8z M78.2,1348.8
			c0-16-11.6-27.7-27.9-27.7H35.4v55.5h14.9C66.6,1376.6,78.2,1364.9,78.2,1348.8z"/>
            <path class="st0" d="M142.5,1365.6h-34.4l-7.2,17.5h-7.3l28.3-68.4h6.3l29.1,68.4h-7.4L142.5,1365.6z M110.6,1359.3h29.2
			l-14.7-35.1L110.6,1359.3z"/>
            <path class="st0" d="M208.2,1321.1H187v61.9h-6.8v-61.9h-21.3v-6.4h49.4V1321.1z"/>
            <path class="st0" d="M258.8,1365.6h-34.4l-7.2,17.5h-7.3l28.3-68.4h6.3l29.1,68.4h-7.4L258.8,1365.6z M227,1359.3h29.2l-14.7-35.1
			L227,1359.3z"/>
            <path class="st0" d="M316.2,1314.7h6.8v68.4h-6.8V1314.7z"/>
            <path class="st0" d="M400,1314.7v68.4h-5.8l-41.1-56.3v56.3h-6.7v-68.4h6.2l40.7,55.9v-55.9H400z"/>
            <path class="st0" d="M430.2,1321.2v24.8h28.4v6.4h-28.4v30.7h-6.8v-68.4h37.8v6.5H430.2z"/>
            <path class="st0" d="M502,1355.3h-17.3v27.7h-6.8v-68.4h25.6c12.5,0,21.8,8.5,21.8,20.4c0,9.8-6.5,17.4-15.9,19.6l16.8,28.3h-7.7
			L502,1355.3z M484.7,1348.8h18.4c9,0,15.1-5.8,15.1-13.8c0-8-6.2-13.8-15.1-13.8h-18.4V1348.8z"/>
            <path class="st0" d="M584.9,1365.6h-34.4l-7.2,17.5h-7.3l28.3-68.4h6.3l29.1,68.4h-7.4L584.9,1365.6z M553,1359.3h29.2l-14.7-35.1
			L553,1359.3z"/>
            <path class="st0" d="M607.9,1362.3h7c0,9.2,7.4,14.9,17.8,14.9c9.5,0,16.6-5.2,16.6-13.2c0-8.9-8.6-10.8-17.9-13
			c-10.6-2.5-22.1-5.2-22.1-18.5c0-11.5,9-18.7,22.9-18.7c13.8,0,22.3,7.8,22.3,19.9h-6.8c0-8.3-6.6-13.3-15.7-13.3
			c-9.3,0-15.9,4.6-15.9,11.9c0,8.4,8.4,10.4,17.6,12.5c10.8,2.5,22.6,5.3,22.6,19.2c0,12.5-10.1,19.9-23.6,19.9
			C617.9,1383.9,607.9,1375.5,607.9,1362.3z"/>
            <path class="st0" d="M715.4,1321.1h-21.3v61.9h-6.8v-61.9H666v-6.4h49.4V1321.1z"/>
            <path class="st0" d="M755.3,1355.3H738v27.7h-6.8v-68.4h25.6c12.5,0,21.8,8.5,21.8,20.4c0,9.8-6.5,17.4-15.9,19.6l16.8,28.3h-7.7
			L755.3,1355.3z M738,1348.8h18.4c9,0,15.1-5.8,15.1-13.8c0-8-6.2-13.8-15.1-13.8H738V1348.8z"/>
            <path class="st0" d="M796.8,1357.7v-43h6.9v42.5c0,12,8.1,20.2,19.6,20.2c11.4,0,19.5-8.2,19.5-20.2v-42.5h6.9v43
			c0,15.5-11.2,26.4-26.4,26.4C808,1384.1,796.8,1373.1,796.8,1357.7z"/>
            <path class="st0" d="M867.4,1348.9c0-20.5,14.7-35.3,35-35.3c15.6,0,27.9,9,32.1,23.3h-7c-3.9-10.4-13.2-16.6-25.1-16.6
			c-16.3,0-28,11.9-28,28.5s11.7,28.5,28,28.5c12.2,0,21.7-6.6,25.5-17.7h7c-4.1,15-16.6,24.4-32.5,24.4
			C882,1384.1,867.4,1369.4,867.4,1348.9z"/>
            <path class="st0" d="M992.4,1321.1h-21.3v61.9h-6.8v-61.9H943v-6.4h49.4V1321.1z"/>
            <path class="st0" d="M1007.3,1357.7v-43h6.9v42.5c0,12,8.1,20.2,19.6,20.2c11.4,0,19.5-8.2,19.5-20.2v-42.5h6.9v43
			c0,15.5-11.2,26.4-26.4,26.4C1018.5,1384.1,1007.3,1373.1,1007.3,1357.7z"/>
            <path class="st0" d="M1106.8,1355.3h-17.3v27.7h-6.8v-68.4h25.6c12.5,0,21.8,8.5,21.8,20.4c0,9.8-6.5,17.4-15.9,19.6l16.8,28.3
			h-7.7L1106.8,1355.3z M1089.5,1348.8h18.4c9,0,15.1-5.8,15.1-13.8c0-8-6.2-13.8-15.1-13.8h-18.4V1348.8z"/>
            <path class="st0" d="M1188.3,1376.5v6.6h-39.2v-68.4h38.1v6.5H1156v23.4h28.7v6.4H1156v25.6H1188.3z"/>
            <path class="st0" d="M321,1437v24.8h28.4v6.4H321v30.7h-6.8v-68.4h37.8v6.5H321z"/>
            <path class="st0" d="M363.3,1464.7c0-20.2,15-35.3,35.6-35.3c20.6,0,35.6,15.1,35.6,35.3c0,20.2-15,35.3-35.6,35.3
			C378.2,1500,363.3,1484.9,363.3,1464.7z M427.5,1464.7c0-16.4-12.1-28.6-28.6-28.6c-16.5,0-28.6,12.4-28.6,28.6
			c0,16.2,12.1,28.6,28.6,28.6C415.4,1493.3,427.5,1481.1,427.5,1464.7z"/>
            <path class="st0" d="M477.2,1471.2h-17.3v27.7H453v-68.4h25.6c12.5,0,21.8,8.5,21.8,20.4c0,9.8-6.5,17.4-15.9,19.6l16.8,28.3h-7.7
			L477.2,1471.2z M459.9,1464.7h18.4c9,0,15.1-5.8,15.1-13.8c0-8-6.2-13.8-15.1-13.8h-18.4V1464.7z"/>
            <path class="st0" d="M588.8,1492.3v6.6h-39.2v-68.4h38.1v6.5h-31.2v23.4h28.7v6.4h-28.7v25.6H588.8z"/>
            <path class="st0" d="M660.8,1430.5v68.4H655l-41.1-56.3v56.3h-6.7v-68.4h6.2l40.7,55.9v-55.9H660.8z"/>
            <path class="st0" d="M723.3,1492.3v6.6h-39.2v-68.4h38.1v6.5H691v23.4h28.7v6.4H691v25.6H723.3z"/>
            <path class="st0" d="M765.8,1471.2h-17.3v27.7h-6.8v-68.4h25.6c12.5,0,21.8,8.5,21.8,20.4c0,9.8-6.5,17.4-15.9,19.6l16.8,28.3
			h-7.7L765.8,1471.2z M748.5,1464.7h18.4c9,0,15.1-5.8,15.1-13.8c0-8-6.2-13.8-15.1-13.8h-18.4V1464.7z"/>
            <path class="st0" d="M871.9,1465.6c-0.5,20.2-14.5,34.4-34,34.4c-20.1,0-34.5-14.9-34.5-35.2c0-20.3,14.6-35.2,34.4-35.2
			c16.3,0,30,10.2,33,24.6h-7.1c-2.9-10.6-13.4-17.9-25.8-17.9c-16,0-27.5,11.9-27.5,28.5c0,16.8,11.3,28.5,27.5,28.5
			c13.8,0,24.4-8.5,26.6-21.2h-29.3v-6.5H871.9z"/>
            <path class="st0" d="M911.8,1471.7v27.2h-7.1v-27.2l-25.4-41.2h7.5l21.4,34.7l21.6-34.7h7.5L911.8,1471.7z"/>
	</g>
        <g>
		<path class="st1" d="M807.2,353.9c17.7-8.3,30.4-6.6,41.3-0.6c-6.7-53.9-29.6-72.8-36.5-77.4c-17.6,11.1-31.6,27.2-40.2,46.4
			c-13.6,17.5-91.4,23.1-158.8,24.5c-2,0-4.1,0.1-6.2,0.1c-22.8,0.4-44.1,0.4-60.9,0.2c-10.4-0.3-20.9-0.8-30.9-1.7
			c16.4,6,43.9,18.9,49.9,39.2c12.8,0,27,0,42,0.3c2.2,0,4.2,0.1,6.2,0.1c67.6,1.4,145.6,7,159,24.6
			C769.8,392.8,774.1,369.3,807.2,353.9z"/>
            <path class="st2" d="M579.4,567.2c46.1,54,98.8,53.9,134.5,47.9c0,0,0-0.1,0-0.1c-0.3-3.2-0.8-6.4-1.4-9.5c0-0.2-0.1-0.4-0.1-0.6
			c-0.6-3.1-1.4-6.2-2.3-9.2c-0.1-0.3-0.1-0.5-0.2-0.8c-0.9-3-1.9-5.9-3.1-8.8c-0.1-0.3-0.3-0.7-0.4-1c-1.2-2.8-2.4-5.6-3.8-8.3
			c-0.2-0.4-0.4-0.8-0.6-1.2c-1.4-2.7-3-5.3-4.6-7.8c-0.2-0.4-0.5-0.7-0.7-1.1c-1.8-2.7-3.7-5.2-5.7-7.7c-0.2-0.2-0.3-0.5-0.5-0.7
			c-3.5-4.3-7.4-8.3-11.5-12c-1.1-1-2.2-2-3.4-2.9c-0.2-0.2-0.4-0.3-0.7-0.5c-2.5-2-5.1-3.9-7.7-5.7c-0.4-0.2-0.7-0.5-1.1-0.7
			c-2.6-1.7-5.2-3.2-7.9-4.7c-0.4-0.2-0.8-0.4-1.2-0.6c-2.7-1.4-5.5-2.7-8.3-3.9c-0.3-0.1-0.6-0.2-1-0.4c-2.9-1.2-5.8-2.2-8.8-3.1
			c-0.2-0.1-0.5-0.1-0.7-0.2c-3-0.9-6.1-1.7-9.3-2.3c-0.2,0-0.4-0.1-0.5-0.1c-3.2-0.6-6.4-1.1-9.6-1.4c-0.1,0-0.3,0-0.4,0
			c-3.2-0.3-6.5-0.5-9.8-0.5c-3.3,0-6.6,0.2-9.8,0.5c-0.1,0-0.3,0-0.4,0c-3.3,0.3-6.5,0.8-9.6,1.4c-0.1,0-0.2,0-0.3,0l0,0l0,0
			c-0.1,0-0.1,0-0.2,0c-0.5,0.1-1.1,0.2-1.6,0.3c-3.4,0.6-11.3,1.5-22.5-0.4c1,1.2,1.9,2.4,3,3.7
			C575.5,535.9,576.7,546.6,579.4,567.2z"/>
            <path class="st3" d="M579.4,567.2c0.9,7.1,2,15.3,3.7,25.1c13.7,82.2,70.6,103.8,98.6,109.5c0.6-0.6,1.2-1.1,1.7-1.7
			c2.2-2.2,4.2-4.4,6.2-6.8c0.2-0.3,0.4-0.5,0.7-0.8c0.1-0.1,0.2-0.2,0.3-0.3c0.2-0.2,0.4-0.5,0.5-0.7c2-2.5,3.9-5,5.7-7.7
			c0.2-0.4,0.5-0.7,0.7-1.1c1.7-2.5,3.2-5.2,4.6-7.8c0.2-0.4,0.4-0.8,0.6-1.2c1.4-2.7,2.7-5.4,3.8-8.3c0.1-0.3,0.3-0.7,0.4-1
			c1.1-2.9,2.2-5.8,3.1-8.8c0.1-0.3,0.1-0.5,0.2-0.8c0.9-3,1.6-6.1,2.3-9.2c0-0.2,0.1-0.4,0.1-0.6c0.6-3.1,1.1-6.3,1.4-9.5
			c0-0.2,0-0.4,0-0.5c0.3-3.2,0.5-6.5,0.5-9.7c0,0,0,0,0,0c0-3.3-0.2-6.5-0.5-9.7c0-0.2,0-0.3,0-0.5
			C678.3,621.1,625.5,621.2,579.4,567.2z"/>
            <path class="st4" d="M475.5,522.9c3.4,3.7,5.3,6.1,5.3,6.1c27.9,37.3,25.6,66.3,24.3,74.1c-0.1,0.7-0.3,1.3-0.4,2
			c0,0.2-0.1,0.3-0.1,0.5c-0.6,3.2-1.1,6.4-1.4,9.6c0,0.1,0,0.3,0,0.4c-0.3,3.2-0.5,6.5-0.5,9.8c0,3.3,0.2,6.6,0.5,9.8
			c0,0.1,0,0.3,0,0.4c0.3,3.3,0.8,6.5,1.4,9.6c0,0.2,0.1,0.3,0.1,0.5c0.6,3.2,1.4,6.3,2.3,9.3c0.1,0.2,0.1,0.4,0.2,0.7
			c0.9,3,1.9,6,3.1,8.9c0.1,0.3,0.2,0.6,0.4,0.9c1.2,2.9,2.5,5.6,3.9,8.4c0.2,0.4,0.4,0.7,0.6,1.1c1.4,2.7,3,5.4,4.7,7.9
			c0.2,0.3,0.4,0.7,0.7,1c1.8,2.7,3.7,5.3,5.7,7.8c0.2,0.2,0.3,0.4,0.5,0.6c4.5,5.5,9.5,10.5,15,15c0.2,0.2,0.4,0.3,0.6,0.5
			c2.5,2,5.1,3.9,7.8,5.7c0.3,0.2,0.7,0.4,1,0.7c2.6,1.7,5.2,3.2,7.9,4.7c0.4,0.2,0.7,0.4,1.1,0.6c2.7,1.4,5.5,2.7,8.4,3.9
			c0.3,0.1,0.6,0.2,0.9,0.4c2.9,1.2,5.9,2.2,8.9,3.1c0.2,0.1,0.4,0.1,0.6,0.2c3.1,0.9,6.2,1.7,9.3,2.3c0.2,0,0.3,0.1,0.5,0.1
			c3.2,0.6,6.4,1.1,9.6,1.4c0.1,0,0.3,0,0.4,0c3.2,0.3,6.5,0.5,9.8,0.5c3.3,0,6.6-0.2,9.8-0.5c0.1,0,0.3,0,0.4,0
			c3.2-0.3,6.4-0.8,9.6-1.4c0.2,0,0.3-0.1,0.5-0.1c3.2-0.6,6.3-1.4,9.3-2.3c0.2-0.1,0.5-0.1,0.7-0.2c3-0.9,6-1.9,8.8-3.1
			c0.3-0.1,0.6-0.2,1-0.4c2.8-1.2,5.6-2.5,8.3-3.9c0.4-0.2,0.8-0.4,1.1-0.6c2.7-1.4,5.3-3,7.9-4.7c0.4-0.2,0.7-0.5,1.1-0.7
			c2.7-1.8,5.2-3.7,7.7-5.7c0.2-0.2,0.4-0.3,0.7-0.5c2.1-1.7,4.1-3.5,6.1-5.4c-28-5.7-84.9-27.3-98.6-109.5
			c-1.6-9.8-2.7-18.1-3.7-25.1c-2.7-20.6-4-31.3-12.4-42.1c-1-1.3-2-2.5-3-3.7c-13.4-2.3-31.4-8.5-51.9-23.8
			c0,0-36.8-31.4-55.8-59.1C437.9,456.8,488.8,490,475.5,522.9z"/>
            <path class="st3" d="M373.6,426.6c-64.2-1.6-109.2-38.3-131.2-69.5c-2.3,29.8,7.9,60.3,30.7,83.1c13.8,13.8,30.6,22.9,48.2,27.5
			c1.6,0.4,3.1,0.8,4.7,1.2c0.8,0.2,1.6,0.4,2.4,0.5c6.6,1.3,13.5,2,20.5,2c15.1,0,29.5-3.2,42.5-8.9l0,0
			c21.8-6.3,68.4,42.8,84.1,60.3c13.3-32.9-37.6-66.1-19.1-84.4c-6.3-9.2-10.6-17.9-11-25l-0.4,0.5
			C445,413.9,421.3,427.9,373.6,426.6z"/>
            <path class="st2" d="M514.8,345.4c-34.7-3-64.4-10.1-69.5-26.3c0-0.2,0-0.4,0-0.6c-7.2,5.6-44.6,32.1-113.8,36.6
			c0,0-52.2,4.9-84.9-20.8c-2.3,7.5-3.7,15.1-4.3,22.9c22,31.2,67,67.8,131.2,69.5c47.8,1.2,71.5-12.8,71.5-12.8l0.4-0.5
			c0-0.2-0.1-0.5-0.1-0.7c6.5-20.8,54-26.6,100.4-27.9c5.8-0.1,12.2-0.1,19-0.1C558.7,364.3,531.2,351.4,514.8,345.4z"/>
            <path class="st5" d="M331.6,355.1c69.2-4.4,106.6-31,113.8-36.6c0.6-28.5,66.8-84.9,66.8-84.9c37.3-27.9,66.3-25.6,74.1-24.3
			c0.7,0.1,1.4,0.3,2,0.4c0.1,0,0.2,0,0.3,0.1c3.2,0.6,6.5,1.1,9.8,1.4c0.1,0,0.2,0,0.3,0c3.3,0.3,6.6,0.5,10,0.5
			c3.4,0,6.7-0.2,10-0.5c0.1,0,0.2,0,0.3,0c3.3-0.3,6.6-0.8,9.8-1.4c0.1,0,0.2,0,0.3-0.1c3.2-0.6,6.4-1.4,9.5-2.3
			c0.2,0,0.3-0.1,0.5-0.1c3.1-0.9,6.1-2,9-3.2c0.3-0.1,0.5-0.2,0.8-0.3c2.9-1.2,5.7-2.5,8.5-3.9c0.3-0.2,0.6-0.3,1-0.5
			c2.8-1.5,5.4-3.1,8.1-4.8c0.3-0.2,0.6-0.4,0.9-0.6c2.7-1.8,5.4-3.8,7.9-5.8c0.2-0.1,0.3-0.3,0.5-0.4c5.5-4.5,10.5-9.5,15-15
			c0.1-0.2,0.3-0.3,0.4-0.5c2-2.5,4-5.2,5.8-7.9c0.2-0.3,0.4-0.6,0.6-1c1.7-2.6,3.3-5.3,4.7-8c0.2-0.3,0.4-0.7,0.5-1
			c1.4-2.7,2.7-5.5,3.9-8.4c0.1-0.3,0.2-0.6,0.3-0.9c1.2-2.9,2.2-5.9,3.1-8.9c0.1-0.2,0.1-0.4,0.2-0.6c0.9-3.1,1.7-6.2,2.3-9.4
			c0-0.2,0.1-0.3,0.1-0.5c0.6-3.2,1.1-6.4,1.4-9.6c0-0.1,0-0.3,0-0.4c0.3-3.2,0.5-6.5,0.5-9.9c0-3.3-0.2-6.6-0.5-9.8
			c0-0.1,0-0.3,0-0.4c-0.3-3.2-0.8-6.4-1.4-9.6c0-0.2-0.1-0.3-0.1-0.5c0,0,0-0.1,0-0.1c-4.1-6.4-16-13.1-50.3-2
			c-42.7,13.8-53.7,78.5-160.6,79.7c-3.5,11.3-9.8,24.6-20.7,39.1c0,0-63,74-89.5,66.4l0,0c-7.4-3.2-15.2-5.6-23.3-7.1c0,0,0,0,0,0
			c-2.8-0.5-5.6-0.9-8.5-1.2c-30.8-3.4-62.9,6.6-86.5,30.3c-12.7,12.7-21.4,27.7-26.3,43.7C279.4,360,331.6,355.1,331.6,355.1z"/>
            <path class="st4" d="M712.5,85.4c-0.6-3.1-1.4-6.2-2.3-9.2c-0.1-0.2-0.1-0.5-0.2-0.7c-0.9-3-1.9-6-3.1-8.9c-0.1-0.3-0.2-0.6-0.4-1
			c-1.2-2.8-2.5-5.6-3.9-8.3c-0.2-0.4-0.4-0.8-0.6-1.1c-1.4-2.7-3-5.3-4.7-7.9c-0.2-0.4-0.5-0.7-0.7-1.1c-1.8-2.7-3.7-5.2-5.7-7.7
			c-0.2-0.2-0.3-0.4-0.5-0.7c-2.2-2.7-4.6-5.3-7.1-7.8c-2.2-2.2-4.4-4.2-6.8-6.2c-0.3-0.2-0.5-0.4-0.8-0.7c-0.1-0.1-0.2-0.2-0.3-0.3
			c-0.2-0.2-0.5-0.4-0.7-0.5c-2.5-2-5-3.9-7.7-5.7c-0.4-0.2-0.7-0.5-1.1-0.7c-1.5-0.9-2.9-1.8-4.4-2.7C592.7,24.6,584,82,584,82
			c-17.5,54.7-62.8,59.2-78.3,59c-0.3,5.9-1.4,13.4-4.2,22.1c106.9-1.2,117.9-65.9,160.6-79.7C696.5,72.3,708.4,78.9,712.5,85.4z"/>
            <path class="st3" d="M584,82c0,0,8.6-57.4,77.7-67.7c-1.1-0.7-2.3-1.3-3.4-1.9c-0.4-0.2-0.8-0.4-1.2-0.6c-2.7-1.4-5.4-2.7-8.3-3.8
			c-0.3-0.1-0.7-0.3-1-0.4c-2.9-1.1-5.8-2.2-8.8-3.1c-0.3-0.1-0.5-0.1-0.8-0.2c-3-0.9-6.1-1.6-9.2-2.3c-0.2,0-0.4-0.1-0.6-0.1
			c-3.1-0.6-6.3-1.1-9.5-1.4c-0.2,0-0.4,0-0.5,0c-3.2-0.3-6.5-0.5-9.7-0.5c0,0,0,0,0,0c-3.3,0-6.5,0.2-9.7,0.5c-0.2,0-0.4,0-0.5,0
			c-3.2,0.3-6.4,0.8-9.5,1.4c-0.2,0-0.4,0.1-0.6,0.1c-3.1,0.6-6.2,1.4-9.2,2.3c-0.3,0.1-0.5,0.1-0.8,0.2c-3,0.9-5.9,1.9-8.8,3.1
			c-0.3,0.1-0.7,0.3-1,0.4c-2.8,1.2-5.6,2.4-8.3,3.8c-0.4,0.2-0.8,0.4-1.2,0.6c-2.7,1.4-5.3,3-7.8,4.6c-0.4,0.2-0.7,0.5-1.1,0.7
			c-2.7,1.8-5.2,3.7-7.7,5.7c-0.2,0.2-0.5,0.3-0.7,0.5c-4.3,3.5-8.3,7.4-12,11.5c-1,1.1-2,2.2-2.9,3.4c-0.2,0.2-0.3,0.4-0.5,0.7
			c-2,2.5-3.9,5.1-5.7,7.7c-0.2,0.4-0.5,0.7-0.7,1.1c-1.7,2.6-3.2,5.2-4.7,7.9c-0.2,0.4-0.4,0.8-0.6,1.2c-1.4,2.7-2.7,5.5-3.9,8.3
			c-0.1,0.3-0.3,0.6-0.4,1c-1.2,2.9-2.2,5.8-3.1,8.8c-0.1,0.2-0.1,0.5-0.2,0.7c-0.9,3-1.7,6.1-2.3,9.3c0,0.2-0.1,0.4-0.1,0.5
			c-0.6,3.2-1.1,6.4-1.4,9.6c0,0.1,0,0.3,0,0.4c-0.3,3.2-0.5,6.5-0.5,9.8c0,3.3,0.2,6.6,0.5,9.9c0,0.1,0,0.3,0,0.4
			c0.3,3.3,0.8,6.5,1.4,9.6c0,0.1,0,0.2,0,0.3l0,0c0,0,0,0,0,0c0,0.1,0,0.1,0,0.2c0.1,0.6,0.2,1.1,0.3,1.7c0.4,2.3,1,6.9,0.6,13.2
			C521.3,141.2,566.6,136.7,584,82z"/>
            <path class="st2" d="M848.5,353.3c23.8,13.3,38.3,47.9,76,46.2c37.4-1.6,47.2-24.2,49.7-38.3c-2.3-56.5-48.7-101.5-105.7-101.5
			c-20.8,0-40.1,6-56.4,16.3C818.9,280.5,841.7,299.4,848.5,353.3z"/>
            <path class="st5" d="M967.2,403.3c0.8-2.2,1.6-4.4,2.3-6.6c0.3-0.9,0.5-1.8,0.7-2.6c0.7-2.5,1.3-5.1,1.9-7.6
			c0.1-0.6,0.2-1.2,0.3-1.9c0.5-2.8,0.9-5.7,1.2-8.5c0-0.3,0-0.7,0.1-1c0.3-3.1,0.4-6.2,0.4-9.4c0,0,0,0,0-0.1c0-0.1,0-0.1,0-0.2
			c0-1.4-0.1-2.9-0.1-4.3c-2.5,14.2-12.3,36.7-49.7,38.3c-37.7,1.6-52.2-32.9-76-46.2c-10.8-6-23.6-7.7-41.3,0.6
			c-33.1,15.4-37.4,38.9-35.3,55.8c0.4,0.6,0.8,1.2,1.1,1.8l0.1-0.1c0.1,0.3,0.3,0.5,0.4,0.8c1.1,2.2,2.3,4.4,3.6,6.6
			c0.4,0.7,0.8,1.4,1.2,2c1.5,2.4,3.1,4.8,4.8,7.2c0.3,0.4,0.6,0.8,0.9,1.2c1.8,2.4,3.7,4.7,5.7,6.9c0.3,0.3,0.6,0.6,0.8,0.9
			c1.1,1.1,2,2.3,3.1,3.5c1.2,1.2,2.4,2.2,3.6,3.3c0,0,0.1,0.1,0.1,0.1c40.2,36.6,101.7,36.6,142,0.1c0.1-0.1,0.3-0.2,0.4-0.4
			c1.2-1.1,2.4-2,3.5-3.2c1.1-1.1,2-2.2,3-3.3c0.4-0.4,0.7-0.8,1.1-1.2c1.9-2.2,3.8-4.4,5.5-6.6c0.4-0.5,0.8-1.1,1.2-1.6
			c1.6-2.2,3.1-4.5,4.5-6.8c0.5-0.8,1-1.7,1.5-2.6c1.2-2,2.3-4,3.3-6.1c0.8-1.6,1.5-3.2,2.2-4.8
			C966.1,406.1,966.7,404.7,967.2,403.3z"/>
	</g>
</g>
</svg>
